%TF.GenerationSoftware,KiCad,Pcbnew,(5.1.12)-1*%
%TF.CreationDate,2022-01-19T18:51:43-06:00*%
%TF.ProjectId,plate,706c6174-652e-46b6-9963-61645f706362,rev?*%
%TF.SameCoordinates,Original*%
%TF.FileFunction,Legend,Bot*%
%TF.FilePolarity,Positive*%
%FSLAX46Y46*%
G04 Gerber Fmt 4.6, Leading zero omitted, Abs format (unit mm)*
G04 Created by KiCad (PCBNEW (5.1.12)-1) date 2022-01-19 18:51:43*
%MOMM*%
%LPD*%
G01*
G04 APERTURE LIST*
%ADD10C,0.010000*%
G04 APERTURE END LIST*
%LPC*%
D10*
%TO.C,G1*%
G36*
X81435171Y-121723394D02*
G01*
X81502805Y-121803888D01*
X81520095Y-121828584D01*
X81584188Y-121905118D01*
X81630950Y-121927685D01*
X81639010Y-121921332D01*
X81688960Y-121874935D01*
X81717501Y-121895497D01*
X81701701Y-121965323D01*
X81700063Y-121968443D01*
X81672748Y-122072812D01*
X81696476Y-122210676D01*
X81696827Y-122211860D01*
X81742282Y-122364913D01*
X81787051Y-122515719D01*
X81836018Y-122641925D01*
X81907714Y-122746485D01*
X82013393Y-122836364D01*
X82164311Y-122918526D01*
X82371723Y-122999934D01*
X82646884Y-123087553D01*
X82768668Y-123123099D01*
X83030080Y-123200855D01*
X83297460Y-123285093D01*
X83544825Y-123367323D01*
X83746192Y-123439058D01*
X83804480Y-123461495D01*
X83978409Y-123529633D01*
X84091937Y-123568923D01*
X84163244Y-123582032D01*
X84210511Y-123571627D01*
X84251920Y-123540375D01*
X84264212Y-123528937D01*
X84428645Y-123421288D01*
X84650800Y-123341038D01*
X84906960Y-123292415D01*
X85173412Y-123279649D01*
X85426440Y-123306970D01*
X85463151Y-123315117D01*
X85687391Y-123411987D01*
X85880546Y-123587284D01*
X86042136Y-123840494D01*
X86119222Y-124017610D01*
X86203147Y-124327330D01*
X86210810Y-124628151D01*
X86142437Y-124942082D01*
X86129155Y-124981619D01*
X86089357Y-125104216D01*
X86081057Y-125181158D01*
X86107479Y-125246595D01*
X86161165Y-125320669D01*
X86223002Y-125414669D01*
X86308983Y-125562315D01*
X86406330Y-125741064D01*
X86477385Y-125878550D01*
X86586062Y-126096123D01*
X86673515Y-126277944D01*
X86749555Y-126446725D01*
X86823993Y-126625177D01*
X86906641Y-126836012D01*
X87007309Y-127101940D01*
X87016707Y-127127000D01*
X87057777Y-127265765D01*
X87104662Y-127471823D01*
X87154731Y-127728220D01*
X87205350Y-128018004D01*
X87253888Y-128324225D01*
X87297710Y-128629928D01*
X87334185Y-128918163D01*
X87360680Y-129171977D01*
X87374563Y-129374417D01*
X87376000Y-129440593D01*
X87376000Y-129834159D01*
X87249000Y-129899834D01*
X87157264Y-129970445D01*
X87122000Y-130046063D01*
X87085544Y-130160806D01*
X86977650Y-130232398D01*
X86800524Y-130259462D01*
X86780309Y-130259667D01*
X86654765Y-130255254D01*
X86592565Y-130236113D01*
X86572591Y-130193389D01*
X86571666Y-130172188D01*
X86555035Y-130109726D01*
X86489464Y-130095189D01*
X86455250Y-130098105D01*
X86370175Y-130123632D01*
X86333388Y-130191997D01*
X86325927Y-130244256D01*
X86302628Y-130328022D01*
X86243049Y-130382993D01*
X86133536Y-130414436D01*
X85960429Y-130427614D01*
X85846708Y-130429000D01*
X85723069Y-130425360D01*
X85662123Y-130406953D01*
X85641967Y-130362547D01*
X85640333Y-130323167D01*
X85619828Y-130239479D01*
X85559129Y-130217334D01*
X85423984Y-130239689D01*
X85355576Y-130309845D01*
X85344000Y-130380862D01*
X85313798Y-130476312D01*
X85217919Y-130550056D01*
X85048449Y-130607293D01*
X84974819Y-130623486D01*
X84796167Y-130638063D01*
X84679522Y-130598902D01*
X84627165Y-130506998D01*
X84624333Y-130470527D01*
X84613386Y-130380739D01*
X84564235Y-130348110D01*
X84507916Y-130344982D01*
X84376966Y-130363253D01*
X84306396Y-130426686D01*
X84278903Y-130534470D01*
X84258330Y-130618775D01*
X84204651Y-130663932D01*
X84095166Y-130691573D01*
X83939584Y-130706387D01*
X83785654Y-130701560D01*
X83771789Y-130699732D01*
X83663918Y-130672418D01*
X83611473Y-130617149D01*
X83592931Y-130553074D01*
X83557410Y-130460871D01*
X83487327Y-130429867D01*
X83464687Y-130429000D01*
X83322789Y-130446081D01*
X83247671Y-130502972D01*
X83227333Y-130598333D01*
X83214527Y-130681997D01*
X83165900Y-130733283D01*
X83066139Y-130759398D01*
X82899931Y-130767548D01*
X82867500Y-130767667D01*
X82690077Y-130761767D01*
X82581341Y-130739085D01*
X82525821Y-130692147D01*
X82508052Y-130613480D01*
X82507666Y-130593804D01*
X82501737Y-130518464D01*
X82468654Y-130482777D01*
X82385475Y-130471995D01*
X82317166Y-130471334D01*
X82126666Y-130471334D01*
X82126666Y-130810000D01*
X81819750Y-130806658D01*
X81661240Y-130802204D01*
X81533283Y-130793634D01*
X81462046Y-130782743D01*
X81459916Y-130781964D01*
X81424152Y-130729261D01*
X81407211Y-130628989D01*
X81407000Y-130615972D01*
X81407000Y-130471334D01*
X81200044Y-130471334D01*
X81075819Y-130474583D01*
X81011093Y-130494920D01*
X80980705Y-130548222D01*
X80965293Y-130619500D01*
X80937496Y-130767667D01*
X80674831Y-130767089D01*
X80474089Y-130761983D01*
X80341912Y-130743800D01*
X80262507Y-130706653D01*
X80220079Y-130644656D01*
X80205631Y-130592240D01*
X80184905Y-130516856D01*
X80145877Y-130482002D01*
X80063385Y-130475177D01*
X79978839Y-130479573D01*
X79856041Y-130491964D01*
X79794084Y-130518148D01*
X79769143Y-130572632D01*
X79763604Y-130610644D01*
X79750042Y-130728788D01*
X79424938Y-130716477D01*
X79260980Y-130709014D01*
X79163270Y-130697280D01*
X79113435Y-130674172D01*
X79093103Y-130632590D01*
X79086226Y-130585553D01*
X79039440Y-130473549D01*
X78967053Y-130426803D01*
X78853740Y-130392463D01*
X78788879Y-130406945D01*
X78746032Y-130479578D01*
X78735455Y-130508506D01*
X78700184Y-130582348D01*
X78643363Y-130622863D01*
X78538801Y-130644458D01*
X78476130Y-130651182D01*
X78317671Y-130655864D01*
X78168733Y-130643542D01*
X78118638Y-130633186D01*
X78020806Y-130593903D01*
X77982612Y-130532017D01*
X77978000Y-130470833D01*
X77949967Y-130357955D01*
X77881266Y-130286307D01*
X77794987Y-130262010D01*
X77714226Y-130291188D01*
X77662073Y-130379961D01*
X77660500Y-130386667D01*
X77637762Y-130462231D01*
X77596421Y-130499740D01*
X77511552Y-130512440D01*
X77421520Y-130513667D01*
X77232658Y-130500406D01*
X77114502Y-130456712D01*
X77056730Y-130376717D01*
X77046666Y-130300511D01*
X77028454Y-130202734D01*
X76986629Y-130175000D01*
X76893698Y-130160158D01*
X76859079Y-130149093D01*
X76800332Y-130156153D01*
X76752490Y-130236177D01*
X76745642Y-130254927D01*
X76706880Y-130339512D01*
X76649594Y-130377138D01*
X76542896Y-130386080D01*
X76523942Y-130386089D01*
X76343928Y-130378498D01*
X76232891Y-130351941D01*
X76175872Y-130298579D01*
X76157915Y-130210569D01*
X76157666Y-130194082D01*
X76141562Y-130085024D01*
X76084582Y-130031265D01*
X76068738Y-130025481D01*
X75972178Y-130020916D01*
X75914635Y-130087066D01*
X75896840Y-130153834D01*
X75859621Y-130217458D01*
X75764583Y-130247632D01*
X75731590Y-130251151D01*
X75536179Y-130242062D01*
X75400847Y-130178251D01*
X75329188Y-130061561D01*
X75324728Y-130042561D01*
X75272940Y-129925367D01*
X75173423Y-129861946D01*
X75048885Y-129815167D01*
X75076718Y-129264834D01*
X75109078Y-128842201D01*
X75162687Y-128397994D01*
X75233778Y-127952979D01*
X75318583Y-127527917D01*
X75413333Y-127143574D01*
X75514260Y-126820713D01*
X75526141Y-126788334D01*
X75594955Y-126604796D01*
X75669859Y-126405800D01*
X75701256Y-126322667D01*
X75758237Y-126198677D01*
X75849643Y-126028548D01*
X75962853Y-125833005D01*
X76085250Y-125632778D01*
X76204214Y-125448593D01*
X76307125Y-125301177D01*
X76372162Y-125220683D01*
X76486230Y-125094634D01*
X76548041Y-125012195D01*
X76566330Y-124958253D01*
X76549834Y-124917697D01*
X76548359Y-124915878D01*
X76512789Y-124849947D01*
X76462930Y-124729817D01*
X76412052Y-124588634D01*
X76351325Y-124341585D01*
X76349778Y-124114573D01*
X76409696Y-123879854D01*
X76484826Y-123705584D01*
X76569496Y-123558553D01*
X76674962Y-123442479D01*
X76828711Y-123327854D01*
X76849118Y-123314477D01*
X77030082Y-123207337D01*
X77191643Y-123141805D01*
X77363157Y-123110963D01*
X77573981Y-123107891D01*
X77698492Y-123114297D01*
X77922537Y-123141137D01*
X78104655Y-123195655D01*
X78221798Y-123252034D01*
X78343111Y-123325095D01*
X78430718Y-123390952D01*
X78459850Y-123425113D01*
X78510486Y-123444218D01*
X78626434Y-123423885D01*
X78799311Y-123366358D01*
X79015166Y-123276383D01*
X79191297Y-123210263D01*
X79423512Y-123141031D01*
X79687621Y-123074110D01*
X79959434Y-123014923D01*
X80214758Y-122968894D01*
X80429404Y-122941446D01*
X80532816Y-122936135D01*
X80669456Y-122894727D01*
X80791650Y-122797816D01*
X80861907Y-122716489D01*
X80915875Y-122621019D01*
X80962623Y-122489899D01*
X81011222Y-122301618D01*
X81023725Y-122247483D01*
X81075708Y-122036246D01*
X81118606Y-121904145D01*
X81155322Y-121846499D01*
X81188755Y-121858629D01*
X81220137Y-121930584D01*
X81241616Y-121981221D01*
X81261766Y-121969325D01*
X81290005Y-121885984D01*
X81298429Y-121856500D01*
X81336881Y-121752178D01*
X81375853Y-121694107D01*
X81387189Y-121689669D01*
X81435171Y-121723394D01*
G37*
X81435171Y-121723394D02*
X81502805Y-121803888D01*
X81520095Y-121828584D01*
X81584188Y-121905118D01*
X81630950Y-121927685D01*
X81639010Y-121921332D01*
X81688960Y-121874935D01*
X81717501Y-121895497D01*
X81701701Y-121965323D01*
X81700063Y-121968443D01*
X81672748Y-122072812D01*
X81696476Y-122210676D01*
X81696827Y-122211860D01*
X81742282Y-122364913D01*
X81787051Y-122515719D01*
X81836018Y-122641925D01*
X81907714Y-122746485D01*
X82013393Y-122836364D01*
X82164311Y-122918526D01*
X82371723Y-122999934D01*
X82646884Y-123087553D01*
X82768668Y-123123099D01*
X83030080Y-123200855D01*
X83297460Y-123285093D01*
X83544825Y-123367323D01*
X83746192Y-123439058D01*
X83804480Y-123461495D01*
X83978409Y-123529633D01*
X84091937Y-123568923D01*
X84163244Y-123582032D01*
X84210511Y-123571627D01*
X84251920Y-123540375D01*
X84264212Y-123528937D01*
X84428645Y-123421288D01*
X84650800Y-123341038D01*
X84906960Y-123292415D01*
X85173412Y-123279649D01*
X85426440Y-123306970D01*
X85463151Y-123315117D01*
X85687391Y-123411987D01*
X85880546Y-123587284D01*
X86042136Y-123840494D01*
X86119222Y-124017610D01*
X86203147Y-124327330D01*
X86210810Y-124628151D01*
X86142437Y-124942082D01*
X86129155Y-124981619D01*
X86089357Y-125104216D01*
X86081057Y-125181158D01*
X86107479Y-125246595D01*
X86161165Y-125320669D01*
X86223002Y-125414669D01*
X86308983Y-125562315D01*
X86406330Y-125741064D01*
X86477385Y-125878550D01*
X86586062Y-126096123D01*
X86673515Y-126277944D01*
X86749555Y-126446725D01*
X86823993Y-126625177D01*
X86906641Y-126836012D01*
X87007309Y-127101940D01*
X87016707Y-127127000D01*
X87057777Y-127265765D01*
X87104662Y-127471823D01*
X87154731Y-127728220D01*
X87205350Y-128018004D01*
X87253888Y-128324225D01*
X87297710Y-128629928D01*
X87334185Y-128918163D01*
X87360680Y-129171977D01*
X87374563Y-129374417D01*
X87376000Y-129440593D01*
X87376000Y-129834159D01*
X87249000Y-129899834D01*
X87157264Y-129970445D01*
X87122000Y-130046063D01*
X87085544Y-130160806D01*
X86977650Y-130232398D01*
X86800524Y-130259462D01*
X86780309Y-130259667D01*
X86654765Y-130255254D01*
X86592565Y-130236113D01*
X86572591Y-130193389D01*
X86571666Y-130172188D01*
X86555035Y-130109726D01*
X86489464Y-130095189D01*
X86455250Y-130098105D01*
X86370175Y-130123632D01*
X86333388Y-130191997D01*
X86325927Y-130244256D01*
X86302628Y-130328022D01*
X86243049Y-130382993D01*
X86133536Y-130414436D01*
X85960429Y-130427614D01*
X85846708Y-130429000D01*
X85723069Y-130425360D01*
X85662123Y-130406953D01*
X85641967Y-130362547D01*
X85640333Y-130323167D01*
X85619828Y-130239479D01*
X85559129Y-130217334D01*
X85423984Y-130239689D01*
X85355576Y-130309845D01*
X85344000Y-130380862D01*
X85313798Y-130476312D01*
X85217919Y-130550056D01*
X85048449Y-130607293D01*
X84974819Y-130623486D01*
X84796167Y-130638063D01*
X84679522Y-130598902D01*
X84627165Y-130506998D01*
X84624333Y-130470527D01*
X84613386Y-130380739D01*
X84564235Y-130348110D01*
X84507916Y-130344982D01*
X84376966Y-130363253D01*
X84306396Y-130426686D01*
X84278903Y-130534470D01*
X84258330Y-130618775D01*
X84204651Y-130663932D01*
X84095166Y-130691573D01*
X83939584Y-130706387D01*
X83785654Y-130701560D01*
X83771789Y-130699732D01*
X83663918Y-130672418D01*
X83611473Y-130617149D01*
X83592931Y-130553074D01*
X83557410Y-130460871D01*
X83487327Y-130429867D01*
X83464687Y-130429000D01*
X83322789Y-130446081D01*
X83247671Y-130502972D01*
X83227333Y-130598333D01*
X83214527Y-130681997D01*
X83165900Y-130733283D01*
X83066139Y-130759398D01*
X82899931Y-130767548D01*
X82867500Y-130767667D01*
X82690077Y-130761767D01*
X82581341Y-130739085D01*
X82525821Y-130692147D01*
X82508052Y-130613480D01*
X82507666Y-130593804D01*
X82501737Y-130518464D01*
X82468654Y-130482777D01*
X82385475Y-130471995D01*
X82317166Y-130471334D01*
X82126666Y-130471334D01*
X82126666Y-130810000D01*
X81819750Y-130806658D01*
X81661240Y-130802204D01*
X81533283Y-130793634D01*
X81462046Y-130782743D01*
X81459916Y-130781964D01*
X81424152Y-130729261D01*
X81407211Y-130628989D01*
X81407000Y-130615972D01*
X81407000Y-130471334D01*
X81200044Y-130471334D01*
X81075819Y-130474583D01*
X81011093Y-130494920D01*
X80980705Y-130548222D01*
X80965293Y-130619500D01*
X80937496Y-130767667D01*
X80674831Y-130767089D01*
X80474089Y-130761983D01*
X80341912Y-130743800D01*
X80262507Y-130706653D01*
X80220079Y-130644656D01*
X80205631Y-130592240D01*
X80184905Y-130516856D01*
X80145877Y-130482002D01*
X80063385Y-130475177D01*
X79978839Y-130479573D01*
X79856041Y-130491964D01*
X79794084Y-130518148D01*
X79769143Y-130572632D01*
X79763604Y-130610644D01*
X79750042Y-130728788D01*
X79424938Y-130716477D01*
X79260980Y-130709014D01*
X79163270Y-130697280D01*
X79113435Y-130674172D01*
X79093103Y-130632590D01*
X79086226Y-130585553D01*
X79039440Y-130473549D01*
X78967053Y-130426803D01*
X78853740Y-130392463D01*
X78788879Y-130406945D01*
X78746032Y-130479578D01*
X78735455Y-130508506D01*
X78700184Y-130582348D01*
X78643363Y-130622863D01*
X78538801Y-130644458D01*
X78476130Y-130651182D01*
X78317671Y-130655864D01*
X78168733Y-130643542D01*
X78118638Y-130633186D01*
X78020806Y-130593903D01*
X77982612Y-130532017D01*
X77978000Y-130470833D01*
X77949967Y-130357955D01*
X77881266Y-130286307D01*
X77794987Y-130262010D01*
X77714226Y-130291188D01*
X77662073Y-130379961D01*
X77660500Y-130386667D01*
X77637762Y-130462231D01*
X77596421Y-130499740D01*
X77511552Y-130512440D01*
X77421520Y-130513667D01*
X77232658Y-130500406D01*
X77114502Y-130456712D01*
X77056730Y-130376717D01*
X77046666Y-130300511D01*
X77028454Y-130202734D01*
X76986629Y-130175000D01*
X76893698Y-130160158D01*
X76859079Y-130149093D01*
X76800332Y-130156153D01*
X76752490Y-130236177D01*
X76745642Y-130254927D01*
X76706880Y-130339512D01*
X76649594Y-130377138D01*
X76542896Y-130386080D01*
X76523942Y-130386089D01*
X76343928Y-130378498D01*
X76232891Y-130351941D01*
X76175872Y-130298579D01*
X76157915Y-130210569D01*
X76157666Y-130194082D01*
X76141562Y-130085024D01*
X76084582Y-130031265D01*
X76068738Y-130025481D01*
X75972178Y-130020916D01*
X75914635Y-130087066D01*
X75896840Y-130153834D01*
X75859621Y-130217458D01*
X75764583Y-130247632D01*
X75731590Y-130251151D01*
X75536179Y-130242062D01*
X75400847Y-130178251D01*
X75329188Y-130061561D01*
X75324728Y-130042561D01*
X75272940Y-129925367D01*
X75173423Y-129861946D01*
X75048885Y-129815167D01*
X75076718Y-129264834D01*
X75109078Y-128842201D01*
X75162687Y-128397994D01*
X75233778Y-127952979D01*
X75318583Y-127527917D01*
X75413333Y-127143574D01*
X75514260Y-126820713D01*
X75526141Y-126788334D01*
X75594955Y-126604796D01*
X75669859Y-126405800D01*
X75701256Y-126322667D01*
X75758237Y-126198677D01*
X75849643Y-126028548D01*
X75962853Y-125833005D01*
X76085250Y-125632778D01*
X76204214Y-125448593D01*
X76307125Y-125301177D01*
X76372162Y-125220683D01*
X76486230Y-125094634D01*
X76548041Y-125012195D01*
X76566330Y-124958253D01*
X76549834Y-124917697D01*
X76548359Y-124915878D01*
X76512789Y-124849947D01*
X76462930Y-124729817D01*
X76412052Y-124588634D01*
X76351325Y-124341585D01*
X76349778Y-124114573D01*
X76409696Y-123879854D01*
X76484826Y-123705584D01*
X76569496Y-123558553D01*
X76674962Y-123442479D01*
X76828711Y-123327854D01*
X76849118Y-123314477D01*
X77030082Y-123207337D01*
X77191643Y-123141805D01*
X77363157Y-123110963D01*
X77573981Y-123107891D01*
X77698492Y-123114297D01*
X77922537Y-123141137D01*
X78104655Y-123195655D01*
X78221798Y-123252034D01*
X78343111Y-123325095D01*
X78430718Y-123390952D01*
X78459850Y-123425113D01*
X78510486Y-123444218D01*
X78626434Y-123423885D01*
X78799311Y-123366358D01*
X79015166Y-123276383D01*
X79191297Y-123210263D01*
X79423512Y-123141031D01*
X79687621Y-123074110D01*
X79959434Y-123014923D01*
X80214758Y-122968894D01*
X80429404Y-122941446D01*
X80532816Y-122936135D01*
X80669456Y-122894727D01*
X80791650Y-122797816D01*
X80861907Y-122716489D01*
X80915875Y-122621019D01*
X80962623Y-122489899D01*
X81011222Y-122301618D01*
X81023725Y-122247483D01*
X81075708Y-122036246D01*
X81118606Y-121904145D01*
X81155322Y-121846499D01*
X81188755Y-121858629D01*
X81220137Y-121930584D01*
X81241616Y-121981221D01*
X81261766Y-121969325D01*
X81290005Y-121885984D01*
X81298429Y-121856500D01*
X81336881Y-121752178D01*
X81375853Y-121694107D01*
X81387189Y-121689669D01*
X81435171Y-121723394D01*
%TD*%
M02*
