G04 #@! TF.GenerationSoftware,KiCad,Pcbnew,(5.1.12)-1*
G04 #@! TF.CreationDate,2022-01-21T17:37:38-06:00*
G04 #@! TF.ProjectId,plate,706c6174-652e-46b6-9963-61645f706362,rev?*
G04 #@! TF.SameCoordinates,Original*
G04 #@! TF.FileFunction,Profile,NP*
%FSLAX46Y46*%
G04 Gerber Fmt 4.6, Leading zero omitted, Abs format (unit mm)*
G04 Created by KiCad (PCBNEW (5.1.12)-1) date 2022-01-21 17:37:38*
%MOMM*%
%LPD*%
G01*
G04 APERTURE LIST*
G04 #@! TA.AperFunction,Profile*
%ADD10C,0.050000*%
G04 #@! TD*
G04 APERTURE END LIST*
D10*
X269297150Y-152927010D02*
X269585350Y-152927010D01*
X269297150Y-138927550D02*
X269585350Y-138927550D01*
X269297150Y-133877050D02*
X269297150Y-119877650D01*
X274347850Y-119877650D02*
X274347850Y-133877050D01*
X288347150Y-133877050D02*
X288347150Y-119877650D01*
X293397850Y-119877650D02*
X293397850Y-133877050D01*
X319591450Y-119877650D02*
X319591450Y-133877050D01*
X307397150Y-133877050D02*
X307397150Y-119877650D01*
X255297850Y-119877650D02*
X255297850Y-133877050D01*
X88284250Y-152927010D02*
X88284250Y-138927550D01*
X88284250Y-138927550D02*
X74284250Y-138927550D01*
X135947350Y-119877650D02*
X121947350Y-119877650D01*
X174047350Y-119877650D02*
X160047350Y-119877650D01*
X114517350Y-119877650D02*
X100516350Y-119877650D01*
X154997350Y-119877650D02*
X140997350Y-119877650D01*
X131184350Y-95776850D02*
X128209350Y-95776850D01*
X136235350Y-95776850D02*
X150234350Y-95776850D01*
X128209350Y-95776850D02*
X128209350Y-96527950D01*
X155285350Y-95776850D02*
X169284350Y-95776850D01*
X124910350Y-96527950D02*
X124910350Y-95776850D01*
X124910350Y-95776850D02*
X104409350Y-95776850D01*
X104409350Y-95776850D02*
X104409350Y-96527950D01*
X101110350Y-95776850D02*
X98135350Y-95776850D01*
X74322350Y-95776850D02*
X88322350Y-95776850D01*
X128209350Y-96527950D02*
X124910350Y-96527950D01*
X104409350Y-96527950D02*
X101110350Y-96527950D01*
X101110350Y-96527950D02*
X101110350Y-95776850D01*
X126710350Y-114826850D02*
X140709350Y-114826850D01*
X140709350Y-100827550D02*
X126710350Y-100827550D01*
X183860350Y-100827550D02*
X183860350Y-114826850D01*
X74322350Y-114826850D02*
X88322350Y-114826850D01*
X116897350Y-114826850D02*
X116897350Y-100827550D01*
X126710350Y-100827550D02*
X126710350Y-114826850D01*
X140709350Y-114826850D02*
X140709350Y-100827550D01*
X88322350Y-100827550D02*
X74322350Y-100827550D01*
X159759350Y-100827550D02*
X145760350Y-100827550D01*
X145760350Y-114826850D02*
X159759350Y-114826850D01*
X178809350Y-100827550D02*
X164810350Y-100827550D01*
X102897350Y-100827550D02*
X102897350Y-114826850D01*
X164810350Y-100827550D02*
X164810350Y-114826850D01*
X116897350Y-100827550D02*
X102897350Y-100827550D01*
X88322350Y-114826850D02*
X88322350Y-100827550D01*
X159759350Y-114826850D02*
X159759350Y-100827550D01*
X164810350Y-114826850D02*
X178809350Y-114826850D01*
X74322350Y-100827550D02*
X74322350Y-114826850D01*
X145760350Y-100827550D02*
X145760350Y-114826850D01*
X102897350Y-114826850D02*
X116897350Y-114826850D01*
X178809350Y-114826850D02*
X178809350Y-100827550D01*
X71401940Y-152847040D02*
X71414640Y-81851500D01*
X232079350Y-152696880D02*
X230354350Y-152696880D01*
X235379350Y-153678040D02*
X232079350Y-153678040D01*
X230354350Y-140397850D02*
X232079350Y-140397850D01*
X254153750Y-143628050D02*
X254153750Y-140397850D01*
X252628350Y-138927550D02*
X252628350Y-143628050D01*
X232079350Y-140397850D02*
X232079350Y-139475950D01*
X230354350Y-143628050D02*
X230354350Y-140397850D01*
X230354350Y-146426810D02*
X229528350Y-146426810D01*
X237103350Y-140397850D02*
X237103350Y-143628050D01*
X229528350Y-143628050D02*
X230354350Y-143628050D01*
X232079350Y-139475950D02*
X235379350Y-139475950D01*
X255297850Y-138927550D02*
X269297150Y-138927550D01*
X252628350Y-143628050D02*
X254153750Y-143628050D01*
X238629350Y-143628050D02*
X238629350Y-138927550D01*
X237103350Y-143628050D02*
X238629350Y-143628050D01*
X255297850Y-140397850D02*
X255297850Y-138927550D01*
X238629350Y-138927550D02*
X252628350Y-138927550D01*
X235379350Y-140397850D02*
X237103350Y-140397850D01*
X229528350Y-146426810D02*
X229528350Y-143628050D01*
X232079350Y-153678040D02*
X232079350Y-152696880D01*
X235379350Y-139475950D02*
X235379350Y-140397850D01*
X254153750Y-140397850D02*
X255297850Y-140397850D01*
X230354350Y-152696880D02*
X230354350Y-146426810D01*
X206528350Y-152696880D02*
X206528350Y-148227920D01*
X208254350Y-152696880D02*
X206528350Y-152696880D01*
X208254350Y-153678040D02*
X208254350Y-152696880D01*
X206528350Y-143628050D02*
X206528350Y-140397850D01*
X211553351Y-153678040D02*
X208254350Y-153678040D01*
X211553351Y-152696880D02*
X211553351Y-153678040D01*
X213278350Y-152696880D02*
X211553351Y-152696880D01*
X214104350Y-146426810D02*
X213278350Y-146426810D01*
X214104350Y-143628050D02*
X214104350Y-146426810D01*
X213278350Y-143628050D02*
X214104350Y-143628050D01*
X205003350Y-138927550D02*
X205003350Y-143628050D01*
X206528350Y-148227920D02*
X205003350Y-148227920D01*
X213278350Y-146426810D02*
X213278350Y-152696880D01*
X213278350Y-140397850D02*
X213278350Y-143628050D01*
X208254350Y-140397850D02*
X208254350Y-139475950D01*
X211553351Y-140397850D02*
X213278350Y-140397850D01*
X211553351Y-139475950D02*
X211553351Y-140397850D01*
X208254350Y-139475950D02*
X211553351Y-139475950D01*
X205003350Y-143628050D02*
X206528350Y-143628050D01*
X206528350Y-140397850D02*
X208254350Y-140397850D01*
X184454350Y-139475950D02*
X187754350Y-139475950D01*
X184454350Y-140397850D02*
X184454350Y-139475950D01*
X182729350Y-140397850D02*
X184454350Y-140397850D01*
X184454350Y-152696880D02*
X182729350Y-152696880D01*
X191004350Y-148227920D02*
X189478350Y-148227920D01*
X187754350Y-153678040D02*
X184454350Y-153678040D01*
X187754350Y-152696880D02*
X187754350Y-153678040D01*
X191004350Y-152927010D02*
X191004350Y-148227920D01*
X205003350Y-152927010D02*
X191004350Y-152927010D01*
X182729350Y-143628050D02*
X182729350Y-140397850D01*
X184454350Y-153678040D02*
X184454350Y-152696880D01*
X205003350Y-148227920D02*
X205003350Y-152927010D01*
X181903350Y-146426810D02*
X181903350Y-143628050D01*
X182729350Y-152696880D02*
X182729350Y-146426810D01*
X189478350Y-152696880D02*
X187754350Y-152696880D01*
X181903350Y-143628050D02*
X182729350Y-143628050D01*
X189478350Y-148227920D02*
X189478350Y-152696880D01*
X191004350Y-138927550D02*
X205003350Y-138927550D01*
X255879250Y-152927010D02*
X255297850Y-152927010D01*
X255879250Y-153678040D02*
X255879250Y-152927010D01*
X187754350Y-140397850D02*
X189478350Y-140397850D01*
X269297150Y-152927010D02*
X259178350Y-152927010D01*
X182729350Y-146426810D02*
X181903350Y-146426810D01*
X259178350Y-153678040D02*
X255879250Y-153678040D01*
X189478350Y-143628050D02*
X191004350Y-143628050D01*
X259178350Y-152927010D02*
X259178350Y-153678040D01*
X191004350Y-143628050D02*
X191004350Y-138927550D01*
X189478350Y-140397850D02*
X189478350Y-143628050D01*
X187754350Y-139475950D02*
X187754350Y-140397850D01*
X216909350Y-114826850D02*
X216909350Y-100827550D01*
X274059650Y-100827550D02*
X260060350Y-100827550D01*
X255009650Y-114826850D02*
X255009650Y-100827550D01*
X235959350Y-100827550D02*
X221960350Y-100827550D01*
X202910350Y-114826850D02*
X216909350Y-114826850D01*
X197859350Y-114826850D02*
X197859350Y-100827550D01*
X333592320Y-133877050D02*
X333592320Y-119877650D01*
X255009650Y-100827550D02*
X241010350Y-100827550D01*
X202910350Y-100827550D02*
X202910350Y-114826850D01*
X241010350Y-114826850D02*
X255009650Y-114826850D01*
X221960350Y-100827550D02*
X221960350Y-114826850D01*
X241010350Y-100827550D02*
X241010350Y-114826850D01*
X235959350Y-114826850D02*
X235959350Y-100827550D01*
X216909350Y-100827550D02*
X202910350Y-100827550D01*
X293397850Y-133877050D02*
X307397150Y-133877050D01*
X197859350Y-100827550D02*
X183860350Y-100827550D01*
X333592320Y-119877650D02*
X319591450Y-119877650D01*
X221960350Y-114826850D02*
X235959350Y-114826850D01*
X260060350Y-114826850D02*
X274059650Y-114826850D01*
X260060350Y-100827550D02*
X260060350Y-114826850D01*
X319591450Y-133877050D02*
X333592320Y-133877050D01*
X183860350Y-114826850D02*
X197859350Y-114826850D01*
X98135350Y-95776850D02*
X98135350Y-81777550D01*
X335972190Y-114826850D02*
X335972190Y-100827550D01*
X174335350Y-81777550D02*
X174335350Y-95776850D01*
X274059650Y-114826850D02*
X274059650Y-100827550D01*
X150234350Y-95776850D02*
X150234350Y-81777550D01*
X298160350Y-114826850D02*
X312159650Y-114826850D01*
X226436350Y-81777550D02*
X212435350Y-81777550D01*
X207384350Y-95776850D02*
X207384350Y-81777550D01*
X193385350Y-95776850D02*
X207384350Y-95776850D01*
X193385350Y-81777550D02*
X193385350Y-95776850D01*
X207384350Y-81777550D02*
X193385350Y-81777550D01*
X188334350Y-95776850D02*
X188334350Y-81777550D01*
X174335350Y-95776850D02*
X188334350Y-95776850D01*
X188334350Y-81777550D02*
X174335350Y-81777550D01*
X136235350Y-81777550D02*
X136235350Y-95776850D01*
X169284350Y-81777550D02*
X155285350Y-81777550D01*
X88322350Y-95776850D02*
X88322350Y-81777550D01*
X98135350Y-81777550D02*
X131184350Y-81777550D01*
X150234350Y-81777550D02*
X136235350Y-81777550D01*
X293109650Y-100827550D02*
X279110350Y-100827550D01*
X312159650Y-114826850D02*
X312159650Y-100827550D01*
X321972650Y-100827550D02*
X321972650Y-114826850D01*
X335972190Y-100827550D02*
X321972650Y-100827550D01*
X279110350Y-100827550D02*
X279110350Y-114826850D01*
X321972650Y-114826850D02*
X335972190Y-114826850D01*
X279110350Y-114826850D02*
X293109650Y-114826850D01*
X155285350Y-81777550D02*
X155285350Y-95776850D01*
X131184350Y-81777550D02*
X131184350Y-95776850D01*
X312159650Y-100827550D02*
X298160350Y-100827550D01*
X88322350Y-81777550D02*
X74322350Y-81777550D01*
X74322350Y-81777550D02*
X74322350Y-95776850D01*
X293109650Y-114826850D02*
X293109650Y-100827550D01*
X169284350Y-95776850D02*
X169284350Y-81777550D01*
X298160350Y-100827550D02*
X298160350Y-114826850D01*
X235379350Y-152696880D02*
X235379350Y-153678040D01*
X238629350Y-148227920D02*
X237103350Y-148227920D01*
X252628350Y-148227920D02*
X252628350Y-152927010D01*
X255297850Y-152927010D02*
X255297850Y-152696880D01*
X252628350Y-152927010D02*
X238629350Y-152927010D01*
X237103350Y-152696880D02*
X235379350Y-152696880D01*
X237103350Y-148227920D02*
X237103350Y-152696880D01*
X254153750Y-152696880D02*
X254153750Y-148227920D01*
X255297850Y-152696880D02*
X254153750Y-152696880D01*
X238629350Y-152927010D02*
X238629350Y-148227920D01*
X254153750Y-148227920D02*
X252628350Y-148227920D01*
X231485350Y-95776850D02*
X245486050Y-95776850D01*
X340734700Y-95776850D02*
X340734700Y-81777550D01*
X326735150Y-81777550D02*
X326735150Y-95776850D01*
X283584650Y-81777550D02*
X269585350Y-81777550D01*
X250535350Y-95776850D02*
X264534650Y-95776850D01*
X245486050Y-81777550D02*
X231485350Y-81777550D01*
X250535350Y-81777550D02*
X250535350Y-95776850D01*
X231485350Y-81777550D02*
X231485350Y-95776850D01*
X264534650Y-95776850D02*
X264534650Y-81777550D01*
X212435350Y-81777550D02*
X212435350Y-95776850D01*
X283584650Y-95776850D02*
X283584650Y-81777550D01*
X226436350Y-95776850D02*
X226436350Y-81777550D01*
X269585350Y-81777550D02*
X269585350Y-95776850D01*
X307685350Y-81777550D02*
X307685350Y-95776850D01*
X264534650Y-81777550D02*
X250535350Y-81777550D01*
X321684650Y-81777550D02*
X307685350Y-81777550D01*
X321684650Y-95776850D02*
X321684650Y-81777550D01*
X302634650Y-81777550D02*
X288635350Y-81777550D01*
X245486050Y-95776850D02*
X245486050Y-81777550D01*
X326735150Y-95776850D02*
X340734700Y-95776850D01*
X307685350Y-95776850D02*
X321684650Y-95776850D01*
X302634650Y-95776850D02*
X302634650Y-81777550D01*
X288635350Y-81777550D02*
X288635350Y-95776850D01*
X269585350Y-95776850D02*
X283584650Y-95776850D01*
X212435350Y-95776850D02*
X226436350Y-95776850D01*
X340734700Y-81777550D02*
X326735150Y-81777550D01*
X288635350Y-95776850D02*
X302634650Y-95776850D01*
X136235350Y-138927550D02*
X136235350Y-152927010D01*
X269585350Y-152927010D02*
X321684650Y-152927010D01*
X112134350Y-138927550D02*
X98135350Y-138927550D01*
X321684650Y-138927550D02*
X269585350Y-138927550D01*
X169284350Y-152927010D02*
X169284350Y-138927550D01*
X155285350Y-152927010D02*
X169284350Y-152927010D01*
X169284350Y-138927550D02*
X155285350Y-138927550D01*
X150234350Y-152927010D02*
X150234350Y-138927550D01*
X136235350Y-152927010D02*
X150234350Y-152927010D01*
X150234350Y-138927550D02*
X136235350Y-138927550D01*
X112134350Y-152927010D02*
X112134350Y-138927550D01*
X98135350Y-138927550D02*
X98135350Y-152927010D01*
X98135350Y-152927010D02*
X112134350Y-152927010D01*
X117185350Y-152927010D02*
X131184350Y-152927010D01*
X131184350Y-138927550D02*
X117185350Y-138927550D01*
X131184350Y-152927010D02*
X131184350Y-138927550D01*
X155285350Y-138927550D02*
X155285350Y-152927010D01*
X74284250Y-152927010D02*
X88284250Y-152927010D01*
X117185350Y-138927550D02*
X117185350Y-152927010D01*
X74284250Y-138927550D02*
X74284250Y-152927010D01*
X100516350Y-133877050D02*
X114517350Y-133877050D01*
X193097350Y-119877650D02*
X179097350Y-119877650D01*
X114517350Y-133877050D02*
X114517350Y-119877650D01*
X174047350Y-133877050D02*
X174047350Y-119877650D01*
X324353950Y-138927550D02*
X324353950Y-152927010D01*
X179097350Y-119877650D02*
X179097350Y-133877050D01*
X160047350Y-133877050D02*
X174047350Y-133877050D01*
X160047350Y-119877650D02*
X160047350Y-133877050D01*
X121947350Y-133877050D02*
X135947350Y-133877050D01*
X340734700Y-138927550D02*
X324353950Y-138927550D01*
X100516350Y-119877650D02*
X100516350Y-133877050D01*
X324353950Y-152927010D02*
X340734700Y-152927010D01*
X140997350Y-133877050D02*
X154997350Y-133877050D01*
X154997350Y-133877050D02*
X154997350Y-119877650D01*
X340734700Y-152927010D02*
X340734700Y-138927550D01*
X135947350Y-133877050D02*
X135947350Y-119877650D01*
X321684650Y-152927010D02*
X321684650Y-138927550D01*
X140997350Y-119877650D02*
X140997350Y-133877050D01*
X121947350Y-119877650D02*
X121947350Y-133877050D01*
X198147350Y-119877650D02*
X198147350Y-133877050D01*
X255297850Y-133877050D02*
X269297150Y-133877050D01*
X212147350Y-133877050D02*
X212147350Y-119877650D01*
X250247150Y-119877650D02*
X236247350Y-119877650D01*
X231197350Y-119877650D02*
X217197350Y-119877650D01*
X198147350Y-133877050D02*
X212147350Y-133877050D01*
X193097350Y-133877050D02*
X193097350Y-119877650D01*
X231197350Y-133877050D02*
X231197350Y-119877650D01*
X217197350Y-133877050D02*
X231197350Y-133877050D01*
X236247350Y-119877650D02*
X236247350Y-133877050D01*
X212147350Y-119877650D02*
X198147350Y-119877650D01*
X236247350Y-133877050D02*
X250247150Y-133877050D01*
X179097350Y-133877050D02*
X193097350Y-133877050D01*
X307397150Y-119877650D02*
X293397850Y-119877650D01*
X274347850Y-133877050D02*
X288347150Y-133877050D01*
X250247150Y-133877050D02*
X250247150Y-119877650D01*
X217197350Y-119877650D02*
X217197350Y-133877050D01*
X269297150Y-119877650D02*
X255297850Y-119877650D01*
X288347150Y-119877650D02*
X274347850Y-119877650D01*
X74404220Y-78861920D02*
X318560450Y-78835250D01*
X74401680Y-155846780D02*
X340658450Y-155848050D01*
X74401680Y-155846780D02*
G75*
G02*
X71401940Y-152847040I0J2999740D01*
G01*
X71414640Y-81851500D02*
G75*
G02*
X74404220Y-78861920I2989580J0D01*
G01*
X319195450Y-78835250D02*
X318560450Y-78835250D01*
X320084450Y-78200250D02*
X319195450Y-78835250D01*
X329863450Y-78835250D02*
X329914250Y-78835250D01*
X328974450Y-78200250D02*
X329863450Y-78835250D01*
X320084450Y-78200250D02*
X328974450Y-78200250D01*
X343655650Y-152850850D02*
X343655650Y-81832450D01*
X343655650Y-152850850D02*
G75*
G02*
X340658450Y-155848050I-2997200J0D01*
G01*
X329914250Y-78835250D02*
X340658450Y-78835250D01*
X340658450Y-78835250D02*
G75*
G02*
X343655650Y-81832450I0J-2997200D01*
G01*
M02*
