G04 #@! TF.GenerationSoftware,KiCad,Pcbnew,(5.1.12)-1*
G04 #@! TF.CreationDate,2022-01-21T17:36:30-06:00*
G04 #@! TF.ProjectId,pcb,7063622e-6b69-4636-9164-5f7063625858,rev?*
G04 #@! TF.SameCoordinates,Original*
G04 #@! TF.FileFunction,Soldermask,Top*
G04 #@! TF.FilePolarity,Negative*
%FSLAX46Y46*%
G04 Gerber Fmt 4.6, Leading zero omitted, Abs format (unit mm)*
G04 Created by KiCad (PCBNEW (5.1.12)-1) date 2022-01-21 17:36:30*
%MOMM*%
%LPD*%
G01*
G04 APERTURE LIST*
%ADD10R,2.000000X2.000000*%
%ADD11C,2.000000*%
%ADD12C,3.200000*%
%ADD13C,3.987800*%
%ADD14C,3.048000*%
%ADD15C,1.750000*%
%ADD16C,2.250000*%
%ADD17C,4.400000*%
%ADD18R,0.550000X1.500000*%
%ADD19R,1.500000X0.550000*%
%ADD20C,0.800000*%
%ADD21R,0.900000X1.700000*%
%ADD22R,1.200000X1.400000*%
%ADD23R,1.000000X0.700000*%
%ADD24R,0.600000X0.700000*%
%ADD25R,1.700000X1.700000*%
%ADD26C,1.700000*%
%ADD27O,0.900000X2.000000*%
%ADD28O,0.900000X1.700000*%
%ADD29R,0.300000X1.160000*%
%ADD30C,0.600000*%
%ADD31R,0.600000X1.160000*%
%ADD32R,1.200000X0.900000*%
G04 APERTURE END LIST*
D10*
G04 #@! TO.C,E1*
X83780000Y-138430000D03*
D11*
X81280000Y-138430000D03*
X78780000Y-138430000D03*
D12*
X86880000Y-145930000D03*
X75680000Y-145930000D03*
D11*
X83780000Y-152930000D03*
X78780000Y-152930000D03*
G04 #@! TD*
G04 #@! TO.C,R7*
G36*
G01*
X80618752Y-132560750D02*
X79718748Y-132560750D01*
G75*
G02*
X79468750Y-132310752I0J249998D01*
G01*
X79468750Y-131785748D01*
G75*
G02*
X79718748Y-131535750I249998J0D01*
G01*
X80618752Y-131535750D01*
G75*
G02*
X80868750Y-131785748I0J-249998D01*
G01*
X80868750Y-132310752D01*
G75*
G02*
X80618752Y-132560750I-249998J0D01*
G01*
G37*
G36*
G01*
X80618752Y-134385750D02*
X79718748Y-134385750D01*
G75*
G02*
X79468750Y-134135752I0J249998D01*
G01*
X79468750Y-133610748D01*
G75*
G02*
X79718748Y-133360750I249998J0D01*
G01*
X80618752Y-133360750D01*
G75*
G02*
X80868750Y-133610748I0J-249998D01*
G01*
X80868750Y-134135752D01*
G75*
G02*
X80618752Y-134385750I-249998J0D01*
G01*
G37*
G04 #@! TD*
D13*
G04 #@! TO.C,MX54*
X166992300Y-137668000D03*
X262242300Y-137668000D03*
D14*
X166992300Y-152908000D03*
X262242300Y-152908000D03*
D15*
X209537300Y-145923000D03*
X219697300Y-145923000D03*
D16*
X217117300Y-141923000D03*
D13*
X214617300Y-145923000D03*
G36*
G01*
X219180072Y-144219038D02*
X219178617Y-144220345D01*
G75*
G02*
X217589955Y-144134317I-751317J837345D01*
G01*
X216279953Y-142674317D01*
G75*
G02*
X216365981Y-141085655I837345J751317D01*
G01*
X216365981Y-141085655D01*
G75*
G02*
X217954643Y-141171683I751317J-837345D01*
G01*
X219264645Y-142631683D01*
G75*
G02*
X219178617Y-144220345I-837345J-751317D01*
G01*
G37*
D16*
X212077300Y-140843000D03*
G36*
G01*
X212195776Y-142545260D02*
X212194703Y-142545334D01*
G75*
G02*
X210994966Y-141500403I-77403J1122334D01*
G01*
X210954966Y-140920403D01*
G75*
G02*
X211999897Y-139720666I1122334J77403D01*
G01*
X211999897Y-139720666D01*
G75*
G02*
X213199634Y-140765597I77403J-1122334D01*
G01*
X213239634Y-141345597D01*
G75*
G02*
X212194703Y-142545334I-1122334J-77403D01*
G01*
G37*
G04 #@! TD*
D15*
G04 #@! TO.C,MX53*
X288734500Y-145910300D03*
X278574500Y-145910300D03*
D16*
X281154500Y-149910300D03*
D13*
X283654500Y-145910300D03*
G36*
G01*
X279093188Y-147612950D02*
X279093183Y-147612955D01*
G75*
G02*
X280681845Y-147698983I751317J-837345D01*
G01*
X281991847Y-149158983D01*
G75*
G02*
X281905819Y-150747645I-837345J-751317D01*
G01*
X281905819Y-150747645D01*
G75*
G02*
X280317157Y-150661617I-751317J837345D01*
G01*
X279007155Y-149201617D01*
G75*
G02*
X279093183Y-147612955I837345J751317D01*
G01*
G37*
D16*
X286194500Y-150990300D03*
G36*
G01*
X286077983Y-149287905D02*
X286077097Y-149287966D01*
G75*
G02*
X287276834Y-150332897I77403J-1122334D01*
G01*
X287316834Y-150912897D01*
G75*
G02*
X286271903Y-152112634I-1122334J-77403D01*
G01*
X286271903Y-152112634D01*
G75*
G02*
X285072166Y-151067703I-77403J1122334D01*
G01*
X285032166Y-150487703D01*
G75*
G02*
X286077097Y-149287966I1122334J77403D01*
G01*
G37*
G04 #@! TD*
D15*
G04 #@! TO.C,MX52*
X312547000Y-145923000D03*
X302387000Y-145923000D03*
D16*
X304967000Y-149923000D03*
D13*
X307467000Y-145923000D03*
G36*
G01*
X302905688Y-147625650D02*
X302905683Y-147625655D01*
G75*
G02*
X304494345Y-147711683I751317J-837345D01*
G01*
X305804347Y-149171683D01*
G75*
G02*
X305718319Y-150760345I-837345J-751317D01*
G01*
X305718319Y-150760345D01*
G75*
G02*
X304129657Y-150674317I-751317J837345D01*
G01*
X302819655Y-149214317D01*
G75*
G02*
X302905683Y-147625655I837345J751317D01*
G01*
G37*
D16*
X310007000Y-151003000D03*
G36*
G01*
X309890483Y-149300605D02*
X309889597Y-149300666D01*
G75*
G02*
X311089334Y-150345597I77403J-1122334D01*
G01*
X311129334Y-150925597D01*
G75*
G02*
X310084403Y-152125334I-1122334J-77403D01*
G01*
X310084403Y-152125334D01*
G75*
G02*
X308884666Y-151080403I-77403J1122334D01*
G01*
X308844666Y-150500403D01*
G75*
G02*
X309889597Y-149300666I1122334J77403D01*
G01*
G37*
G04 #@! TD*
D15*
G04 #@! TO.C,MX51*
X336423000Y-145923000D03*
X326263000Y-145923000D03*
D16*
X328843000Y-149923000D03*
D13*
X331343000Y-145923000D03*
G36*
G01*
X326781688Y-147625650D02*
X326781683Y-147625655D01*
G75*
G02*
X328370345Y-147711683I751317J-837345D01*
G01*
X329680347Y-149171683D01*
G75*
G02*
X329594319Y-150760345I-837345J-751317D01*
G01*
X329594319Y-150760345D01*
G75*
G02*
X328005657Y-150674317I-751317J837345D01*
G01*
X326695655Y-149214317D01*
G75*
G02*
X326781683Y-147625655I837345J751317D01*
G01*
G37*
D16*
X333883000Y-151003000D03*
G36*
G01*
X333766483Y-149300605D02*
X333765597Y-149300666D01*
G75*
G02*
X334965334Y-150345597I77403J-1122334D01*
G01*
X335005334Y-150925597D01*
G75*
G02*
X333960403Y-152125334I-1122334J-77403D01*
G01*
X333960403Y-152125334D01*
G75*
G02*
X332760666Y-151080403I-77403J1122334D01*
G01*
X332720666Y-150500403D01*
G75*
G02*
X333765597Y-149300666I1122334J77403D01*
G01*
G37*
G04 #@! TD*
D13*
G04 #@! TO.C,MX45*
X186067700Y-137668000D03*
X209943700Y-137668000D03*
D14*
X186067700Y-152908000D03*
X209943700Y-152908000D03*
D15*
X192925700Y-145923000D03*
X203085700Y-145923000D03*
D16*
X200505700Y-141923000D03*
D13*
X198005700Y-145923000D03*
G36*
G01*
X202568472Y-144219038D02*
X202567017Y-144220345D01*
G75*
G02*
X200978355Y-144134317I-751317J837345D01*
G01*
X199668353Y-142674317D01*
G75*
G02*
X199754381Y-141085655I837345J751317D01*
G01*
X199754381Y-141085655D01*
G75*
G02*
X201343043Y-141171683I751317J-837345D01*
G01*
X202653045Y-142631683D01*
G75*
G02*
X202567017Y-144220345I-837345J-751317D01*
G01*
G37*
D16*
X195465700Y-140843000D03*
G36*
G01*
X195584176Y-142545260D02*
X195583103Y-142545334D01*
G75*
G02*
X194383366Y-141500403I-77403J1122334D01*
G01*
X194343366Y-140920403D01*
G75*
G02*
X195388297Y-139720666I1122334J77403D01*
G01*
X195388297Y-139720666D01*
G75*
G02*
X196588034Y-140765597I77403J-1122334D01*
G01*
X196628034Y-141345597D01*
G75*
G02*
X195583103Y-142545334I-1122334J-77403D01*
G01*
G37*
G04 #@! TD*
D13*
G04 #@! TO.C,MX44*
X233692700Y-137668000D03*
X257568700Y-137668000D03*
D14*
X233692700Y-152908000D03*
X257568700Y-152908000D03*
D15*
X240550700Y-145923000D03*
X250710700Y-145923000D03*
D16*
X248130700Y-141923000D03*
D13*
X245630700Y-145923000D03*
G36*
G01*
X250193472Y-144219038D02*
X250192017Y-144220345D01*
G75*
G02*
X248603355Y-144134317I-751317J837345D01*
G01*
X247293353Y-142674317D01*
G75*
G02*
X247379381Y-141085655I837345J751317D01*
G01*
X247379381Y-141085655D01*
G75*
G02*
X248968043Y-141171683I751317J-837345D01*
G01*
X250278045Y-142631683D01*
G75*
G02*
X250192017Y-144220345I-837345J-751317D01*
G01*
G37*
D16*
X243090700Y-140843000D03*
G36*
G01*
X243209176Y-142545260D02*
X243208103Y-142545334D01*
G75*
G02*
X242008366Y-141500403I-77403J1122334D01*
G01*
X241968366Y-140920403D01*
G75*
G02*
X243013297Y-139720666I1122334J77403D01*
G01*
X243013297Y-139720666D01*
G75*
G02*
X244213034Y-140765597I77403J-1122334D01*
G01*
X244253034Y-141345597D01*
G75*
G02*
X243208103Y-142545334I-1122334J-77403D01*
G01*
G37*
G04 #@! TD*
D17*
G04 #@! TO.C,H6*
X92202000Y-138684000D03*
G04 #@! TD*
G04 #@! TO.C,H5*
X92202000Y-95504000D03*
G04 #@! TD*
G04 #@! TO.C,H3*
X252730000Y-117856000D03*
G04 #@! TD*
G04 #@! TO.C,H4*
X157480000Y-117856000D03*
G04 #@! TD*
G04 #@! TO.C,H2*
X324104000Y-138684000D03*
G04 #@! TD*
G04 #@! TO.C,H1*
X324104000Y-95504000D03*
G04 #@! TD*
D18*
G04 #@! TO.C,U1*
X97230700Y-123841750D03*
X96430700Y-123841750D03*
X95630700Y-123841750D03*
X94830700Y-123841750D03*
X94030700Y-123841750D03*
X93230700Y-123841750D03*
X92430700Y-123841750D03*
X91630700Y-123841750D03*
X90830700Y-123841750D03*
X90030700Y-123841750D03*
X89230700Y-123841750D03*
D19*
X87530700Y-122141750D03*
X87530700Y-121341750D03*
X87530700Y-120541750D03*
X87530700Y-119741750D03*
X87530700Y-118941750D03*
X87530700Y-118141750D03*
X87530700Y-117341750D03*
X87530700Y-116541750D03*
X87530700Y-115741750D03*
X87530700Y-114941750D03*
X87530700Y-114141750D03*
D18*
X89230700Y-112441750D03*
X90030700Y-112441750D03*
X90830700Y-112441750D03*
X91630700Y-112441750D03*
X92430700Y-112441750D03*
X93230700Y-112441750D03*
X94030700Y-112441750D03*
X94830700Y-112441750D03*
X95630700Y-112441750D03*
X96430700Y-112441750D03*
X97230700Y-112441750D03*
D19*
X98930700Y-114141750D03*
X98930700Y-114941750D03*
X98930700Y-115741750D03*
X98930700Y-116541750D03*
X98930700Y-117341750D03*
X98930700Y-118141750D03*
X98930700Y-118941750D03*
X98930700Y-119741750D03*
X98930700Y-120541750D03*
X98930700Y-121341750D03*
X98930700Y-122141750D03*
G04 #@! TD*
D15*
G04 #@! TO.C,MX14*
X76244450Y-88773000D03*
X86404450Y-88773000D03*
D16*
X83824450Y-84773000D03*
D13*
X81324450Y-88773000D03*
G36*
G01*
X85887222Y-87069038D02*
X85885767Y-87070345D01*
G75*
G02*
X84297105Y-86984317I-751317J837345D01*
G01*
X82987103Y-85524317D01*
G75*
G02*
X83073131Y-83935655I837345J751317D01*
G01*
X83073131Y-83935655D01*
G75*
G02*
X84661793Y-84021683I751317J-837345D01*
G01*
X85971795Y-85481683D01*
G75*
G02*
X85885767Y-87070345I-837345J-751317D01*
G01*
G37*
D16*
X78784450Y-83693000D03*
G36*
G01*
X78902926Y-85395260D02*
X78901853Y-85395334D01*
G75*
G02*
X77702116Y-84350403I-77403J1122334D01*
G01*
X77662116Y-83770403D01*
G75*
G02*
X78707047Y-82570666I1122334J77403D01*
G01*
X78707047Y-82570666D01*
G75*
G02*
X79906784Y-83615597I77403J-1122334D01*
G01*
X79946784Y-84195597D01*
G75*
G02*
X78901853Y-85395334I-1122334J-77403D01*
G01*
G37*
G04 #@! TD*
D20*
G04 #@! TO.C,SW1*
X90854000Y-100330000D03*
D21*
X92554000Y-100330000D03*
X89154000Y-100330000D03*
G04 #@! TD*
G04 #@! TO.C,MX50*
G36*
G01*
X112240426Y-85395260D02*
X112239353Y-85395334D01*
G75*
G02*
X111039616Y-84350403I-77403J1122334D01*
G01*
X110999616Y-83770403D01*
G75*
G02*
X112044547Y-82570666I1122334J77403D01*
G01*
X112044547Y-82570666D01*
G75*
G02*
X113244284Y-83615597I77403J-1122334D01*
G01*
X113284284Y-84195597D01*
G75*
G02*
X112239353Y-85395334I-1122334J-77403D01*
G01*
G37*
D16*
X112121950Y-83693000D03*
G36*
G01*
X119224722Y-87069038D02*
X119223267Y-87070345D01*
G75*
G02*
X117634605Y-86984317I-751317J837345D01*
G01*
X116324603Y-85524317D01*
G75*
G02*
X116410631Y-83935655I837345J751317D01*
G01*
X116410631Y-83935655D01*
G75*
G02*
X117999293Y-84021683I751317J-837345D01*
G01*
X119309295Y-85481683D01*
G75*
G02*
X119223267Y-87070345I-837345J-751317D01*
G01*
G37*
D13*
X114661950Y-88773000D03*
D16*
X117161950Y-84773000D03*
D15*
X119741950Y-88773000D03*
X109581950Y-88773000D03*
D14*
X126599950Y-81788000D03*
X102723950Y-81788000D03*
D13*
X126599950Y-97028000D03*
X102723950Y-97028000D03*
G04 #@! TD*
G04 #@! TO.C,MX49*
G36*
G01*
X102715426Y-142545260D02*
X102714353Y-142545334D01*
G75*
G02*
X101514616Y-141500403I-77403J1122334D01*
G01*
X101474616Y-140920403D01*
G75*
G02*
X102519547Y-139720666I1122334J77403D01*
G01*
X102519547Y-139720666D01*
G75*
G02*
X103719284Y-140765597I77403J-1122334D01*
G01*
X103759284Y-141345597D01*
G75*
G02*
X102714353Y-142545334I-1122334J-77403D01*
G01*
G37*
D16*
X102596950Y-140843000D03*
G36*
G01*
X109699722Y-144219038D02*
X109698267Y-144220345D01*
G75*
G02*
X108109605Y-144134317I-751317J837345D01*
G01*
X106799603Y-142674317D01*
G75*
G02*
X106885631Y-141085655I837345J751317D01*
G01*
X106885631Y-141085655D01*
G75*
G02*
X108474293Y-141171683I751317J-837345D01*
G01*
X109784295Y-142631683D01*
G75*
G02*
X109698267Y-144220345I-837345J-751317D01*
G01*
G37*
D13*
X105136950Y-145923000D03*
D16*
X107636950Y-141923000D03*
D15*
X110216950Y-145923000D03*
X100056950Y-145923000D03*
G04 #@! TD*
G04 #@! TO.C,MX48*
G36*
G01*
X121765426Y-142545260D02*
X121764353Y-142545334D01*
G75*
G02*
X120564616Y-141500403I-77403J1122334D01*
G01*
X120524616Y-140920403D01*
G75*
G02*
X121569547Y-139720666I1122334J77403D01*
G01*
X121569547Y-139720666D01*
G75*
G02*
X122769284Y-140765597I77403J-1122334D01*
G01*
X122809284Y-141345597D01*
G75*
G02*
X121764353Y-142545334I-1122334J-77403D01*
G01*
G37*
D16*
X121646950Y-140843000D03*
G36*
G01*
X128749722Y-144219038D02*
X128748267Y-144220345D01*
G75*
G02*
X127159605Y-144134317I-751317J837345D01*
G01*
X125849603Y-142674317D01*
G75*
G02*
X125935631Y-141085655I837345J751317D01*
G01*
X125935631Y-141085655D01*
G75*
G02*
X127524293Y-141171683I751317J-837345D01*
G01*
X128834295Y-142631683D01*
G75*
G02*
X128748267Y-144220345I-837345J-751317D01*
G01*
G37*
D13*
X124186950Y-145923000D03*
D16*
X126686950Y-141923000D03*
D15*
X129266950Y-145923000D03*
X119106950Y-145923000D03*
G04 #@! TD*
G04 #@! TO.C,MX47*
G36*
G01*
X140815426Y-142545260D02*
X140814353Y-142545334D01*
G75*
G02*
X139614616Y-141500403I-77403J1122334D01*
G01*
X139574616Y-140920403D01*
G75*
G02*
X140619547Y-139720666I1122334J77403D01*
G01*
X140619547Y-139720666D01*
G75*
G02*
X141819284Y-140765597I77403J-1122334D01*
G01*
X141859284Y-141345597D01*
G75*
G02*
X140814353Y-142545334I-1122334J-77403D01*
G01*
G37*
D16*
X140696950Y-140843000D03*
G36*
G01*
X147799722Y-144219038D02*
X147798267Y-144220345D01*
G75*
G02*
X146209605Y-144134317I-751317J837345D01*
G01*
X144899603Y-142674317D01*
G75*
G02*
X144985631Y-141085655I837345J751317D01*
G01*
X144985631Y-141085655D01*
G75*
G02*
X146574293Y-141171683I751317J-837345D01*
G01*
X147884295Y-142631683D01*
G75*
G02*
X147798267Y-144220345I-837345J-751317D01*
G01*
G37*
D13*
X143236950Y-145923000D03*
D16*
X145736950Y-141923000D03*
D15*
X148316950Y-145923000D03*
X138156950Y-145923000D03*
G04 #@! TD*
G04 #@! TO.C,MX46*
G36*
G01*
X159865426Y-142545260D02*
X159864353Y-142545334D01*
G75*
G02*
X158664616Y-141500403I-77403J1122334D01*
G01*
X158624616Y-140920403D01*
G75*
G02*
X159669547Y-139720666I1122334J77403D01*
G01*
X159669547Y-139720666D01*
G75*
G02*
X160869284Y-140765597I77403J-1122334D01*
G01*
X160909284Y-141345597D01*
G75*
G02*
X159864353Y-142545334I-1122334J-77403D01*
G01*
G37*
D16*
X159746950Y-140843000D03*
G36*
G01*
X166849722Y-144219038D02*
X166848267Y-144220345D01*
G75*
G02*
X165259605Y-144134317I-751317J837345D01*
G01*
X163949603Y-142674317D01*
G75*
G02*
X164035631Y-141085655I837345J751317D01*
G01*
X164035631Y-141085655D01*
G75*
G02*
X165624293Y-141171683I751317J-837345D01*
G01*
X166934295Y-142631683D01*
G75*
G02*
X166848267Y-144220345I-837345J-751317D01*
G01*
G37*
D13*
X162286950Y-145923000D03*
D16*
X164786950Y-141923000D03*
D15*
X167366950Y-145923000D03*
X157206950Y-145923000D03*
G04 #@! TD*
G04 #@! TO.C,MX43*
G36*
G01*
X274165426Y-142545260D02*
X274164353Y-142545334D01*
G75*
G02*
X272964616Y-141500403I-77403J1122334D01*
G01*
X272924616Y-140920403D01*
G75*
G02*
X273969547Y-139720666I1122334J77403D01*
G01*
X273969547Y-139720666D01*
G75*
G02*
X275169284Y-140765597I77403J-1122334D01*
G01*
X275209284Y-141345597D01*
G75*
G02*
X274164353Y-142545334I-1122334J-77403D01*
G01*
G37*
D16*
X274046950Y-140843000D03*
G36*
G01*
X281149722Y-144219038D02*
X281148267Y-144220345D01*
G75*
G02*
X279559605Y-144134317I-751317J837345D01*
G01*
X278249603Y-142674317D01*
G75*
G02*
X278335631Y-141085655I837345J751317D01*
G01*
X278335631Y-141085655D01*
G75*
G02*
X279924293Y-141171683I751317J-837345D01*
G01*
X281234295Y-142631683D01*
G75*
G02*
X281148267Y-144220345I-837345J-751317D01*
G01*
G37*
D13*
X276586950Y-145923000D03*
D16*
X279086950Y-141923000D03*
D15*
X281666950Y-145923000D03*
X271506950Y-145923000D03*
G04 #@! TD*
G04 #@! TO.C,MX42*
G36*
G01*
X293215426Y-142545260D02*
X293214353Y-142545334D01*
G75*
G02*
X292014616Y-141500403I-77403J1122334D01*
G01*
X291974616Y-140920403D01*
G75*
G02*
X293019547Y-139720666I1122334J77403D01*
G01*
X293019547Y-139720666D01*
G75*
G02*
X294219284Y-140765597I77403J-1122334D01*
G01*
X294259284Y-141345597D01*
G75*
G02*
X293214353Y-142545334I-1122334J-77403D01*
G01*
G37*
D16*
X293096950Y-140843000D03*
G36*
G01*
X300199722Y-144219038D02*
X300198267Y-144220345D01*
G75*
G02*
X298609605Y-144134317I-751317J837345D01*
G01*
X297299603Y-142674317D01*
G75*
G02*
X297385631Y-141085655I837345J751317D01*
G01*
X297385631Y-141085655D01*
G75*
G02*
X298974293Y-141171683I751317J-837345D01*
G01*
X300284295Y-142631683D01*
G75*
G02*
X300198267Y-144220345I-837345J-751317D01*
G01*
G37*
D13*
X295636950Y-145923000D03*
D16*
X298136950Y-141923000D03*
D15*
X300716950Y-145923000D03*
X290556950Y-145923000D03*
G04 #@! TD*
G04 #@! TO.C,MX41*
G36*
G01*
X312265426Y-142545260D02*
X312264353Y-142545334D01*
G75*
G02*
X311064616Y-141500403I-77403J1122334D01*
G01*
X311024616Y-140920403D01*
G75*
G02*
X312069547Y-139720666I1122334J77403D01*
G01*
X312069547Y-139720666D01*
G75*
G02*
X313269284Y-140765597I77403J-1122334D01*
G01*
X313309284Y-141345597D01*
G75*
G02*
X312264353Y-142545334I-1122334J-77403D01*
G01*
G37*
D16*
X312146950Y-140843000D03*
G36*
G01*
X319249722Y-144219038D02*
X319248267Y-144220345D01*
G75*
G02*
X317659605Y-144134317I-751317J837345D01*
G01*
X316349603Y-142674317D01*
G75*
G02*
X316435631Y-141085655I837345J751317D01*
G01*
X316435631Y-141085655D01*
G75*
G02*
X318024293Y-141171683I751317J-837345D01*
G01*
X319334295Y-142631683D01*
G75*
G02*
X319248267Y-144220345I-837345J-751317D01*
G01*
G37*
D13*
X314686950Y-145923000D03*
D16*
X317186950Y-141923000D03*
D15*
X319766950Y-145923000D03*
X309606950Y-145923000D03*
G04 #@! TD*
G04 #@! TO.C,MX40*
G36*
G01*
X331315426Y-142545260D02*
X331314353Y-142545334D01*
G75*
G02*
X330114616Y-141500403I-77403J1122334D01*
G01*
X330074616Y-140920403D01*
G75*
G02*
X331119547Y-139720666I1122334J77403D01*
G01*
X331119547Y-139720666D01*
G75*
G02*
X332319284Y-140765597I77403J-1122334D01*
G01*
X332359284Y-141345597D01*
G75*
G02*
X331314353Y-142545334I-1122334J-77403D01*
G01*
G37*
D16*
X331196950Y-140843000D03*
G36*
G01*
X338299722Y-144219038D02*
X338298267Y-144220345D01*
G75*
G02*
X336709605Y-144134317I-751317J837345D01*
G01*
X335399603Y-142674317D01*
G75*
G02*
X335485631Y-141085655I837345J751317D01*
G01*
X335485631Y-141085655D01*
G75*
G02*
X337074293Y-141171683I751317J-837345D01*
G01*
X338384295Y-142631683D01*
G75*
G02*
X338298267Y-144220345I-837345J-751317D01*
G01*
G37*
D13*
X333736950Y-145923000D03*
D16*
X336236950Y-141923000D03*
D15*
X338816950Y-145923000D03*
X328656950Y-145923000D03*
G04 #@! TD*
G04 #@! TO.C,MX39*
G36*
G01*
X105096676Y-123495260D02*
X105095603Y-123495334D01*
G75*
G02*
X103895866Y-122450403I-77403J1122334D01*
G01*
X103855866Y-121870403D01*
G75*
G02*
X104900797Y-120670666I1122334J77403D01*
G01*
X104900797Y-120670666D01*
G75*
G02*
X106100534Y-121715597I77403J-1122334D01*
G01*
X106140534Y-122295597D01*
G75*
G02*
X105095603Y-123495334I-1122334J-77403D01*
G01*
G37*
D16*
X104978200Y-121793000D03*
G36*
G01*
X112080972Y-125169038D02*
X112079517Y-125170345D01*
G75*
G02*
X110490855Y-125084317I-751317J837345D01*
G01*
X109180853Y-123624317D01*
G75*
G02*
X109266881Y-122035655I837345J751317D01*
G01*
X109266881Y-122035655D01*
G75*
G02*
X110855543Y-122121683I751317J-837345D01*
G01*
X112165545Y-123581683D01*
G75*
G02*
X112079517Y-125170345I-837345J-751317D01*
G01*
G37*
D13*
X107518200Y-126873000D03*
D16*
X110018200Y-122873000D03*
D15*
X112598200Y-126873000D03*
X102438200Y-126873000D03*
G04 #@! TD*
G04 #@! TO.C,MX38*
G36*
G01*
X126527926Y-123495260D02*
X126526853Y-123495334D01*
G75*
G02*
X125327116Y-122450403I-77403J1122334D01*
G01*
X125287116Y-121870403D01*
G75*
G02*
X126332047Y-120670666I1122334J77403D01*
G01*
X126332047Y-120670666D01*
G75*
G02*
X127531784Y-121715597I77403J-1122334D01*
G01*
X127571784Y-122295597D01*
G75*
G02*
X126526853Y-123495334I-1122334J-77403D01*
G01*
G37*
D16*
X126409450Y-121793000D03*
G36*
G01*
X133512222Y-125169038D02*
X133510767Y-125170345D01*
G75*
G02*
X131922105Y-125084317I-751317J837345D01*
G01*
X130612103Y-123624317D01*
G75*
G02*
X130698131Y-122035655I837345J751317D01*
G01*
X130698131Y-122035655D01*
G75*
G02*
X132286793Y-122121683I751317J-837345D01*
G01*
X133596795Y-123581683D01*
G75*
G02*
X133510767Y-125170345I-837345J-751317D01*
G01*
G37*
D13*
X128949450Y-126873000D03*
D16*
X131449450Y-122873000D03*
D15*
X134029450Y-126873000D03*
X123869450Y-126873000D03*
G04 #@! TD*
G04 #@! TO.C,MX37*
G36*
G01*
X145577926Y-123495260D02*
X145576853Y-123495334D01*
G75*
G02*
X144377116Y-122450403I-77403J1122334D01*
G01*
X144337116Y-121870403D01*
G75*
G02*
X145382047Y-120670666I1122334J77403D01*
G01*
X145382047Y-120670666D01*
G75*
G02*
X146581784Y-121715597I77403J-1122334D01*
G01*
X146621784Y-122295597D01*
G75*
G02*
X145576853Y-123495334I-1122334J-77403D01*
G01*
G37*
D16*
X145459450Y-121793000D03*
G36*
G01*
X152562222Y-125169038D02*
X152560767Y-125170345D01*
G75*
G02*
X150972105Y-125084317I-751317J837345D01*
G01*
X149662103Y-123624317D01*
G75*
G02*
X149748131Y-122035655I837345J751317D01*
G01*
X149748131Y-122035655D01*
G75*
G02*
X151336793Y-122121683I751317J-837345D01*
G01*
X152646795Y-123581683D01*
G75*
G02*
X152560767Y-125170345I-837345J-751317D01*
G01*
G37*
D13*
X147999450Y-126873000D03*
D16*
X150499450Y-122873000D03*
D15*
X153079450Y-126873000D03*
X142919450Y-126873000D03*
G04 #@! TD*
G04 #@! TO.C,MX36*
G36*
G01*
X164627926Y-123495260D02*
X164626853Y-123495334D01*
G75*
G02*
X163427116Y-122450403I-77403J1122334D01*
G01*
X163387116Y-121870403D01*
G75*
G02*
X164432047Y-120670666I1122334J77403D01*
G01*
X164432047Y-120670666D01*
G75*
G02*
X165631784Y-121715597I77403J-1122334D01*
G01*
X165671784Y-122295597D01*
G75*
G02*
X164626853Y-123495334I-1122334J-77403D01*
G01*
G37*
D16*
X164509450Y-121793000D03*
G36*
G01*
X171612222Y-125169038D02*
X171610767Y-125170345D01*
G75*
G02*
X170022105Y-125084317I-751317J837345D01*
G01*
X168712103Y-123624317D01*
G75*
G02*
X168798131Y-122035655I837345J751317D01*
G01*
X168798131Y-122035655D01*
G75*
G02*
X170386793Y-122121683I751317J-837345D01*
G01*
X171696795Y-123581683D01*
G75*
G02*
X171610767Y-125170345I-837345J-751317D01*
G01*
G37*
D13*
X167049450Y-126873000D03*
D16*
X169549450Y-122873000D03*
D15*
X172129450Y-126873000D03*
X161969450Y-126873000D03*
G04 #@! TD*
G04 #@! TO.C,MX35*
G36*
G01*
X183677926Y-123495260D02*
X183676853Y-123495334D01*
G75*
G02*
X182477116Y-122450403I-77403J1122334D01*
G01*
X182437116Y-121870403D01*
G75*
G02*
X183482047Y-120670666I1122334J77403D01*
G01*
X183482047Y-120670666D01*
G75*
G02*
X184681784Y-121715597I77403J-1122334D01*
G01*
X184721784Y-122295597D01*
G75*
G02*
X183676853Y-123495334I-1122334J-77403D01*
G01*
G37*
D16*
X183559450Y-121793000D03*
G36*
G01*
X190662222Y-125169038D02*
X190660767Y-125170345D01*
G75*
G02*
X189072105Y-125084317I-751317J837345D01*
G01*
X187762103Y-123624317D01*
G75*
G02*
X187848131Y-122035655I837345J751317D01*
G01*
X187848131Y-122035655D01*
G75*
G02*
X189436793Y-122121683I751317J-837345D01*
G01*
X190746795Y-123581683D01*
G75*
G02*
X190660767Y-125170345I-837345J-751317D01*
G01*
G37*
D13*
X186099450Y-126873000D03*
D16*
X188599450Y-122873000D03*
D15*
X191179450Y-126873000D03*
X181019450Y-126873000D03*
G04 #@! TD*
G04 #@! TO.C,MX34*
G36*
G01*
X202727926Y-123495260D02*
X202726853Y-123495334D01*
G75*
G02*
X201527116Y-122450403I-77403J1122334D01*
G01*
X201487116Y-121870403D01*
G75*
G02*
X202532047Y-120670666I1122334J77403D01*
G01*
X202532047Y-120670666D01*
G75*
G02*
X203731784Y-121715597I77403J-1122334D01*
G01*
X203771784Y-122295597D01*
G75*
G02*
X202726853Y-123495334I-1122334J-77403D01*
G01*
G37*
D16*
X202609450Y-121793000D03*
G36*
G01*
X209712222Y-125169038D02*
X209710767Y-125170345D01*
G75*
G02*
X208122105Y-125084317I-751317J837345D01*
G01*
X206812103Y-123624317D01*
G75*
G02*
X206898131Y-122035655I837345J751317D01*
G01*
X206898131Y-122035655D01*
G75*
G02*
X208486793Y-122121683I751317J-837345D01*
G01*
X209796795Y-123581683D01*
G75*
G02*
X209710767Y-125170345I-837345J-751317D01*
G01*
G37*
D13*
X205149450Y-126873000D03*
D16*
X207649450Y-122873000D03*
D15*
X210229450Y-126873000D03*
X200069450Y-126873000D03*
G04 #@! TD*
G04 #@! TO.C,MX33*
G36*
G01*
X221777926Y-123495260D02*
X221776853Y-123495334D01*
G75*
G02*
X220577116Y-122450403I-77403J1122334D01*
G01*
X220537116Y-121870403D01*
G75*
G02*
X221582047Y-120670666I1122334J77403D01*
G01*
X221582047Y-120670666D01*
G75*
G02*
X222781784Y-121715597I77403J-1122334D01*
G01*
X222821784Y-122295597D01*
G75*
G02*
X221776853Y-123495334I-1122334J-77403D01*
G01*
G37*
D16*
X221659450Y-121793000D03*
G36*
G01*
X228762222Y-125169038D02*
X228760767Y-125170345D01*
G75*
G02*
X227172105Y-125084317I-751317J837345D01*
G01*
X225862103Y-123624317D01*
G75*
G02*
X225948131Y-122035655I837345J751317D01*
G01*
X225948131Y-122035655D01*
G75*
G02*
X227536793Y-122121683I751317J-837345D01*
G01*
X228846795Y-123581683D01*
G75*
G02*
X228760767Y-125170345I-837345J-751317D01*
G01*
G37*
D13*
X224199450Y-126873000D03*
D16*
X226699450Y-122873000D03*
D15*
X229279450Y-126873000D03*
X219119450Y-126873000D03*
G04 #@! TD*
G04 #@! TO.C,MX32*
G36*
G01*
X240827926Y-123495260D02*
X240826853Y-123495334D01*
G75*
G02*
X239627116Y-122450403I-77403J1122334D01*
G01*
X239587116Y-121870403D01*
G75*
G02*
X240632047Y-120670666I1122334J77403D01*
G01*
X240632047Y-120670666D01*
G75*
G02*
X241831784Y-121715597I77403J-1122334D01*
G01*
X241871784Y-122295597D01*
G75*
G02*
X240826853Y-123495334I-1122334J-77403D01*
G01*
G37*
D16*
X240709450Y-121793000D03*
G36*
G01*
X247812222Y-125169038D02*
X247810767Y-125170345D01*
G75*
G02*
X246222105Y-125084317I-751317J837345D01*
G01*
X244912103Y-123624317D01*
G75*
G02*
X244998131Y-122035655I837345J751317D01*
G01*
X244998131Y-122035655D01*
G75*
G02*
X246586793Y-122121683I751317J-837345D01*
G01*
X247896795Y-123581683D01*
G75*
G02*
X247810767Y-125170345I-837345J-751317D01*
G01*
G37*
D13*
X243249450Y-126873000D03*
D16*
X245749450Y-122873000D03*
D15*
X248329450Y-126873000D03*
X238169450Y-126873000D03*
G04 #@! TD*
G04 #@! TO.C,MX31*
G36*
G01*
X259877926Y-123495260D02*
X259876853Y-123495334D01*
G75*
G02*
X258677116Y-122450403I-77403J1122334D01*
G01*
X258637116Y-121870403D01*
G75*
G02*
X259682047Y-120670666I1122334J77403D01*
G01*
X259682047Y-120670666D01*
G75*
G02*
X260881784Y-121715597I77403J-1122334D01*
G01*
X260921784Y-122295597D01*
G75*
G02*
X259876853Y-123495334I-1122334J-77403D01*
G01*
G37*
D16*
X259759450Y-121793000D03*
G36*
G01*
X266862222Y-125169038D02*
X266860767Y-125170345D01*
G75*
G02*
X265272105Y-125084317I-751317J837345D01*
G01*
X263962103Y-123624317D01*
G75*
G02*
X264048131Y-122035655I837345J751317D01*
G01*
X264048131Y-122035655D01*
G75*
G02*
X265636793Y-122121683I751317J-837345D01*
G01*
X266946795Y-123581683D01*
G75*
G02*
X266860767Y-125170345I-837345J-751317D01*
G01*
G37*
D13*
X262299450Y-126873000D03*
D16*
X264799450Y-122873000D03*
D15*
X267379450Y-126873000D03*
X257219450Y-126873000D03*
G04 #@! TD*
G04 #@! TO.C,MX30*
G36*
G01*
X278927926Y-123495260D02*
X278926853Y-123495334D01*
G75*
G02*
X277727116Y-122450403I-77403J1122334D01*
G01*
X277687116Y-121870403D01*
G75*
G02*
X278732047Y-120670666I1122334J77403D01*
G01*
X278732047Y-120670666D01*
G75*
G02*
X279931784Y-121715597I77403J-1122334D01*
G01*
X279971784Y-122295597D01*
G75*
G02*
X278926853Y-123495334I-1122334J-77403D01*
G01*
G37*
D16*
X278809450Y-121793000D03*
G36*
G01*
X285912222Y-125169038D02*
X285910767Y-125170345D01*
G75*
G02*
X284322105Y-125084317I-751317J837345D01*
G01*
X283012103Y-123624317D01*
G75*
G02*
X283098131Y-122035655I837345J751317D01*
G01*
X283098131Y-122035655D01*
G75*
G02*
X284686793Y-122121683I751317J-837345D01*
G01*
X285996795Y-123581683D01*
G75*
G02*
X285910767Y-125170345I-837345J-751317D01*
G01*
G37*
D13*
X281349450Y-126873000D03*
D16*
X283849450Y-122873000D03*
D15*
X286429450Y-126873000D03*
X276269450Y-126873000D03*
G04 #@! TD*
G04 #@! TO.C,MX29*
G36*
G01*
X297977926Y-123495260D02*
X297976853Y-123495334D01*
G75*
G02*
X296777116Y-122450403I-77403J1122334D01*
G01*
X296737116Y-121870403D01*
G75*
G02*
X297782047Y-120670666I1122334J77403D01*
G01*
X297782047Y-120670666D01*
G75*
G02*
X298981784Y-121715597I77403J-1122334D01*
G01*
X299021784Y-122295597D01*
G75*
G02*
X297976853Y-123495334I-1122334J-77403D01*
G01*
G37*
D16*
X297859450Y-121793000D03*
G36*
G01*
X304962222Y-125169038D02*
X304960767Y-125170345D01*
G75*
G02*
X303372105Y-125084317I-751317J837345D01*
G01*
X302062103Y-123624317D01*
G75*
G02*
X302148131Y-122035655I837345J751317D01*
G01*
X302148131Y-122035655D01*
G75*
G02*
X303736793Y-122121683I751317J-837345D01*
G01*
X305046795Y-123581683D01*
G75*
G02*
X304960767Y-125170345I-837345J-751317D01*
G01*
G37*
D13*
X300399450Y-126873000D03*
D16*
X302899450Y-122873000D03*
D15*
X305479450Y-126873000D03*
X295319450Y-126873000D03*
G04 #@! TD*
G04 #@! TO.C,MX28*
G36*
G01*
X324171676Y-123495260D02*
X324170603Y-123495334D01*
G75*
G02*
X322970866Y-122450403I-77403J1122334D01*
G01*
X322930866Y-121870403D01*
G75*
G02*
X323975797Y-120670666I1122334J77403D01*
G01*
X323975797Y-120670666D01*
G75*
G02*
X325175534Y-121715597I77403J-1122334D01*
G01*
X325215534Y-122295597D01*
G75*
G02*
X324170603Y-123495334I-1122334J-77403D01*
G01*
G37*
D16*
X324053200Y-121793000D03*
G36*
G01*
X331155972Y-125169038D02*
X331154517Y-125170345D01*
G75*
G02*
X329565855Y-125084317I-751317J837345D01*
G01*
X328255853Y-123624317D01*
G75*
G02*
X328341881Y-122035655I837345J751317D01*
G01*
X328341881Y-122035655D01*
G75*
G02*
X329930543Y-122121683I751317J-837345D01*
G01*
X331240545Y-123581683D01*
G75*
G02*
X331154517Y-125170345I-837345J-751317D01*
G01*
G37*
D13*
X326593200Y-126873000D03*
D16*
X329093200Y-122873000D03*
D15*
X331673200Y-126873000D03*
X321513200Y-126873000D03*
G04 #@! TD*
G04 #@! TO.C,MX27*
X76244450Y-107823000D03*
X86404450Y-107823000D03*
D16*
X83824450Y-103823000D03*
D13*
X81324450Y-107823000D03*
G36*
G01*
X85887222Y-106119038D02*
X85885767Y-106120345D01*
G75*
G02*
X84297105Y-106034317I-751317J837345D01*
G01*
X82987103Y-104574317D01*
G75*
G02*
X83073131Y-102985655I837345J751317D01*
G01*
X83073131Y-102985655D01*
G75*
G02*
X84661793Y-103071683I751317J-837345D01*
G01*
X85971795Y-104531683D01*
G75*
G02*
X85885767Y-106120345I-837345J-751317D01*
G01*
G37*
D16*
X78784450Y-102743000D03*
G36*
G01*
X78902926Y-104445260D02*
X78901853Y-104445334D01*
G75*
G02*
X77702116Y-103400403I-77403J1122334D01*
G01*
X77662116Y-102820403D01*
G75*
G02*
X78707047Y-101620666I1122334J77403D01*
G01*
X78707047Y-101620666D01*
G75*
G02*
X79906784Y-102665597I77403J-1122334D01*
G01*
X79946784Y-103245597D01*
G75*
G02*
X78901853Y-104445334I-1122334J-77403D01*
G01*
G37*
G04 #@! TD*
G04 #@! TO.C,MX26*
G36*
G01*
X107477926Y-104445260D02*
X107476853Y-104445334D01*
G75*
G02*
X106277116Y-103400403I-77403J1122334D01*
G01*
X106237116Y-102820403D01*
G75*
G02*
X107282047Y-101620666I1122334J77403D01*
G01*
X107282047Y-101620666D01*
G75*
G02*
X108481784Y-102665597I77403J-1122334D01*
G01*
X108521784Y-103245597D01*
G75*
G02*
X107476853Y-104445334I-1122334J-77403D01*
G01*
G37*
X107359450Y-102743000D03*
G36*
G01*
X114462222Y-106119038D02*
X114460767Y-106120345D01*
G75*
G02*
X112872105Y-106034317I-751317J837345D01*
G01*
X111562103Y-104574317D01*
G75*
G02*
X111648131Y-102985655I837345J751317D01*
G01*
X111648131Y-102985655D01*
G75*
G02*
X113236793Y-103071683I751317J-837345D01*
G01*
X114546795Y-104531683D01*
G75*
G02*
X114460767Y-106120345I-837345J-751317D01*
G01*
G37*
D13*
X109899450Y-107823000D03*
D16*
X112399450Y-103823000D03*
D15*
X114979450Y-107823000D03*
X104819450Y-107823000D03*
G04 #@! TD*
G04 #@! TO.C,MX25*
G36*
G01*
X131290426Y-104445260D02*
X131289353Y-104445334D01*
G75*
G02*
X130089616Y-103400403I-77403J1122334D01*
G01*
X130049616Y-102820403D01*
G75*
G02*
X131094547Y-101620666I1122334J77403D01*
G01*
X131094547Y-101620666D01*
G75*
G02*
X132294284Y-102665597I77403J-1122334D01*
G01*
X132334284Y-103245597D01*
G75*
G02*
X131289353Y-104445334I-1122334J-77403D01*
G01*
G37*
D16*
X131171950Y-102743000D03*
G36*
G01*
X138274722Y-106119038D02*
X138273267Y-106120345D01*
G75*
G02*
X136684605Y-106034317I-751317J837345D01*
G01*
X135374603Y-104574317D01*
G75*
G02*
X135460631Y-102985655I837345J751317D01*
G01*
X135460631Y-102985655D01*
G75*
G02*
X137049293Y-103071683I751317J-837345D01*
G01*
X138359295Y-104531683D01*
G75*
G02*
X138273267Y-106120345I-837345J-751317D01*
G01*
G37*
D13*
X133711950Y-107823000D03*
D16*
X136211950Y-103823000D03*
D15*
X138791950Y-107823000D03*
X128631950Y-107823000D03*
G04 #@! TD*
G04 #@! TO.C,MX24*
G36*
G01*
X150340426Y-104445260D02*
X150339353Y-104445334D01*
G75*
G02*
X149139616Y-103400403I-77403J1122334D01*
G01*
X149099616Y-102820403D01*
G75*
G02*
X150144547Y-101620666I1122334J77403D01*
G01*
X150144547Y-101620666D01*
G75*
G02*
X151344284Y-102665597I77403J-1122334D01*
G01*
X151384284Y-103245597D01*
G75*
G02*
X150339353Y-104445334I-1122334J-77403D01*
G01*
G37*
D16*
X150221950Y-102743000D03*
G36*
G01*
X157324722Y-106119038D02*
X157323267Y-106120345D01*
G75*
G02*
X155734605Y-106034317I-751317J837345D01*
G01*
X154424603Y-104574317D01*
G75*
G02*
X154510631Y-102985655I837345J751317D01*
G01*
X154510631Y-102985655D01*
G75*
G02*
X156099293Y-103071683I751317J-837345D01*
G01*
X157409295Y-104531683D01*
G75*
G02*
X157323267Y-106120345I-837345J-751317D01*
G01*
G37*
D13*
X152761950Y-107823000D03*
D16*
X155261950Y-103823000D03*
D15*
X157841950Y-107823000D03*
X147681950Y-107823000D03*
G04 #@! TD*
G04 #@! TO.C,MX23*
G36*
G01*
X169390426Y-104445260D02*
X169389353Y-104445334D01*
G75*
G02*
X168189616Y-103400403I-77403J1122334D01*
G01*
X168149616Y-102820403D01*
G75*
G02*
X169194547Y-101620666I1122334J77403D01*
G01*
X169194547Y-101620666D01*
G75*
G02*
X170394284Y-102665597I77403J-1122334D01*
G01*
X170434284Y-103245597D01*
G75*
G02*
X169389353Y-104445334I-1122334J-77403D01*
G01*
G37*
D16*
X169271950Y-102743000D03*
G36*
G01*
X176374722Y-106119038D02*
X176373267Y-106120345D01*
G75*
G02*
X174784605Y-106034317I-751317J837345D01*
G01*
X173474603Y-104574317D01*
G75*
G02*
X173560631Y-102985655I837345J751317D01*
G01*
X173560631Y-102985655D01*
G75*
G02*
X175149293Y-103071683I751317J-837345D01*
G01*
X176459295Y-104531683D01*
G75*
G02*
X176373267Y-106120345I-837345J-751317D01*
G01*
G37*
D13*
X171811950Y-107823000D03*
D16*
X174311950Y-103823000D03*
D15*
X176891950Y-107823000D03*
X166731950Y-107823000D03*
G04 #@! TD*
G04 #@! TO.C,MX22*
G36*
G01*
X188440426Y-104445260D02*
X188439353Y-104445334D01*
G75*
G02*
X187239616Y-103400403I-77403J1122334D01*
G01*
X187199616Y-102820403D01*
G75*
G02*
X188244547Y-101620666I1122334J77403D01*
G01*
X188244547Y-101620666D01*
G75*
G02*
X189444284Y-102665597I77403J-1122334D01*
G01*
X189484284Y-103245597D01*
G75*
G02*
X188439353Y-104445334I-1122334J-77403D01*
G01*
G37*
D16*
X188321950Y-102743000D03*
G36*
G01*
X195424722Y-106119038D02*
X195423267Y-106120345D01*
G75*
G02*
X193834605Y-106034317I-751317J837345D01*
G01*
X192524603Y-104574317D01*
G75*
G02*
X192610631Y-102985655I837345J751317D01*
G01*
X192610631Y-102985655D01*
G75*
G02*
X194199293Y-103071683I751317J-837345D01*
G01*
X195509295Y-104531683D01*
G75*
G02*
X195423267Y-106120345I-837345J-751317D01*
G01*
G37*
D13*
X190861950Y-107823000D03*
D16*
X193361950Y-103823000D03*
D15*
X195941950Y-107823000D03*
X185781950Y-107823000D03*
G04 #@! TD*
G04 #@! TO.C,MX21*
G36*
G01*
X207490426Y-104445260D02*
X207489353Y-104445334D01*
G75*
G02*
X206289616Y-103400403I-77403J1122334D01*
G01*
X206249616Y-102820403D01*
G75*
G02*
X207294547Y-101620666I1122334J77403D01*
G01*
X207294547Y-101620666D01*
G75*
G02*
X208494284Y-102665597I77403J-1122334D01*
G01*
X208534284Y-103245597D01*
G75*
G02*
X207489353Y-104445334I-1122334J-77403D01*
G01*
G37*
D16*
X207371950Y-102743000D03*
G36*
G01*
X214474722Y-106119038D02*
X214473267Y-106120345D01*
G75*
G02*
X212884605Y-106034317I-751317J837345D01*
G01*
X211574603Y-104574317D01*
G75*
G02*
X211660631Y-102985655I837345J751317D01*
G01*
X211660631Y-102985655D01*
G75*
G02*
X213249293Y-103071683I751317J-837345D01*
G01*
X214559295Y-104531683D01*
G75*
G02*
X214473267Y-106120345I-837345J-751317D01*
G01*
G37*
D13*
X209911950Y-107823000D03*
D16*
X212411950Y-103823000D03*
D15*
X214991950Y-107823000D03*
X204831950Y-107823000D03*
G04 #@! TD*
G04 #@! TO.C,MX20*
G36*
G01*
X226540426Y-104445260D02*
X226539353Y-104445334D01*
G75*
G02*
X225339616Y-103400403I-77403J1122334D01*
G01*
X225299616Y-102820403D01*
G75*
G02*
X226344547Y-101620666I1122334J77403D01*
G01*
X226344547Y-101620666D01*
G75*
G02*
X227544284Y-102665597I77403J-1122334D01*
G01*
X227584284Y-103245597D01*
G75*
G02*
X226539353Y-104445334I-1122334J-77403D01*
G01*
G37*
D16*
X226421950Y-102743000D03*
G36*
G01*
X233524722Y-106119038D02*
X233523267Y-106120345D01*
G75*
G02*
X231934605Y-106034317I-751317J837345D01*
G01*
X230624603Y-104574317D01*
G75*
G02*
X230710631Y-102985655I837345J751317D01*
G01*
X230710631Y-102985655D01*
G75*
G02*
X232299293Y-103071683I751317J-837345D01*
G01*
X233609295Y-104531683D01*
G75*
G02*
X233523267Y-106120345I-837345J-751317D01*
G01*
G37*
D13*
X228961950Y-107823000D03*
D16*
X231461950Y-103823000D03*
D15*
X234041950Y-107823000D03*
X223881950Y-107823000D03*
G04 #@! TD*
G04 #@! TO.C,MX19*
G36*
G01*
X245590426Y-104445260D02*
X245589353Y-104445334D01*
G75*
G02*
X244389616Y-103400403I-77403J1122334D01*
G01*
X244349616Y-102820403D01*
G75*
G02*
X245394547Y-101620666I1122334J77403D01*
G01*
X245394547Y-101620666D01*
G75*
G02*
X246594284Y-102665597I77403J-1122334D01*
G01*
X246634284Y-103245597D01*
G75*
G02*
X245589353Y-104445334I-1122334J-77403D01*
G01*
G37*
D16*
X245471950Y-102743000D03*
G36*
G01*
X252574722Y-106119038D02*
X252573267Y-106120345D01*
G75*
G02*
X250984605Y-106034317I-751317J837345D01*
G01*
X249674603Y-104574317D01*
G75*
G02*
X249760631Y-102985655I837345J751317D01*
G01*
X249760631Y-102985655D01*
G75*
G02*
X251349293Y-103071683I751317J-837345D01*
G01*
X252659295Y-104531683D01*
G75*
G02*
X252573267Y-106120345I-837345J-751317D01*
G01*
G37*
D13*
X248011950Y-107823000D03*
D16*
X250511950Y-103823000D03*
D15*
X253091950Y-107823000D03*
X242931950Y-107823000D03*
G04 #@! TD*
G04 #@! TO.C,MX18*
G36*
G01*
X264640426Y-104445260D02*
X264639353Y-104445334D01*
G75*
G02*
X263439616Y-103400403I-77403J1122334D01*
G01*
X263399616Y-102820403D01*
G75*
G02*
X264444547Y-101620666I1122334J77403D01*
G01*
X264444547Y-101620666D01*
G75*
G02*
X265644284Y-102665597I77403J-1122334D01*
G01*
X265684284Y-103245597D01*
G75*
G02*
X264639353Y-104445334I-1122334J-77403D01*
G01*
G37*
D16*
X264521950Y-102743000D03*
G36*
G01*
X271624722Y-106119038D02*
X271623267Y-106120345D01*
G75*
G02*
X270034605Y-106034317I-751317J837345D01*
G01*
X268724603Y-104574317D01*
G75*
G02*
X268810631Y-102985655I837345J751317D01*
G01*
X268810631Y-102985655D01*
G75*
G02*
X270399293Y-103071683I751317J-837345D01*
G01*
X271709295Y-104531683D01*
G75*
G02*
X271623267Y-106120345I-837345J-751317D01*
G01*
G37*
D13*
X267061950Y-107823000D03*
D16*
X269561950Y-103823000D03*
D15*
X272141950Y-107823000D03*
X261981950Y-107823000D03*
G04 #@! TD*
G04 #@! TO.C,MX17*
G36*
G01*
X283690426Y-104445260D02*
X283689353Y-104445334D01*
G75*
G02*
X282489616Y-103400403I-77403J1122334D01*
G01*
X282449616Y-102820403D01*
G75*
G02*
X283494547Y-101620666I1122334J77403D01*
G01*
X283494547Y-101620666D01*
G75*
G02*
X284694284Y-102665597I77403J-1122334D01*
G01*
X284734284Y-103245597D01*
G75*
G02*
X283689353Y-104445334I-1122334J-77403D01*
G01*
G37*
D16*
X283571950Y-102743000D03*
G36*
G01*
X290674722Y-106119038D02*
X290673267Y-106120345D01*
G75*
G02*
X289084605Y-106034317I-751317J837345D01*
G01*
X287774603Y-104574317D01*
G75*
G02*
X287860631Y-102985655I837345J751317D01*
G01*
X287860631Y-102985655D01*
G75*
G02*
X289449293Y-103071683I751317J-837345D01*
G01*
X290759295Y-104531683D01*
G75*
G02*
X290673267Y-106120345I-837345J-751317D01*
G01*
G37*
D13*
X286111950Y-107823000D03*
D16*
X288611950Y-103823000D03*
D15*
X291191950Y-107823000D03*
X281031950Y-107823000D03*
G04 #@! TD*
G04 #@! TO.C,MX16*
G36*
G01*
X302740426Y-104445260D02*
X302739353Y-104445334D01*
G75*
G02*
X301539616Y-103400403I-77403J1122334D01*
G01*
X301499616Y-102820403D01*
G75*
G02*
X302544547Y-101620666I1122334J77403D01*
G01*
X302544547Y-101620666D01*
G75*
G02*
X303744284Y-102665597I77403J-1122334D01*
G01*
X303784284Y-103245597D01*
G75*
G02*
X302739353Y-104445334I-1122334J-77403D01*
G01*
G37*
D16*
X302621950Y-102743000D03*
G36*
G01*
X309724722Y-106119038D02*
X309723267Y-106120345D01*
G75*
G02*
X308134605Y-106034317I-751317J837345D01*
G01*
X306824603Y-104574317D01*
G75*
G02*
X306910631Y-102985655I837345J751317D01*
G01*
X306910631Y-102985655D01*
G75*
G02*
X308499293Y-103071683I751317J-837345D01*
G01*
X309809295Y-104531683D01*
G75*
G02*
X309723267Y-106120345I-837345J-751317D01*
G01*
G37*
D13*
X305161950Y-107823000D03*
D16*
X307661950Y-103823000D03*
D15*
X310241950Y-107823000D03*
X300081950Y-107823000D03*
G04 #@! TD*
G04 #@! TO.C,MX15*
G36*
G01*
X326552926Y-104445260D02*
X326551853Y-104445334D01*
G75*
G02*
X325352116Y-103400403I-77403J1122334D01*
G01*
X325312116Y-102820403D01*
G75*
G02*
X326357047Y-101620666I1122334J77403D01*
G01*
X326357047Y-101620666D01*
G75*
G02*
X327556784Y-102665597I77403J-1122334D01*
G01*
X327596784Y-103245597D01*
G75*
G02*
X326551853Y-104445334I-1122334J-77403D01*
G01*
G37*
D16*
X326434450Y-102743000D03*
G36*
G01*
X333537222Y-106119038D02*
X333535767Y-106120345D01*
G75*
G02*
X331947105Y-106034317I-751317J837345D01*
G01*
X330637103Y-104574317D01*
G75*
G02*
X330723131Y-102985655I837345J751317D01*
G01*
X330723131Y-102985655D01*
G75*
G02*
X332311793Y-103071683I751317J-837345D01*
G01*
X333621795Y-104531683D01*
G75*
G02*
X333535767Y-106120345I-837345J-751317D01*
G01*
G37*
D13*
X328974450Y-107823000D03*
D16*
X331474450Y-103823000D03*
D15*
X334054450Y-107823000D03*
X323894450Y-107823000D03*
G04 #@! TD*
G04 #@! TO.C,MX13*
G36*
G01*
X102715426Y-85395260D02*
X102714353Y-85395334D01*
G75*
G02*
X101514616Y-84350403I-77403J1122334D01*
G01*
X101474616Y-83770403D01*
G75*
G02*
X102519547Y-82570666I1122334J77403D01*
G01*
X102519547Y-82570666D01*
G75*
G02*
X103719284Y-83615597I77403J-1122334D01*
G01*
X103759284Y-84195597D01*
G75*
G02*
X102714353Y-85395334I-1122334J-77403D01*
G01*
G37*
D16*
X102596950Y-83693000D03*
G36*
G01*
X109699722Y-87069038D02*
X109698267Y-87070345D01*
G75*
G02*
X108109605Y-86984317I-751317J837345D01*
G01*
X106799603Y-85524317D01*
G75*
G02*
X106885631Y-83935655I837345J751317D01*
G01*
X106885631Y-83935655D01*
G75*
G02*
X108474293Y-84021683I751317J-837345D01*
G01*
X109784295Y-85481683D01*
G75*
G02*
X109698267Y-87070345I-837345J-751317D01*
G01*
G37*
D13*
X105136950Y-88773000D03*
D16*
X107636950Y-84773000D03*
D15*
X110216950Y-88773000D03*
X100056950Y-88773000D03*
G04 #@! TD*
G04 #@! TO.C,MX12*
G36*
G01*
X121765426Y-85395260D02*
X121764353Y-85395334D01*
G75*
G02*
X120564616Y-84350403I-77403J1122334D01*
G01*
X120524616Y-83770403D01*
G75*
G02*
X121569547Y-82570666I1122334J77403D01*
G01*
X121569547Y-82570666D01*
G75*
G02*
X122769284Y-83615597I77403J-1122334D01*
G01*
X122809284Y-84195597D01*
G75*
G02*
X121764353Y-85395334I-1122334J-77403D01*
G01*
G37*
D16*
X121646950Y-83693000D03*
G36*
G01*
X128749722Y-87069038D02*
X128748267Y-87070345D01*
G75*
G02*
X127159605Y-86984317I-751317J837345D01*
G01*
X125849603Y-85524317D01*
G75*
G02*
X125935631Y-83935655I837345J751317D01*
G01*
X125935631Y-83935655D01*
G75*
G02*
X127524293Y-84021683I751317J-837345D01*
G01*
X128834295Y-85481683D01*
G75*
G02*
X128748267Y-87070345I-837345J-751317D01*
G01*
G37*
D13*
X124186950Y-88773000D03*
D16*
X126686950Y-84773000D03*
D15*
X129266950Y-88773000D03*
X119106950Y-88773000D03*
G04 #@! TD*
G04 #@! TO.C,MX11*
G36*
G01*
X140815426Y-85395260D02*
X140814353Y-85395334D01*
G75*
G02*
X139614616Y-84350403I-77403J1122334D01*
G01*
X139574616Y-83770403D01*
G75*
G02*
X140619547Y-82570666I1122334J77403D01*
G01*
X140619547Y-82570666D01*
G75*
G02*
X141819284Y-83615597I77403J-1122334D01*
G01*
X141859284Y-84195597D01*
G75*
G02*
X140814353Y-85395334I-1122334J-77403D01*
G01*
G37*
D16*
X140696950Y-83693000D03*
G36*
G01*
X147799722Y-87069038D02*
X147798267Y-87070345D01*
G75*
G02*
X146209605Y-86984317I-751317J837345D01*
G01*
X144899603Y-85524317D01*
G75*
G02*
X144985631Y-83935655I837345J751317D01*
G01*
X144985631Y-83935655D01*
G75*
G02*
X146574293Y-84021683I751317J-837345D01*
G01*
X147884295Y-85481683D01*
G75*
G02*
X147798267Y-87070345I-837345J-751317D01*
G01*
G37*
D13*
X143236950Y-88773000D03*
D16*
X145736950Y-84773000D03*
D15*
X148316950Y-88773000D03*
X138156950Y-88773000D03*
G04 #@! TD*
G04 #@! TO.C,MX10*
G36*
G01*
X159865426Y-85395260D02*
X159864353Y-85395334D01*
G75*
G02*
X158664616Y-84350403I-77403J1122334D01*
G01*
X158624616Y-83770403D01*
G75*
G02*
X159669547Y-82570666I1122334J77403D01*
G01*
X159669547Y-82570666D01*
G75*
G02*
X160869284Y-83615597I77403J-1122334D01*
G01*
X160909284Y-84195597D01*
G75*
G02*
X159864353Y-85395334I-1122334J-77403D01*
G01*
G37*
D16*
X159746950Y-83693000D03*
G36*
G01*
X166849722Y-87069038D02*
X166848267Y-87070345D01*
G75*
G02*
X165259605Y-86984317I-751317J837345D01*
G01*
X163949603Y-85524317D01*
G75*
G02*
X164035631Y-83935655I837345J751317D01*
G01*
X164035631Y-83935655D01*
G75*
G02*
X165624293Y-84021683I751317J-837345D01*
G01*
X166934295Y-85481683D01*
G75*
G02*
X166848267Y-87070345I-837345J-751317D01*
G01*
G37*
D13*
X162286950Y-88773000D03*
D16*
X164786950Y-84773000D03*
D15*
X167366950Y-88773000D03*
X157206950Y-88773000D03*
G04 #@! TD*
G04 #@! TO.C,MX9*
G36*
G01*
X178915426Y-85395260D02*
X178914353Y-85395334D01*
G75*
G02*
X177714616Y-84350403I-77403J1122334D01*
G01*
X177674616Y-83770403D01*
G75*
G02*
X178719547Y-82570666I1122334J77403D01*
G01*
X178719547Y-82570666D01*
G75*
G02*
X179919284Y-83615597I77403J-1122334D01*
G01*
X179959284Y-84195597D01*
G75*
G02*
X178914353Y-85395334I-1122334J-77403D01*
G01*
G37*
D16*
X178796950Y-83693000D03*
G36*
G01*
X185899722Y-87069038D02*
X185898267Y-87070345D01*
G75*
G02*
X184309605Y-86984317I-751317J837345D01*
G01*
X182999603Y-85524317D01*
G75*
G02*
X183085631Y-83935655I837345J751317D01*
G01*
X183085631Y-83935655D01*
G75*
G02*
X184674293Y-84021683I751317J-837345D01*
G01*
X185984295Y-85481683D01*
G75*
G02*
X185898267Y-87070345I-837345J-751317D01*
G01*
G37*
D13*
X181336950Y-88773000D03*
D16*
X183836950Y-84773000D03*
D15*
X186416950Y-88773000D03*
X176256950Y-88773000D03*
G04 #@! TD*
G04 #@! TO.C,MX8*
G36*
G01*
X197965426Y-85395260D02*
X197964353Y-85395334D01*
G75*
G02*
X196764616Y-84350403I-77403J1122334D01*
G01*
X196724616Y-83770403D01*
G75*
G02*
X197769547Y-82570666I1122334J77403D01*
G01*
X197769547Y-82570666D01*
G75*
G02*
X198969284Y-83615597I77403J-1122334D01*
G01*
X199009284Y-84195597D01*
G75*
G02*
X197964353Y-85395334I-1122334J-77403D01*
G01*
G37*
D16*
X197846950Y-83693000D03*
G36*
G01*
X204949722Y-87069038D02*
X204948267Y-87070345D01*
G75*
G02*
X203359605Y-86984317I-751317J837345D01*
G01*
X202049603Y-85524317D01*
G75*
G02*
X202135631Y-83935655I837345J751317D01*
G01*
X202135631Y-83935655D01*
G75*
G02*
X203724293Y-84021683I751317J-837345D01*
G01*
X205034295Y-85481683D01*
G75*
G02*
X204948267Y-87070345I-837345J-751317D01*
G01*
G37*
D13*
X200386950Y-88773000D03*
D16*
X202886950Y-84773000D03*
D15*
X205466950Y-88773000D03*
X195306950Y-88773000D03*
G04 #@! TD*
G04 #@! TO.C,MX7*
G36*
G01*
X217015426Y-85395260D02*
X217014353Y-85395334D01*
G75*
G02*
X215814616Y-84350403I-77403J1122334D01*
G01*
X215774616Y-83770403D01*
G75*
G02*
X216819547Y-82570666I1122334J77403D01*
G01*
X216819547Y-82570666D01*
G75*
G02*
X218019284Y-83615597I77403J-1122334D01*
G01*
X218059284Y-84195597D01*
G75*
G02*
X217014353Y-85395334I-1122334J-77403D01*
G01*
G37*
D16*
X216896950Y-83693000D03*
G36*
G01*
X223999722Y-87069038D02*
X223998267Y-87070345D01*
G75*
G02*
X222409605Y-86984317I-751317J837345D01*
G01*
X221099603Y-85524317D01*
G75*
G02*
X221185631Y-83935655I837345J751317D01*
G01*
X221185631Y-83935655D01*
G75*
G02*
X222774293Y-84021683I751317J-837345D01*
G01*
X224084295Y-85481683D01*
G75*
G02*
X223998267Y-87070345I-837345J-751317D01*
G01*
G37*
D13*
X219436950Y-88773000D03*
D16*
X221936950Y-84773000D03*
D15*
X224516950Y-88773000D03*
X214356950Y-88773000D03*
G04 #@! TD*
G04 #@! TO.C,MX6*
G36*
G01*
X236065426Y-85395260D02*
X236064353Y-85395334D01*
G75*
G02*
X234864616Y-84350403I-77403J1122334D01*
G01*
X234824616Y-83770403D01*
G75*
G02*
X235869547Y-82570666I1122334J77403D01*
G01*
X235869547Y-82570666D01*
G75*
G02*
X237069284Y-83615597I77403J-1122334D01*
G01*
X237109284Y-84195597D01*
G75*
G02*
X236064353Y-85395334I-1122334J-77403D01*
G01*
G37*
D16*
X235946950Y-83693000D03*
G36*
G01*
X243049722Y-87069038D02*
X243048267Y-87070345D01*
G75*
G02*
X241459605Y-86984317I-751317J837345D01*
G01*
X240149603Y-85524317D01*
G75*
G02*
X240235631Y-83935655I837345J751317D01*
G01*
X240235631Y-83935655D01*
G75*
G02*
X241824293Y-84021683I751317J-837345D01*
G01*
X243134295Y-85481683D01*
G75*
G02*
X243048267Y-87070345I-837345J-751317D01*
G01*
G37*
D13*
X238486950Y-88773000D03*
D16*
X240986950Y-84773000D03*
D15*
X243566950Y-88773000D03*
X233406950Y-88773000D03*
G04 #@! TD*
G04 #@! TO.C,MX5*
G36*
G01*
X255115426Y-85395260D02*
X255114353Y-85395334D01*
G75*
G02*
X253914616Y-84350403I-77403J1122334D01*
G01*
X253874616Y-83770403D01*
G75*
G02*
X254919547Y-82570666I1122334J77403D01*
G01*
X254919547Y-82570666D01*
G75*
G02*
X256119284Y-83615597I77403J-1122334D01*
G01*
X256159284Y-84195597D01*
G75*
G02*
X255114353Y-85395334I-1122334J-77403D01*
G01*
G37*
D16*
X254996950Y-83693000D03*
G36*
G01*
X262099722Y-87069038D02*
X262098267Y-87070345D01*
G75*
G02*
X260509605Y-86984317I-751317J837345D01*
G01*
X259199603Y-85524317D01*
G75*
G02*
X259285631Y-83935655I837345J751317D01*
G01*
X259285631Y-83935655D01*
G75*
G02*
X260874293Y-84021683I751317J-837345D01*
G01*
X262184295Y-85481683D01*
G75*
G02*
X262098267Y-87070345I-837345J-751317D01*
G01*
G37*
D13*
X257536950Y-88773000D03*
D16*
X260036950Y-84773000D03*
D15*
X262616950Y-88773000D03*
X252456950Y-88773000D03*
G04 #@! TD*
G04 #@! TO.C,MX4*
G36*
G01*
X274165426Y-85395260D02*
X274164353Y-85395334D01*
G75*
G02*
X272964616Y-84350403I-77403J1122334D01*
G01*
X272924616Y-83770403D01*
G75*
G02*
X273969547Y-82570666I1122334J77403D01*
G01*
X273969547Y-82570666D01*
G75*
G02*
X275169284Y-83615597I77403J-1122334D01*
G01*
X275209284Y-84195597D01*
G75*
G02*
X274164353Y-85395334I-1122334J-77403D01*
G01*
G37*
D16*
X274046950Y-83693000D03*
G36*
G01*
X281149722Y-87069038D02*
X281148267Y-87070345D01*
G75*
G02*
X279559605Y-86984317I-751317J837345D01*
G01*
X278249603Y-85524317D01*
G75*
G02*
X278335631Y-83935655I837345J751317D01*
G01*
X278335631Y-83935655D01*
G75*
G02*
X279924293Y-84021683I751317J-837345D01*
G01*
X281234295Y-85481683D01*
G75*
G02*
X281148267Y-87070345I-837345J-751317D01*
G01*
G37*
D13*
X276586950Y-88773000D03*
D16*
X279086950Y-84773000D03*
D15*
X281666950Y-88773000D03*
X271506950Y-88773000D03*
G04 #@! TD*
G04 #@! TO.C,MX3*
G36*
G01*
X293215426Y-85395260D02*
X293214353Y-85395334D01*
G75*
G02*
X292014616Y-84350403I-77403J1122334D01*
G01*
X291974616Y-83770403D01*
G75*
G02*
X293019547Y-82570666I1122334J77403D01*
G01*
X293019547Y-82570666D01*
G75*
G02*
X294219284Y-83615597I77403J-1122334D01*
G01*
X294259284Y-84195597D01*
G75*
G02*
X293214353Y-85395334I-1122334J-77403D01*
G01*
G37*
D16*
X293096950Y-83693000D03*
G36*
G01*
X300199722Y-87069038D02*
X300198267Y-87070345D01*
G75*
G02*
X298609605Y-86984317I-751317J837345D01*
G01*
X297299603Y-85524317D01*
G75*
G02*
X297385631Y-83935655I837345J751317D01*
G01*
X297385631Y-83935655D01*
G75*
G02*
X298974293Y-84021683I751317J-837345D01*
G01*
X300284295Y-85481683D01*
G75*
G02*
X300198267Y-87070345I-837345J-751317D01*
G01*
G37*
D13*
X295636950Y-88773000D03*
D16*
X298136950Y-84773000D03*
D15*
X300716950Y-88773000D03*
X290556950Y-88773000D03*
G04 #@! TD*
G04 #@! TO.C,MX2*
G36*
G01*
X312265426Y-85395260D02*
X312264353Y-85395334D01*
G75*
G02*
X311064616Y-84350403I-77403J1122334D01*
G01*
X311024616Y-83770403D01*
G75*
G02*
X312069547Y-82570666I1122334J77403D01*
G01*
X312069547Y-82570666D01*
G75*
G02*
X313269284Y-83615597I77403J-1122334D01*
G01*
X313309284Y-84195597D01*
G75*
G02*
X312264353Y-85395334I-1122334J-77403D01*
G01*
G37*
D16*
X312146950Y-83693000D03*
G36*
G01*
X319249722Y-87069038D02*
X319248267Y-87070345D01*
G75*
G02*
X317659605Y-86984317I-751317J837345D01*
G01*
X316349603Y-85524317D01*
G75*
G02*
X316435631Y-83935655I837345J751317D01*
G01*
X316435631Y-83935655D01*
G75*
G02*
X318024293Y-84021683I751317J-837345D01*
G01*
X319334295Y-85481683D01*
G75*
G02*
X319248267Y-87070345I-837345J-751317D01*
G01*
G37*
D13*
X314686950Y-88773000D03*
D16*
X317186950Y-84773000D03*
D15*
X319766950Y-88773000D03*
X309606950Y-88773000D03*
G04 #@! TD*
G04 #@! TO.C,MX1*
G36*
G01*
X331315426Y-85395260D02*
X331314353Y-85395334D01*
G75*
G02*
X330114616Y-84350403I-77403J1122334D01*
G01*
X330074616Y-83770403D01*
G75*
G02*
X331119547Y-82570666I1122334J77403D01*
G01*
X331119547Y-82570666D01*
G75*
G02*
X332319284Y-83615597I77403J-1122334D01*
G01*
X332359284Y-84195597D01*
G75*
G02*
X331314353Y-85395334I-1122334J-77403D01*
G01*
G37*
D16*
X331196950Y-83693000D03*
G36*
G01*
X338299722Y-87069038D02*
X338298267Y-87070345D01*
G75*
G02*
X336709605Y-86984317I-751317J837345D01*
G01*
X335399603Y-85524317D01*
G75*
G02*
X335485631Y-83935655I837345J751317D01*
G01*
X335485631Y-83935655D01*
G75*
G02*
X337074293Y-84021683I751317J-837345D01*
G01*
X338384295Y-85481683D01*
G75*
G02*
X338298267Y-87070345I-837345J-751317D01*
G01*
G37*
D13*
X333736950Y-88773000D03*
D16*
X336236950Y-84773000D03*
D15*
X338816950Y-88773000D03*
X328656950Y-88773000D03*
G04 #@! TD*
D22*
G04 #@! TO.C,Y1*
X91616000Y-104394000D03*
X91616000Y-106594000D03*
X89916000Y-106594000D03*
X89916000Y-104394000D03*
G04 #@! TD*
D23*
G04 #@! TO.C,U2*
X320528950Y-105441750D03*
D24*
X320728950Y-107441750D03*
X318828950Y-105441750D03*
X318828950Y-107441750D03*
G04 #@! TD*
G04 #@! TO.C,R6*
G36*
G01*
X317803952Y-100112250D02*
X316903948Y-100112250D01*
G75*
G02*
X316653950Y-99862252I0J249998D01*
G01*
X316653950Y-99337248D01*
G75*
G02*
X316903948Y-99087250I249998J0D01*
G01*
X317803952Y-99087250D01*
G75*
G02*
X318053950Y-99337248I0J-249998D01*
G01*
X318053950Y-99862252D01*
G75*
G02*
X317803952Y-100112250I-249998J0D01*
G01*
G37*
G36*
G01*
X317803952Y-101937250D02*
X316903948Y-101937250D01*
G75*
G02*
X316653950Y-101687252I0J249998D01*
G01*
X316653950Y-101162248D01*
G75*
G02*
X316903948Y-100912250I249998J0D01*
G01*
X317803952Y-100912250D01*
G75*
G02*
X318053950Y-101162248I0J-249998D01*
G01*
X318053950Y-101687252D01*
G75*
G02*
X317803952Y-101937250I-249998J0D01*
G01*
G37*
G04 #@! TD*
G04 #@! TO.C,R5*
G36*
G01*
X320998002Y-100112250D02*
X320097998Y-100112250D01*
G75*
G02*
X319848000Y-99862252I0J249998D01*
G01*
X319848000Y-99337248D01*
G75*
G02*
X320097998Y-99087250I249998J0D01*
G01*
X320998002Y-99087250D01*
G75*
G02*
X321248000Y-99337248I0J-249998D01*
G01*
X321248000Y-99862252D01*
G75*
G02*
X320998002Y-100112250I-249998J0D01*
G01*
G37*
G36*
G01*
X320998002Y-101937250D02*
X320097998Y-101937250D01*
G75*
G02*
X319848000Y-101687252I0J249998D01*
G01*
X319848000Y-101162248D01*
G75*
G02*
X320097998Y-100912250I249998J0D01*
G01*
X320998002Y-100912250D01*
G75*
G02*
X321248000Y-101162248I0J-249998D01*
G01*
X321248000Y-101687252D01*
G75*
G02*
X320998002Y-101937250I-249998J0D01*
G01*
G37*
G04 #@! TD*
G04 #@! TO.C,R4*
G36*
G01*
X95753500Y-101034002D02*
X95753500Y-100133998D01*
G75*
G02*
X96003498Y-99884000I249998J0D01*
G01*
X96528502Y-99884000D01*
G75*
G02*
X96778500Y-100133998I0J-249998D01*
G01*
X96778500Y-101034002D01*
G75*
G02*
X96528502Y-101284000I-249998J0D01*
G01*
X96003498Y-101284000D01*
G75*
G02*
X95753500Y-101034002I0J249998D01*
G01*
G37*
G36*
G01*
X97578500Y-101034002D02*
X97578500Y-100133998D01*
G75*
G02*
X97828498Y-99884000I249998J0D01*
G01*
X98353502Y-99884000D01*
G75*
G02*
X98603500Y-100133998I0J-249998D01*
G01*
X98603500Y-101034002D01*
G75*
G02*
X98353502Y-101284000I-249998J0D01*
G01*
X97828498Y-101284000D01*
G75*
G02*
X97578500Y-101034002I0J249998D01*
G01*
G37*
G04 #@! TD*
G04 #@! TO.C,R3*
G36*
G01*
X312635200Y-105098002D02*
X312635200Y-104197998D01*
G75*
G02*
X312885198Y-103948000I249998J0D01*
G01*
X313410202Y-103948000D01*
G75*
G02*
X313660200Y-104197998I0J-249998D01*
G01*
X313660200Y-105098002D01*
G75*
G02*
X313410202Y-105348000I-249998J0D01*
G01*
X312885198Y-105348000D01*
G75*
G02*
X312635200Y-105098002I0J249998D01*
G01*
G37*
G36*
G01*
X314460200Y-105098002D02*
X314460200Y-104197998D01*
G75*
G02*
X314710198Y-103948000I249998J0D01*
G01*
X315235202Y-103948000D01*
G75*
G02*
X315485200Y-104197998I0J-249998D01*
G01*
X315485200Y-105098002D01*
G75*
G02*
X315235202Y-105348000I-249998J0D01*
G01*
X314710198Y-105348000D01*
G75*
G02*
X314460200Y-105098002I0J249998D01*
G01*
G37*
G04 #@! TD*
G04 #@! TO.C,R2*
G36*
G01*
X314460200Y-108273002D02*
X314460200Y-107372998D01*
G75*
G02*
X314710198Y-107123000I249998J0D01*
G01*
X315235202Y-107123000D01*
G75*
G02*
X315485200Y-107372998I0J-249998D01*
G01*
X315485200Y-108273002D01*
G75*
G02*
X315235202Y-108523000I-249998J0D01*
G01*
X314710198Y-108523000D01*
G75*
G02*
X314460200Y-108273002I0J249998D01*
G01*
G37*
G36*
G01*
X312635200Y-108273002D02*
X312635200Y-107372998D01*
G75*
G02*
X312885198Y-107123000I249998J0D01*
G01*
X313410202Y-107123000D01*
G75*
G02*
X313660200Y-107372998I0J-249998D01*
G01*
X313660200Y-108273002D01*
G75*
G02*
X313410202Y-108523000I-249998J0D01*
G01*
X312885198Y-108523000D01*
G75*
G02*
X312635200Y-108273002I0J249998D01*
G01*
G37*
G04 #@! TD*
G04 #@! TO.C,R1*
G36*
G01*
X83793752Y-132560750D02*
X82893748Y-132560750D01*
G75*
G02*
X82643750Y-132310752I0J249998D01*
G01*
X82643750Y-131785748D01*
G75*
G02*
X82893748Y-131535750I249998J0D01*
G01*
X83793752Y-131535750D01*
G75*
G02*
X84043750Y-131785748I0J-249998D01*
G01*
X84043750Y-132310752D01*
G75*
G02*
X83793752Y-132560750I-249998J0D01*
G01*
G37*
G36*
G01*
X83793752Y-134385750D02*
X82893748Y-134385750D01*
G75*
G02*
X82643750Y-134135752I0J249998D01*
G01*
X82643750Y-133610748D01*
G75*
G02*
X82893748Y-133360750I249998J0D01*
G01*
X83793752Y-133360750D01*
G75*
G02*
X84043750Y-133610748I0J-249998D01*
G01*
X84043750Y-134135752D01*
G75*
G02*
X83793752Y-134385750I-249998J0D01*
G01*
G37*
G04 #@! TD*
D25*
G04 #@! TO.C,J2*
X83705700Y-118776750D03*
D26*
X83705700Y-121316750D03*
X81165700Y-118776750D03*
X81165700Y-121316750D03*
X78625700Y-118776750D03*
X78625700Y-121316750D03*
G04 #@! TD*
D27*
G04 #@! TO.C,J1*
X328832400Y-83473880D03*
X320192400Y-83473880D03*
D28*
X328832400Y-79303880D03*
X320192400Y-79303880D03*
D29*
X325262400Y-84053880D03*
X324762400Y-84053880D03*
X324262400Y-84053880D03*
X326262400Y-84053880D03*
X325762400Y-84053880D03*
X323262400Y-84053880D03*
X323762400Y-84053880D03*
X322762400Y-84053880D03*
D30*
X321622400Y-82993880D03*
X327402400Y-82993880D03*
D31*
X326912400Y-84053880D03*
X326912400Y-84053880D03*
X327712400Y-84053880D03*
X327712400Y-84053880D03*
X322112400Y-84053880D03*
X321312400Y-84053880D03*
X322112400Y-84053880D03*
X321312400Y-84053880D03*
G04 #@! TD*
G04 #@! TO.C,F1*
G36*
G01*
X320360200Y-113629250D02*
X319110200Y-113629250D01*
G75*
G02*
X318860200Y-113379250I0J250000D01*
G01*
X318860200Y-112629250D01*
G75*
G02*
X319110200Y-112379250I250000J0D01*
G01*
X320360200Y-112379250D01*
G75*
G02*
X320610200Y-112629250I0J-250000D01*
G01*
X320610200Y-113379250D01*
G75*
G02*
X320360200Y-113629250I-250000J0D01*
G01*
G37*
G36*
G01*
X320360200Y-110829250D02*
X319110200Y-110829250D01*
G75*
G02*
X318860200Y-110579250I0J250000D01*
G01*
X318860200Y-109829250D01*
G75*
G02*
X319110200Y-109579250I250000J0D01*
G01*
X320360200Y-109579250D01*
G75*
G02*
X320610200Y-109829250I0J-250000D01*
G01*
X320610200Y-110579250D01*
G75*
G02*
X320360200Y-110829250I-250000J0D01*
G01*
G37*
G04 #@! TD*
D32*
G04 #@! TO.C,D50*
X90487500Y-151668750D03*
X90487500Y-148368750D03*
G04 #@! TD*
G04 #@! TO.C,D49*
X99580700Y-151541750D03*
X99580700Y-148241750D03*
G04 #@! TD*
G04 #@! TO.C,D48*
X118630700Y-151541750D03*
X118630700Y-148241750D03*
G04 #@! TD*
G04 #@! TO.C,D47*
X137680700Y-151541750D03*
X137680700Y-148241750D03*
G04 #@! TD*
G04 #@! TO.C,D46*
X156730700Y-151541750D03*
X156730700Y-148241750D03*
G04 #@! TD*
G04 #@! TO.C,D45*
X192449450Y-151731250D03*
X192449450Y-148431250D03*
G04 #@! TD*
G04 #@! TO.C,D44*
X240074450Y-151668750D03*
X240074450Y-148368750D03*
G04 #@! TD*
G04 #@! TO.C,D43*
X271030700Y-151731250D03*
X271030700Y-148431250D03*
G04 #@! TD*
G04 #@! TO.C,D42*
X290874450Y-151731250D03*
X290874450Y-148431250D03*
G04 #@! TD*
G04 #@! TO.C,D41*
X319087500Y-151731250D03*
X319087500Y-148431250D03*
G04 #@! TD*
G04 #@! TO.C,D40*
X323850000Y-151731250D03*
X323850000Y-148431250D03*
G04 #@! TD*
G04 #@! TO.C,D39*
X101961950Y-129191750D03*
X101961950Y-132491750D03*
G04 #@! TD*
G04 #@! TO.C,D38*
X123393200Y-132554250D03*
X123393200Y-129254250D03*
G04 #@! TD*
G04 #@! TO.C,D37*
X142443200Y-132554250D03*
X142443200Y-129254250D03*
G04 #@! TD*
G04 #@! TO.C,D36*
X161493200Y-132491750D03*
X161493200Y-129191750D03*
G04 #@! TD*
G04 #@! TO.C,D35*
X180543200Y-132554250D03*
X180543200Y-129254250D03*
G04 #@! TD*
G04 #@! TO.C,D34*
X199593200Y-132491750D03*
X199593200Y-129191750D03*
G04 #@! TD*
G04 #@! TO.C,D33*
X218643200Y-132554250D03*
X218643200Y-129254250D03*
G04 #@! TD*
G04 #@! TO.C,D32*
X237693200Y-132554250D03*
X237693200Y-129254250D03*
G04 #@! TD*
G04 #@! TO.C,D31*
X256762250Y-132428250D03*
X256762250Y-129128250D03*
G04 #@! TD*
G04 #@! TO.C,D30*
X275793200Y-132491750D03*
X275793200Y-129191750D03*
G04 #@! TD*
G04 #@! TO.C,D29*
X294843200Y-132491750D03*
X294843200Y-129191750D03*
G04 #@! TD*
G04 #@! TO.C,D28*
X321036950Y-132554250D03*
X321036950Y-129254250D03*
G04 #@! TD*
G04 #@! TO.C,D27*
X75406250Y-113631250D03*
X75406250Y-110331250D03*
G04 #@! TD*
G04 #@! TO.C,D26*
X104343200Y-113441750D03*
X104343200Y-110141750D03*
G04 #@! TD*
G04 #@! TO.C,D25*
X128155700Y-113504250D03*
X128155700Y-110204250D03*
G04 #@! TD*
G04 #@! TO.C,D24*
X147205700Y-113504250D03*
X147205700Y-110204250D03*
G04 #@! TD*
G04 #@! TO.C,D23*
X166255700Y-113504250D03*
X166255700Y-110204250D03*
G04 #@! TD*
G04 #@! TO.C,D22*
X185305700Y-110204250D03*
X185305700Y-113504250D03*
G04 #@! TD*
G04 #@! TO.C,D21*
X204355700Y-113441750D03*
X204355700Y-110141750D03*
G04 #@! TD*
G04 #@! TO.C,D20*
X223405700Y-113441750D03*
X223405700Y-110141750D03*
G04 #@! TD*
G04 #@! TO.C,D19*
X242455700Y-113504250D03*
X242455700Y-110204250D03*
G04 #@! TD*
G04 #@! TO.C,D18*
X261505700Y-113504250D03*
X261505700Y-110204250D03*
G04 #@! TD*
G04 #@! TO.C,D17*
X280555700Y-113504250D03*
X280555700Y-110204250D03*
G04 #@! TD*
G04 #@! TO.C,D16*
X299605700Y-113441750D03*
X299605700Y-110141750D03*
G04 #@! TD*
G04 #@! TO.C,D15*
X324211950Y-110331250D03*
X324211950Y-113631250D03*
G04 #@! TD*
G04 #@! TO.C,D14*
X75406250Y-94581250D03*
X75406250Y-91281250D03*
G04 #@! TD*
G04 #@! TO.C,D13*
X99218750Y-94581250D03*
X99218750Y-91281250D03*
G04 #@! TD*
G04 #@! TO.C,D12*
X118630700Y-94581250D03*
X118630700Y-91281250D03*
G04 #@! TD*
G04 #@! TO.C,D11*
X137680700Y-94454250D03*
X137680700Y-91154250D03*
G04 #@! TD*
G04 #@! TO.C,D10*
X156730700Y-94454250D03*
X156730700Y-91154250D03*
G04 #@! TD*
G04 #@! TO.C,D9*
X175780700Y-94454250D03*
X175780700Y-91154250D03*
G04 #@! TD*
G04 #@! TO.C,D8*
X194830700Y-94454250D03*
X194830700Y-91154250D03*
G04 #@! TD*
G04 #@! TO.C,D7*
X213880700Y-94391750D03*
X213880700Y-91091750D03*
G04 #@! TD*
G04 #@! TO.C,D6*
X232930700Y-94391750D03*
X232930700Y-91091750D03*
G04 #@! TD*
G04 #@! TO.C,D5*
X251980700Y-94454250D03*
X251980700Y-91154250D03*
G04 #@! TD*
G04 #@! TO.C,D4*
X271030700Y-94454250D03*
X271030700Y-91154250D03*
G04 #@! TD*
G04 #@! TO.C,D3*
X290080700Y-94454250D03*
X290080700Y-91154250D03*
G04 #@! TD*
G04 #@! TO.C,D2*
X309130700Y-94454250D03*
X309130700Y-91154250D03*
G04 #@! TD*
G04 #@! TO.C,D1*
X328612500Y-94581250D03*
X328612500Y-91281250D03*
G04 #@! TD*
G04 #@! TO.C,C7*
G36*
G01*
X97732000Y-107663000D02*
X97732000Y-106713000D01*
G75*
G02*
X97982000Y-106463000I250000J0D01*
G01*
X98482000Y-106463000D01*
G75*
G02*
X98732000Y-106713000I0J-250000D01*
G01*
X98732000Y-107663000D01*
G75*
G02*
X98482000Y-107913000I-250000J0D01*
G01*
X97982000Y-107913000D01*
G75*
G02*
X97732000Y-107663000I0J250000D01*
G01*
G37*
G36*
G01*
X95832000Y-107663000D02*
X95832000Y-106713000D01*
G75*
G02*
X96082000Y-106463000I250000J0D01*
G01*
X96582000Y-106463000D01*
G75*
G02*
X96832000Y-106713000I0J-250000D01*
G01*
X96832000Y-107663000D01*
G75*
G02*
X96582000Y-107913000I-250000J0D01*
G01*
X96082000Y-107913000D01*
G75*
G02*
X95832000Y-107663000I0J250000D01*
G01*
G37*
G04 #@! TD*
G04 #@! TO.C,C6*
G36*
G01*
X97666000Y-104361000D02*
X97666000Y-103411000D01*
G75*
G02*
X97916000Y-103161000I250000J0D01*
G01*
X98416000Y-103161000D01*
G75*
G02*
X98666000Y-103411000I0J-250000D01*
G01*
X98666000Y-104361000D01*
G75*
G02*
X98416000Y-104611000I-250000J0D01*
G01*
X97916000Y-104611000D01*
G75*
G02*
X97666000Y-104361000I0J250000D01*
G01*
G37*
G36*
G01*
X95766000Y-104361000D02*
X95766000Y-103411000D01*
G75*
G02*
X96016000Y-103161000I250000J0D01*
G01*
X96516000Y-103161000D01*
G75*
G02*
X96766000Y-103411000I0J-250000D01*
G01*
X96766000Y-104361000D01*
G75*
G02*
X96516000Y-104611000I-250000J0D01*
G01*
X96016000Y-104611000D01*
G75*
G02*
X95766000Y-104361000I0J250000D01*
G01*
G37*
G04 #@! TD*
G04 #@! TO.C,C5*
G36*
G01*
X92554250Y-132555000D02*
X92554250Y-131605000D01*
G75*
G02*
X92804250Y-131355000I250000J0D01*
G01*
X93304250Y-131355000D01*
G75*
G02*
X93554250Y-131605000I0J-250000D01*
G01*
X93554250Y-132555000D01*
G75*
G02*
X93304250Y-132805000I-250000J0D01*
G01*
X92804250Y-132805000D01*
G75*
G02*
X92554250Y-132555000I0J250000D01*
G01*
G37*
G36*
G01*
X90654250Y-132555000D02*
X90654250Y-131605000D01*
G75*
G02*
X90904250Y-131355000I250000J0D01*
G01*
X91404250Y-131355000D01*
G75*
G02*
X91654250Y-131605000I0J-250000D01*
G01*
X91654250Y-132555000D01*
G75*
G02*
X91404250Y-132805000I-250000J0D01*
G01*
X90904250Y-132805000D01*
G75*
G02*
X90654250Y-132555000I0J250000D01*
G01*
G37*
G04 #@! TD*
G04 #@! TO.C,C4*
G36*
G01*
X86380700Y-132555000D02*
X86380700Y-131605000D01*
G75*
G02*
X86630700Y-131355000I250000J0D01*
G01*
X87130700Y-131355000D01*
G75*
G02*
X87380700Y-131605000I0J-250000D01*
G01*
X87380700Y-132555000D01*
G75*
G02*
X87130700Y-132805000I-250000J0D01*
G01*
X86630700Y-132805000D01*
G75*
G02*
X86380700Y-132555000I0J250000D01*
G01*
G37*
G36*
G01*
X88280700Y-132555000D02*
X88280700Y-131605000D01*
G75*
G02*
X88530700Y-131355000I250000J0D01*
G01*
X89030700Y-131355000D01*
G75*
G02*
X89280700Y-131605000I0J-250000D01*
G01*
X89280700Y-132555000D01*
G75*
G02*
X89030700Y-132805000I-250000J0D01*
G01*
X88530700Y-132805000D01*
G75*
G02*
X88280700Y-132555000I0J250000D01*
G01*
G37*
G04 #@! TD*
G04 #@! TO.C,C3*
G36*
G01*
X92474200Y-129221250D02*
X92474200Y-128271250D01*
G75*
G02*
X92724200Y-128021250I250000J0D01*
G01*
X93224200Y-128021250D01*
G75*
G02*
X93474200Y-128271250I0J-250000D01*
G01*
X93474200Y-129221250D01*
G75*
G02*
X93224200Y-129471250I-250000J0D01*
G01*
X92724200Y-129471250D01*
G75*
G02*
X92474200Y-129221250I0J250000D01*
G01*
G37*
G36*
G01*
X90574200Y-129221250D02*
X90574200Y-128271250D01*
G75*
G02*
X90824200Y-128021250I250000J0D01*
G01*
X91324200Y-128021250D01*
G75*
G02*
X91574200Y-128271250I0J-250000D01*
G01*
X91574200Y-129221250D01*
G75*
G02*
X91324200Y-129471250I-250000J0D01*
G01*
X90824200Y-129471250D01*
G75*
G02*
X90574200Y-129221250I0J250000D01*
G01*
G37*
G04 #@! TD*
G04 #@! TO.C,C2*
G36*
G01*
X86380700Y-129221250D02*
X86380700Y-128271250D01*
G75*
G02*
X86630700Y-128021250I250000J0D01*
G01*
X87130700Y-128021250D01*
G75*
G02*
X87380700Y-128271250I0J-250000D01*
G01*
X87380700Y-129221250D01*
G75*
G02*
X87130700Y-129471250I-250000J0D01*
G01*
X86630700Y-129471250D01*
G75*
G02*
X86380700Y-129221250I0J250000D01*
G01*
G37*
G36*
G01*
X88280700Y-129221250D02*
X88280700Y-128271250D01*
G75*
G02*
X88530700Y-128021250I250000J0D01*
G01*
X89030700Y-128021250D01*
G75*
G02*
X89280700Y-128271250I0J-250000D01*
G01*
X89280700Y-129221250D01*
G75*
G02*
X89030700Y-129471250I-250000J0D01*
G01*
X88530700Y-129471250D01*
G75*
G02*
X88280700Y-129221250I0J250000D01*
G01*
G37*
G04 #@! TD*
G04 #@! TO.C,C1*
G36*
G01*
X101918750Y-117864000D02*
X102868750Y-117864000D01*
G75*
G02*
X103118750Y-118114000I0J-250000D01*
G01*
X103118750Y-118614000D01*
G75*
G02*
X102868750Y-118864000I-250000J0D01*
G01*
X101918750Y-118864000D01*
G75*
G02*
X101668750Y-118614000I0J250000D01*
G01*
X101668750Y-118114000D01*
G75*
G02*
X101918750Y-117864000I250000J0D01*
G01*
G37*
G36*
G01*
X101918750Y-115964000D02*
X102868750Y-115964000D01*
G75*
G02*
X103118750Y-116214000I0J-250000D01*
G01*
X103118750Y-116714000D01*
G75*
G02*
X102868750Y-116964000I-250000J0D01*
G01*
X101918750Y-116964000D01*
G75*
G02*
X101668750Y-116714000I0J250000D01*
G01*
X101668750Y-116214000D01*
G75*
G02*
X101918750Y-115964000I250000J0D01*
G01*
G37*
G04 #@! TD*
M02*
