%TF.GenerationSoftware,KiCad,Pcbnew,(5.1.12)-1*%
%TF.CreationDate,2022-01-18T19:21:30-06:00*%
%TF.ProjectId,pcb,7063622e-6b69-4636-9164-5f7063625858,rev?*%
%TF.SameCoordinates,Original*%
%TF.FileFunction,Legend,Bot*%
%TF.FilePolarity,Positive*%
%FSLAX46Y46*%
G04 Gerber Fmt 4.6, Leading zero omitted, Abs format (unit mm)*
G04 Created by KiCad (PCBNEW (5.1.12)-1) date 2022-01-18 19:21:30*
%MOMM*%
%LPD*%
G01*
G04 APERTURE LIST*
%ADD10C,0.100000*%
%ADD11C,0.120000*%
%ADD12C,0.150000*%
%ADD13R,1.500000X1.000000*%
%ADD14R,2.000000X2.000000*%
%ADD15C,2.000000*%
%ADD16C,3.200000*%
%ADD17C,3.987800*%
%ADD18C,3.048000*%
%ADD19C,1.750000*%
%ADD20C,4.400000*%
%ADD21C,0.800000*%
%ADD22O,0.900000X2.000000*%
%ADD23O,0.900000X1.700000*%
%ADD24C,0.600000*%
G04 APERTURE END LIST*
D10*
G36*
X114833400Y-155803600D02*
G01*
X84340700Y-155790900D01*
X71450200Y-143941800D01*
X71462900Y-134200900D01*
X114833400Y-155803600D01*
G37*
X114833400Y-155803600D02*
X84340700Y-155790900D01*
X71450200Y-143941800D01*
X71462900Y-134200900D01*
X114833400Y-155803600D01*
G36*
X195580000Y-118364000D02*
G01*
X195326000Y-118872000D01*
X181610000Y-115316000D01*
X182626000Y-114046000D01*
X195580000Y-118364000D01*
G37*
X195580000Y-118364000D02*
X195326000Y-118872000D01*
X181610000Y-115316000D01*
X182626000Y-114046000D01*
X195580000Y-118364000D01*
G36*
X195326000Y-118872000D02*
G01*
X194310000Y-118364000D01*
X204470000Y-103632000D01*
X205232000Y-103378000D01*
X195326000Y-118872000D01*
G37*
X195326000Y-118872000D02*
X194310000Y-118364000D01*
X204470000Y-103632000D01*
X205232000Y-103378000D01*
X195326000Y-118872000D01*
G36*
X205232000Y-103378000D02*
G01*
X204470000Y-104394000D01*
X195580000Y-101346000D01*
X196342000Y-100838000D01*
X205232000Y-103378000D01*
G37*
X205232000Y-103378000D02*
X204470000Y-104394000D01*
X195580000Y-101346000D01*
X196342000Y-100838000D01*
X205232000Y-103378000D01*
G36*
X196342000Y-100838000D02*
G01*
X183642000Y-115824000D01*
X181610000Y-115316000D01*
X195580000Y-100584000D01*
X196342000Y-100838000D01*
G37*
X196342000Y-100838000D02*
X183642000Y-115824000D01*
X181610000Y-115316000D01*
X195580000Y-100584000D01*
X196342000Y-100838000D01*
G36*
X214376000Y-94488000D02*
G01*
X160020000Y-108204000D01*
X158750000Y-106172000D01*
X214122000Y-93472000D01*
X214376000Y-94488000D01*
G37*
X214376000Y-94488000D02*
X160020000Y-108204000D01*
X158750000Y-106172000D01*
X214122000Y-93472000D01*
X214376000Y-94488000D01*
G36*
X221742000Y-115316000D02*
G01*
X219456000Y-115824000D01*
X214122000Y-93472000D01*
X217678000Y-92710000D01*
X221742000Y-115316000D01*
G37*
X221742000Y-115316000D02*
X219456000Y-115824000D01*
X214122000Y-93472000D01*
X217678000Y-92710000D01*
X221742000Y-115316000D01*
G36*
X223012000Y-119380000D02*
G01*
X177800000Y-127254000D01*
X176530000Y-125476000D01*
X221742000Y-115316000D01*
X223012000Y-119380000D01*
G37*
X223012000Y-119380000D02*
X177800000Y-127254000D01*
X176530000Y-125476000D01*
X221742000Y-115316000D01*
X223012000Y-119380000D01*
G36*
X177800000Y-127254000D02*
G01*
X172466000Y-128524000D01*
X160020000Y-108204000D01*
X162814000Y-106934000D01*
X177800000Y-127254000D01*
G37*
X177800000Y-127254000D02*
X172466000Y-128524000D01*
X160020000Y-108204000D01*
X162814000Y-106934000D01*
X177800000Y-127254000D01*
G36*
X151892000Y-105664000D02*
G01*
X150114000Y-102362000D01*
X151384000Y-102108000D01*
X151892000Y-105664000D01*
G37*
X151892000Y-105664000D02*
X150114000Y-102362000D01*
X151384000Y-102108000D01*
X151892000Y-105664000D01*
G36*
X229362000Y-113538000D02*
G01*
X228854000Y-89154000D01*
X228854000Y-88646000D01*
X230886000Y-87122000D01*
X229362000Y-113538000D01*
G37*
X229362000Y-113538000D02*
X228854000Y-89154000D01*
X228854000Y-88646000D01*
X230886000Y-87122000D01*
X229362000Y-113538000D01*
G36*
X231140000Y-88646000D02*
G01*
X149606000Y-102362000D01*
X148336000Y-99060000D01*
X231648000Y-82296000D01*
X231140000Y-88646000D01*
G37*
X231140000Y-88646000D02*
X149606000Y-102362000D01*
X148336000Y-99060000D01*
X231648000Y-82296000D01*
X231140000Y-88646000D01*
G36*
X234696000Y-128016000D02*
G01*
X228854000Y-125730000D01*
X230378000Y-92202000D01*
X231648000Y-82296000D01*
X234696000Y-128016000D01*
G37*
X234696000Y-128016000D02*
X228854000Y-125730000D01*
X230378000Y-92202000D01*
X231648000Y-82296000D01*
X234696000Y-128016000D01*
G36*
X234696000Y-128016000D02*
G01*
X155448000Y-138684000D01*
X158496000Y-131572000D01*
X228854000Y-125730000D01*
X234696000Y-128016000D01*
G37*
X234696000Y-128016000D02*
X155448000Y-138684000D01*
X158496000Y-131572000D01*
X228854000Y-125730000D01*
X234696000Y-128016000D01*
G36*
X151892000Y-105664000D02*
G01*
X158496000Y-131572000D01*
X155448000Y-138684000D01*
X148336000Y-99060000D01*
X151892000Y-105664000D01*
G37*
X151892000Y-105664000D02*
X158496000Y-131572000D01*
X155448000Y-138684000D01*
X148336000Y-99060000D01*
X151892000Y-105664000D01*
G36*
X117348000Y-105918000D02*
G01*
X108204000Y-104394000D01*
X177812700Y-78879700D01*
X194335400Y-78879700D01*
X117348000Y-105918000D01*
G37*
X117348000Y-105918000D02*
X108204000Y-104394000D01*
X177812700Y-78879700D01*
X194335400Y-78879700D01*
X117348000Y-105918000D01*
G36*
X287782000Y-116078000D02*
G01*
X284988000Y-117094000D01*
X278130000Y-112268000D01*
X234073700Y-78879700D01*
X243725700Y-78879700D01*
X287782000Y-116078000D01*
G37*
X287782000Y-116078000D02*
X284988000Y-117094000D01*
X278130000Y-112268000D01*
X234073700Y-78879700D01*
X243725700Y-78879700D01*
X287782000Y-116078000D01*
G36*
X284988000Y-117094000D02*
G01*
X173329600Y-155816300D01*
X168757600Y-155816300D01*
X278130000Y-112268000D01*
X284988000Y-117094000D01*
G37*
X284988000Y-117094000D02*
X173329600Y-155816300D01*
X168757600Y-155816300D01*
X278130000Y-112268000D01*
X284988000Y-117094000D01*
G36*
X117348000Y-105918000D02*
G01*
X163576000Y-155816300D01*
X154292300Y-155803600D01*
X108204000Y-104394000D01*
X117348000Y-105918000D01*
G37*
X117348000Y-105918000D02*
X163576000Y-155816300D01*
X154292300Y-155803600D01*
X108204000Y-104394000D01*
X117348000Y-105918000D01*
G36*
X343611200Y-91440000D02*
G01*
X343611200Y-97028000D01*
X291541200Y-78879700D01*
X316433200Y-78879700D01*
X343611200Y-91440000D01*
G37*
X343611200Y-91440000D02*
X343611200Y-97028000D01*
X291541200Y-78879700D01*
X316433200Y-78879700D01*
X343611200Y-91440000D01*
G36*
X343623900Y-120904000D02*
G01*
X250698000Y-155816300D01*
X247142000Y-155816300D01*
X343623900Y-104394000D01*
X343623900Y-120904000D01*
G37*
X343623900Y-120904000D02*
X250698000Y-155816300D01*
X247142000Y-155816300D01*
X343623900Y-104394000D01*
X343623900Y-120904000D01*
G36*
X71450200Y-126212600D02*
G01*
X71450200Y-112496600D01*
X127914400Y-78892400D01*
X130784600Y-78892400D01*
X71450200Y-126212600D01*
G37*
X71450200Y-126212600D02*
X71450200Y-112496600D01*
X127914400Y-78892400D01*
X130784600Y-78892400D01*
X71450200Y-126212600D01*
D11*
%TO.C,LED1*%
X84930000Y-124250000D02*
X77630000Y-124250000D01*
X84930000Y-129750000D02*
X77630000Y-129750000D01*
X77630000Y-129750000D02*
X77630000Y-128600000D01*
D12*
X82399047Y-123952380D02*
X82875238Y-123952380D01*
X82875238Y-122952380D01*
X82065714Y-123428571D02*
X81732380Y-123428571D01*
X81589523Y-123952380D02*
X82065714Y-123952380D01*
X82065714Y-122952380D01*
X81589523Y-122952380D01*
X81160952Y-123952380D02*
X81160952Y-122952380D01*
X80922857Y-122952380D01*
X80780000Y-123000000D01*
X80684761Y-123095238D01*
X80637142Y-123190476D01*
X80589523Y-123380952D01*
X80589523Y-123523809D01*
X80637142Y-123714285D01*
X80684761Y-123809523D01*
X80780000Y-123904761D01*
X80922857Y-123952380D01*
X81160952Y-123952380D01*
X79637142Y-123952380D02*
X80208571Y-123952380D01*
X79922857Y-123952380D02*
X79922857Y-122952380D01*
X80018095Y-123095238D01*
X80113333Y-123190476D01*
X80208571Y-123238095D01*
X85144285Y-125852380D02*
X85715714Y-125852380D01*
X85430000Y-125852380D02*
X85430000Y-124852380D01*
X85525238Y-124995238D01*
X85620476Y-125090476D01*
X85715714Y-125138095D01*
%TD*%
%LPC*%
D13*
%TO.C,LED1*%
X83730000Y-125400000D03*
X83730000Y-128600000D03*
X78830000Y-125400000D03*
X78830000Y-128600000D03*
%TD*%
D14*
%TO.C,E1*%
X83780000Y-138430000D03*
D15*
X81280000Y-138430000D03*
X78780000Y-138430000D03*
D16*
X86880000Y-145930000D03*
X75680000Y-145930000D03*
D15*
X83780000Y-152930000D03*
X78780000Y-152930000D03*
%TD*%
D17*
%TO.C,MX54*%
X166992300Y-137668000D03*
X262242300Y-137668000D03*
D18*
X166992300Y-152908000D03*
X262242300Y-152908000D03*
D19*
X209537300Y-145923000D03*
X219697300Y-145923000D03*
D17*
X214617300Y-145923000D03*
%TD*%
D19*
%TO.C,MX53*%
X288734500Y-145910300D03*
X278574500Y-145910300D03*
D17*
X283654500Y-145910300D03*
%TD*%
D19*
%TO.C,MX52*%
X312547000Y-145923000D03*
X302387000Y-145923000D03*
D17*
X307467000Y-145923000D03*
%TD*%
D19*
%TO.C,MX51*%
X336423000Y-145923000D03*
X326263000Y-145923000D03*
D17*
X331343000Y-145923000D03*
%TD*%
%TO.C,MX45*%
X186067700Y-137668000D03*
X209943700Y-137668000D03*
D18*
X186067700Y-152908000D03*
X209943700Y-152908000D03*
D19*
X192925700Y-145923000D03*
X203085700Y-145923000D03*
D17*
X198005700Y-145923000D03*
%TD*%
%TO.C,MX44*%
X233692700Y-137668000D03*
X257568700Y-137668000D03*
D18*
X233692700Y-152908000D03*
X257568700Y-152908000D03*
D19*
X240550700Y-145923000D03*
X250710700Y-145923000D03*
D17*
X245630700Y-145923000D03*
%TD*%
D20*
%TO.C,H6*%
X92202000Y-138684000D03*
%TD*%
%TO.C,H5*%
X92202000Y-95504000D03*
%TD*%
%TO.C,H3*%
X252730000Y-117856000D03*
%TD*%
%TO.C,H4*%
X157480000Y-117856000D03*
%TD*%
%TO.C,H2*%
X324104000Y-138684000D03*
%TD*%
%TO.C,H1*%
X324104000Y-95504000D03*
%TD*%
D19*
%TO.C,MX14*%
X76244450Y-88773000D03*
X86404450Y-88773000D03*
D17*
X81324450Y-88773000D03*
%TD*%
D21*
%TO.C,SW1*%
X90854000Y-100330000D03*
%TD*%
D17*
%TO.C,MX50*%
X114661950Y-88773000D03*
D19*
X119741950Y-88773000D03*
X109581950Y-88773000D03*
D18*
X126599950Y-81788000D03*
X102723950Y-81788000D03*
D17*
X126599950Y-97028000D03*
X102723950Y-97028000D03*
%TD*%
%TO.C,MX49*%
X105136950Y-145923000D03*
D19*
X110216950Y-145923000D03*
X100056950Y-145923000D03*
%TD*%
D17*
%TO.C,MX48*%
X124186950Y-145923000D03*
D19*
X129266950Y-145923000D03*
X119106950Y-145923000D03*
%TD*%
D17*
%TO.C,MX47*%
X143236950Y-145923000D03*
D19*
X148316950Y-145923000D03*
X138156950Y-145923000D03*
%TD*%
D17*
%TO.C,MX46*%
X162286950Y-145923000D03*
D19*
X167366950Y-145923000D03*
X157206950Y-145923000D03*
%TD*%
D17*
%TO.C,MX43*%
X276586950Y-145923000D03*
D19*
X281666950Y-145923000D03*
X271506950Y-145923000D03*
%TD*%
D17*
%TO.C,MX42*%
X295636950Y-145923000D03*
D19*
X300716950Y-145923000D03*
X290556950Y-145923000D03*
%TD*%
D17*
%TO.C,MX41*%
X314686950Y-145923000D03*
D19*
X319766950Y-145923000D03*
X309606950Y-145923000D03*
%TD*%
D17*
%TO.C,MX40*%
X333736950Y-145923000D03*
D19*
X338816950Y-145923000D03*
X328656950Y-145923000D03*
%TD*%
D17*
%TO.C,MX39*%
X107518200Y-126873000D03*
D19*
X112598200Y-126873000D03*
X102438200Y-126873000D03*
%TD*%
D17*
%TO.C,MX38*%
X128949450Y-126873000D03*
D19*
X134029450Y-126873000D03*
X123869450Y-126873000D03*
%TD*%
D17*
%TO.C,MX37*%
X147999450Y-126873000D03*
D19*
X153079450Y-126873000D03*
X142919450Y-126873000D03*
%TD*%
D17*
%TO.C,MX36*%
X167049450Y-126873000D03*
D19*
X172129450Y-126873000D03*
X161969450Y-126873000D03*
%TD*%
D17*
%TO.C,MX35*%
X186099450Y-126873000D03*
D19*
X191179450Y-126873000D03*
X181019450Y-126873000D03*
%TD*%
D17*
%TO.C,MX34*%
X205149450Y-126873000D03*
D19*
X210229450Y-126873000D03*
X200069450Y-126873000D03*
%TD*%
D17*
%TO.C,MX33*%
X224199450Y-126873000D03*
D19*
X229279450Y-126873000D03*
X219119450Y-126873000D03*
%TD*%
D17*
%TO.C,MX32*%
X243249450Y-126873000D03*
D19*
X248329450Y-126873000D03*
X238169450Y-126873000D03*
%TD*%
D17*
%TO.C,MX31*%
X262299450Y-126873000D03*
D19*
X267379450Y-126873000D03*
X257219450Y-126873000D03*
%TD*%
D17*
%TO.C,MX30*%
X281349450Y-126873000D03*
D19*
X286429450Y-126873000D03*
X276269450Y-126873000D03*
%TD*%
D17*
%TO.C,MX29*%
X300399450Y-126873000D03*
D19*
X305479450Y-126873000D03*
X295319450Y-126873000D03*
%TD*%
D17*
%TO.C,MX28*%
X326593200Y-126873000D03*
D19*
X331673200Y-126873000D03*
X321513200Y-126873000D03*
%TD*%
%TO.C,MX27*%
X76244450Y-107823000D03*
X86404450Y-107823000D03*
D17*
X81324450Y-107823000D03*
%TD*%
%TO.C,MX26*%
X109899450Y-107823000D03*
D19*
X114979450Y-107823000D03*
X104819450Y-107823000D03*
%TD*%
D17*
%TO.C,MX25*%
X133711950Y-107823000D03*
D19*
X138791950Y-107823000D03*
X128631950Y-107823000D03*
%TD*%
D17*
%TO.C,MX24*%
X152761950Y-107823000D03*
D19*
X157841950Y-107823000D03*
X147681950Y-107823000D03*
%TD*%
D17*
%TO.C,MX23*%
X171811950Y-107823000D03*
D19*
X176891950Y-107823000D03*
X166731950Y-107823000D03*
%TD*%
D17*
%TO.C,MX22*%
X190861950Y-107823000D03*
D19*
X195941950Y-107823000D03*
X185781950Y-107823000D03*
%TD*%
D17*
%TO.C,MX21*%
X209911950Y-107823000D03*
D19*
X214991950Y-107823000D03*
X204831950Y-107823000D03*
%TD*%
D17*
%TO.C,MX20*%
X228961950Y-107823000D03*
D19*
X234041950Y-107823000D03*
X223881950Y-107823000D03*
%TD*%
D17*
%TO.C,MX19*%
X248011950Y-107823000D03*
D19*
X253091950Y-107823000D03*
X242931950Y-107823000D03*
%TD*%
D17*
%TO.C,MX18*%
X267061950Y-107823000D03*
D19*
X272141950Y-107823000D03*
X261981950Y-107823000D03*
%TD*%
D17*
%TO.C,MX17*%
X286111950Y-107823000D03*
D19*
X291191950Y-107823000D03*
X281031950Y-107823000D03*
%TD*%
D17*
%TO.C,MX16*%
X305161950Y-107823000D03*
D19*
X310241950Y-107823000D03*
X300081950Y-107823000D03*
%TD*%
D17*
%TO.C,MX15*%
X328974450Y-107823000D03*
D19*
X334054450Y-107823000D03*
X323894450Y-107823000D03*
%TD*%
D17*
%TO.C,MX13*%
X105136950Y-88773000D03*
D19*
X110216950Y-88773000D03*
X100056950Y-88773000D03*
%TD*%
D17*
%TO.C,MX12*%
X124186950Y-88773000D03*
D19*
X129266950Y-88773000D03*
X119106950Y-88773000D03*
%TD*%
D17*
%TO.C,MX11*%
X143236950Y-88773000D03*
D19*
X148316950Y-88773000D03*
X138156950Y-88773000D03*
%TD*%
D17*
%TO.C,MX10*%
X162286950Y-88773000D03*
D19*
X167366950Y-88773000D03*
X157206950Y-88773000D03*
%TD*%
D17*
%TO.C,MX9*%
X181336950Y-88773000D03*
D19*
X186416950Y-88773000D03*
X176256950Y-88773000D03*
%TD*%
D17*
%TO.C,MX8*%
X200386950Y-88773000D03*
D19*
X205466950Y-88773000D03*
X195306950Y-88773000D03*
%TD*%
D17*
%TO.C,MX7*%
X219436950Y-88773000D03*
D19*
X224516950Y-88773000D03*
X214356950Y-88773000D03*
%TD*%
D17*
%TO.C,MX6*%
X238486950Y-88773000D03*
D19*
X243566950Y-88773000D03*
X233406950Y-88773000D03*
%TD*%
D17*
%TO.C,MX5*%
X257536950Y-88773000D03*
D19*
X262616950Y-88773000D03*
X252456950Y-88773000D03*
%TD*%
D17*
%TO.C,MX4*%
X276586950Y-88773000D03*
D19*
X281666950Y-88773000D03*
X271506950Y-88773000D03*
%TD*%
D17*
%TO.C,MX3*%
X295636950Y-88773000D03*
D19*
X300716950Y-88773000D03*
X290556950Y-88773000D03*
%TD*%
D17*
%TO.C,MX2*%
X314686950Y-88773000D03*
D19*
X319766950Y-88773000D03*
X309606950Y-88773000D03*
%TD*%
D17*
%TO.C,MX1*%
X333736950Y-88773000D03*
D19*
X338816950Y-88773000D03*
X328656950Y-88773000D03*
%TD*%
D22*
%TO.C,J1*%
X328832400Y-83473880D03*
X320192400Y-83473880D03*
D23*
X328832400Y-79303880D03*
X320192400Y-79303880D03*
D24*
X321622400Y-82993880D03*
X327402400Y-82993880D03*
%TD*%
M02*
