M48
; DRILL file {KiCad (5.1.12)-1} date 01/18/22 19:21:51
; FORMAT={-:-/ absolute / inch / decimal}
; #@! TF.CreationDate,2022-01-18T19:21:51-06:00
; #@! TF.GenerationSoftware,Kicad,Pcbnew,(5.1.12)-1
; #@! TF.FileFunction,Plated,1,2,PTH
FMAT,2
INCH
T1C0.0157
T2C0.0236
T3C0.0394
T4C0.0579
T5C0.0866
T6C0.1024
%
G90
G05
T1
X2.97Y-5.35
X3.1601Y-5.3693
X3.3125Y-4.4967
X3.3506Y-5.3494
X3.4775Y-3.888
X3.5061Y-4.0464
X3.52Y-5.0
X3.613Y-5.2706
X3.6696Y-4.0696
X3.67Y-4.32
X3.72Y-3.86
X3.72Y-3.96
X3.7396Y-3.9196
X3.8125Y-3.7188
X3.8277Y-4.0431
X3.8452Y-5.2
X3.88Y-5.0
X3.96Y-4.68
X3.969Y-4.594
X4.04Y-4.46
X4.2567Y-4.574
X4.32Y-4.6
X8.96Y-5.36
X12.1928Y-4.4688
X12.3438Y-3.7188
X12.4539Y-3.8461
X12.485Y-4.245
X12.54Y-4.08
X12.62Y-4.08
X12.6786Y-3.41
X12.6875Y-4.4688
X12.749Y-3.4956
X12.75Y-3.5527
X12.8438Y-3.6562
X12.87Y-3.41
X13.1017Y-4.5983
T3
X3.0955Y-4.6762
X3.0955Y-4.7763
X3.1016Y-5.45
X3.1016Y-6.0209
X3.1955Y-4.6762
X3.1955Y-4.7763
X3.2Y-5.45
X3.2955Y-4.6762
X3.2955Y-4.7763
X3.2984Y-5.45
X3.2984Y-6.0209
T4
X3.1018Y-3.295
X3.1018Y-4.045
X3.1033Y-3.3178
X3.1033Y-4.0678
X3.3002Y-3.3375
X3.3002Y-4.0875
X3.3518Y-3.395
X3.3518Y-4.145
X4.0393Y-3.295
X4.0393Y-5.545
X4.0408Y-3.3178
X4.0408Y-5.5678
X4.133Y-4.795
X4.1346Y-4.8178
X4.2268Y-4.045
X4.2283Y-4.0678
X4.2377Y-3.3375
X4.2377Y-5.5875
X4.2893Y-3.395
X4.2893Y-5.645
X4.3314Y-4.8375
X4.383Y-4.895
X4.4143Y-3.295
X4.4158Y-3.3178
X4.4252Y-4.0875
X4.4768Y-4.145
X4.6127Y-3.3375
X4.6643Y-3.395
X4.7893Y-3.295
X4.7893Y-5.545
X4.7908Y-3.3178
X4.7908Y-5.5678
X4.9768Y-4.795
X4.9783Y-4.8178
X4.9877Y-3.3375
X4.9877Y-5.5875
X5.0393Y-3.395
X5.0393Y-5.645
X5.1643Y-4.045
X5.1658Y-4.0678
X5.1752Y-4.8375
X5.2268Y-4.895
X5.3627Y-4.0875
X5.4143Y-4.145
X5.5393Y-3.295
X5.5393Y-5.545
X5.5408Y-3.3178
X5.5408Y-5.5678
X5.7268Y-4.795
X5.7283Y-4.8178
X5.7377Y-3.3375
X5.7377Y-5.5875
X5.7893Y-3.395
X5.7893Y-5.645
X5.9143Y-4.045
X5.9158Y-4.0678
X5.9252Y-4.8375
X5.9768Y-4.895
X6.1127Y-4.0875
X6.1643Y-4.145
X6.2893Y-3.295
X6.2893Y-5.545
X6.2908Y-3.3178
X6.2908Y-5.5678
X6.4768Y-4.795
X6.4783Y-4.8178
X6.4877Y-3.3375
X6.4877Y-5.5875
X6.5393Y-3.395
X6.5393Y-5.645
X6.6643Y-4.045
X6.6658Y-4.0678
X6.6752Y-4.8375
X6.7268Y-4.895
X6.8627Y-4.0875
X6.9143Y-4.145
X7.0393Y-3.295
X7.0408Y-3.3178
X7.2268Y-4.795
X7.2283Y-4.8178
X7.2377Y-3.3375
X7.2893Y-3.395
X7.4143Y-4.045
X7.4158Y-4.0678
X7.4252Y-4.8375
X7.4768Y-4.895
X7.6127Y-4.0875
X7.6643Y-4.145
X7.6955Y-5.545
X7.6971Y-5.5678
X7.7893Y-3.295
X7.7908Y-3.3178
X7.8939Y-5.5875
X7.9455Y-5.645
X7.9768Y-4.795
X7.9783Y-4.8178
X7.9877Y-3.3375
X8.0392Y-3.395
X8.1642Y-4.045
X8.1658Y-4.0678
X8.1752Y-4.8375
X8.2267Y-4.895
X8.3495Y-5.545
X8.3511Y-5.5678
X8.3627Y-4.0875
X8.4142Y-4.145
X8.5392Y-3.295
X8.5408Y-3.3178
X8.5479Y-5.5875
X8.5995Y-5.645
X8.7267Y-4.795
X8.7283Y-4.8178
X8.7377Y-3.3375
X8.7892Y-3.395
X8.9142Y-4.045
X8.9158Y-4.0678
X8.9252Y-4.8375
X8.9767Y-4.895
X9.1127Y-4.0875
X9.1642Y-4.145
X9.2892Y-3.295
X9.2908Y-3.3178
X9.4767Y-4.795
X9.4783Y-4.8178
X9.4877Y-3.3375
X9.5392Y-3.395
X9.5705Y-5.545
X9.5721Y-5.5678
X9.6642Y-4.045
X9.6658Y-4.0678
X9.6752Y-4.8375
X9.7267Y-4.895
X9.7689Y-5.5875
X9.8205Y-5.645
X9.8627Y-4.0875
X9.9142Y-4.145
X10.0392Y-3.295
X10.0408Y-3.3178
X10.2267Y-4.795
X10.2283Y-4.8178
X10.2377Y-3.3375
X10.2892Y-3.395
X10.4142Y-4.045
X10.4158Y-4.0678
X10.4252Y-4.8375
X10.4767Y-4.895
X10.6127Y-4.0875
X10.6642Y-4.145
X10.7892Y-3.295
X10.7892Y-5.545
X10.7908Y-3.3178
X10.7908Y-5.5678
X10.9767Y-4.795
X10.9783Y-4.8178
X10.9877Y-3.3375
X10.9877Y-5.5875
X11.0175Y-5.8445
X11.0392Y-3.395
X11.0392Y-5.645
X11.0691Y-5.902
X11.1642Y-4.045
X11.1658Y-4.0678
X11.1752Y-4.8375
X11.2267Y-4.895
X11.2659Y-5.9217
X11.2675Y-5.9445
X11.3627Y-4.0875
X11.4142Y-4.145
X11.5392Y-3.295
X11.5392Y-5.545
X11.5408Y-3.3178
X11.5408Y-5.5678
X11.7267Y-4.795
X11.7283Y-4.8178
X11.7377Y-3.3375
X11.7377Y-5.5875
X11.7892Y-3.395
X11.7892Y-5.645
X11.9142Y-4.045
X11.9158Y-4.0678
X11.9252Y-4.8375
X11.955Y-5.845
X11.9767Y-4.895
X12.0066Y-5.9025
X12.1127Y-4.0875
X12.1642Y-4.145
X12.2034Y-5.9222
X12.205Y-5.945
X12.2892Y-3.295
X12.2892Y-5.545
X12.2908Y-3.3178
X12.2908Y-5.5678
X12.4877Y-3.3375
X12.4877Y-5.5875
X12.5392Y-3.395
X12.5392Y-5.645
X12.758Y-4.795
X12.7596Y-4.8178
X12.8517Y-4.045
X12.8533Y-4.0678
X12.895Y-5.845
X12.9466Y-5.9025
X12.9564Y-4.8375
X13.008Y-4.895
X13.0392Y-3.295
X13.0392Y-5.545
X13.0408Y-3.3178
X13.0408Y-5.5678
X13.0502Y-4.0875
X13.1017Y-4.145
X13.1434Y-5.9222
X13.145Y-5.945
X13.2377Y-3.3375
X13.2377Y-5.5875
X13.2892Y-3.395
X13.2892Y-5.645
T5
X3.63Y-3.76
X3.63Y-5.46
X6.2Y-4.64
X9.95Y-4.64
X12.76Y-3.76
X12.76Y-5.46
T6
X2.9795Y-5.7453
X3.4205Y-5.7453
T2
G00X12.606Y-3.1065
M15
G01X12.606Y-3.1379
M16
G05
G00X12.606Y-3.2647
M15
G01X12.606Y-3.308
M16
G05
G00X12.9462Y-3.1065
M15
G01X12.9462Y-3.1379
M16
G05
G00X12.9462Y-3.2647
M15
G01X12.9462Y-3.308
M16
G05
T0
M30
