M48
INCH
T1C0.0236
T2C0.0315
T3C0.0689
T4C0.1200
T5C0.1570
%
G90
G05
T1
X12.6623Y-3.2675
X12.8899Y-3.2675
T2
X3.5769Y-3.95
T3
X3.0017Y-3.495
X3.0017Y-4.245
X3.4017Y-3.495
X3.4017Y-4.245
X3.9392Y-3.495
X3.9392Y-5.745
X4.033Y-4.995
X4.1267Y-4.245
X4.3142Y-3.495
X4.3392Y-3.495
X4.3392Y-5.745
X4.433Y-4.995
X4.5267Y-4.245
X4.6892Y-3.495
X4.6892Y-5.745
X4.7142Y-3.495
X4.8767Y-4.995
X5.0642Y-4.245
X5.0892Y-3.495
X5.0892Y-5.745
X5.2767Y-4.995
X5.4392Y-3.495
X5.4392Y-5.745
X5.4642Y-4.245
X5.6267Y-4.995
X5.8142Y-4.245
X5.8392Y-3.495
X5.8392Y-5.745
X6.0267Y-4.995
X6.1892Y-3.495
X6.1892Y-5.745
X6.2142Y-4.245
X6.3767Y-4.995
X6.5642Y-4.245
X6.5892Y-3.495
X6.5892Y-5.745
X6.7767Y-4.995
X6.9392Y-3.495
X6.9642Y-4.245
X7.1267Y-4.995
X7.3142Y-4.245
X7.3392Y-3.495
X7.5267Y-4.995
X7.5955Y-5.745
X7.6892Y-3.495
X7.7142Y-4.245
X7.8767Y-4.995
X7.9955Y-5.745
X8.0642Y-4.245
X8.0892Y-3.495
X8.2495Y-5.745
X8.2767Y-4.995
X8.4392Y-3.495
X8.4642Y-4.245
X8.6267Y-4.995
X8.6495Y-5.745
X8.8142Y-4.245
X8.8392Y-3.495
X9.0267Y-4.995
X9.1892Y-3.495
X9.2142Y-4.245
X9.3767Y-4.995
X9.4705Y-5.745
X9.5642Y-4.245
X9.5892Y-3.495
X9.7767Y-4.995
X9.8705Y-5.745
X9.9392Y-3.495
X9.9642Y-4.245
X10.1267Y-4.995
X10.3142Y-4.245
X10.3392Y-3.495
X10.5267Y-4.995
X10.6892Y-3.495
X10.6892Y-5.745
X10.7142Y-4.245
X10.8767Y-4.995
X10.9675Y-5.7445
X11.0642Y-4.245
X11.0892Y-3.495
X11.0892Y-5.745
X11.2767Y-4.995
X11.3675Y-5.7445
X11.4392Y-3.495
X11.4392Y-5.745
X11.4642Y-4.245
X11.6267Y-4.995
X11.8142Y-4.245
X11.8392Y-3.495
X11.8392Y-5.745
X11.905Y-5.745
X12.0267Y-4.995
X12.1892Y-3.495
X12.1892Y-5.745
X12.2142Y-4.245
X12.305Y-5.745
X12.5892Y-3.495
X12.5892Y-5.745
X12.658Y-4.995
X12.7517Y-4.245
X12.845Y-5.745
X12.9392Y-3.495
X12.9392Y-5.745
X13.058Y-4.995
X13.1517Y-4.245
X13.245Y-5.745
X13.3392Y-3.495
X13.3392Y-5.745
T4
X4.0442Y-3.22
X4.9843Y-3.22
X6.5745Y-6.02
X7.3255Y-6.02
X8.2655Y-6.02
X9.2005Y-6.02
X10.1405Y-6.02
X10.3245Y-6.02
T5
X3.2018Y-3.495
X3.2018Y-4.245
X4.0442Y-3.82
X4.1392Y-3.495
X4.1392Y-5.745
X4.233Y-4.995
X4.3267Y-4.245
X4.5142Y-3.495
X4.8892Y-3.495
X4.8892Y-5.745
X4.9843Y-3.82
X5.0767Y-4.995
X5.2642Y-4.245
X5.6392Y-3.495
X5.6392Y-5.745
X5.8267Y-4.995
X6.0142Y-4.245
X6.3892Y-3.495
X6.3892Y-5.745
X6.5745Y-5.42
X6.5767Y-4.995
X6.7642Y-4.245
X7.1392Y-3.495
X7.3255Y-5.42
X7.3267Y-4.995
X7.5142Y-4.245
X7.7955Y-5.745
X7.8892Y-3.495
X8.0768Y-4.995
X8.2643Y-4.245
X8.2655Y-5.42
X8.4495Y-5.745
X8.6393Y-3.495
X8.8268Y-4.995
X9.0143Y-4.245
X9.2005Y-5.42
X9.3893Y-3.495
X9.5768Y-4.995
X9.6705Y-5.745
X9.7643Y-4.245
X10.1393Y-3.495
X10.1405Y-5.42
X10.3245Y-5.42
X10.3268Y-4.995
X10.5143Y-4.245
X10.8893Y-3.495
X10.8893Y-5.745
X11.0768Y-4.995
X11.1675Y-5.7445
X11.2643Y-4.245
X11.6393Y-3.495
X11.6393Y-5.745
X11.8268Y-4.995
X12.0143Y-4.245
X12.105Y-5.745
X12.3893Y-3.495
X12.3893Y-5.745
X12.858Y-4.995
X12.9518Y-4.245
X13.045Y-5.745
X13.1393Y-3.495
X13.1393Y-5.745
T0
M30
