G04 #@! TF.GenerationSoftware,KiCad,Pcbnew,(5.1.12)-1*
G04 #@! TF.CreationDate,2022-01-21T17:36:30-06:00*
G04 #@! TF.ProjectId,pcb,7063622e-6b69-4636-9164-5f7063625858,rev?*
G04 #@! TF.SameCoordinates,Original*
G04 #@! TF.FileFunction,Paste,Top*
G04 #@! TF.FilePolarity,Positive*
%FSLAX46Y46*%
G04 Gerber Fmt 4.6, Leading zero omitted, Abs format (unit mm)*
G04 Created by KiCad (PCBNEW (5.1.12)-1) date 2022-01-21 17:36:30*
%MOMM*%
%LPD*%
G01*
G04 APERTURE LIST*
%ADD10R,0.550000X1.500000*%
%ADD11R,1.500000X0.550000*%
%ADD12R,0.900000X1.700000*%
%ADD13R,1.200000X1.400000*%
%ADD14R,1.000000X0.700000*%
%ADD15R,0.600000X0.700000*%
%ADD16R,0.300000X1.160000*%
%ADD17R,0.600000X1.160000*%
%ADD18R,1.200000X0.900000*%
G04 APERTURE END LIST*
G04 #@! TO.C,R7*
G36*
G01*
X80618752Y-132560750D02*
X79718748Y-132560750D01*
G75*
G02*
X79468750Y-132310752I0J249998D01*
G01*
X79468750Y-131785748D01*
G75*
G02*
X79718748Y-131535750I249998J0D01*
G01*
X80618752Y-131535750D01*
G75*
G02*
X80868750Y-131785748I0J-249998D01*
G01*
X80868750Y-132310752D01*
G75*
G02*
X80618752Y-132560750I-249998J0D01*
G01*
G37*
G36*
G01*
X80618752Y-134385750D02*
X79718748Y-134385750D01*
G75*
G02*
X79468750Y-134135752I0J249998D01*
G01*
X79468750Y-133610748D01*
G75*
G02*
X79718748Y-133360750I249998J0D01*
G01*
X80618752Y-133360750D01*
G75*
G02*
X80868750Y-133610748I0J-249998D01*
G01*
X80868750Y-134135752D01*
G75*
G02*
X80618752Y-134385750I-249998J0D01*
G01*
G37*
G04 #@! TD*
D10*
G04 #@! TO.C,U1*
X97230700Y-123841750D03*
X96430700Y-123841750D03*
X95630700Y-123841750D03*
X94830700Y-123841750D03*
X94030700Y-123841750D03*
X93230700Y-123841750D03*
X92430700Y-123841750D03*
X91630700Y-123841750D03*
X90830700Y-123841750D03*
X90030700Y-123841750D03*
X89230700Y-123841750D03*
D11*
X87530700Y-122141750D03*
X87530700Y-121341750D03*
X87530700Y-120541750D03*
X87530700Y-119741750D03*
X87530700Y-118941750D03*
X87530700Y-118141750D03*
X87530700Y-117341750D03*
X87530700Y-116541750D03*
X87530700Y-115741750D03*
X87530700Y-114941750D03*
X87530700Y-114141750D03*
D10*
X89230700Y-112441750D03*
X90030700Y-112441750D03*
X90830700Y-112441750D03*
X91630700Y-112441750D03*
X92430700Y-112441750D03*
X93230700Y-112441750D03*
X94030700Y-112441750D03*
X94830700Y-112441750D03*
X95630700Y-112441750D03*
X96430700Y-112441750D03*
X97230700Y-112441750D03*
D11*
X98930700Y-114141750D03*
X98930700Y-114941750D03*
X98930700Y-115741750D03*
X98930700Y-116541750D03*
X98930700Y-117341750D03*
X98930700Y-118141750D03*
X98930700Y-118941750D03*
X98930700Y-119741750D03*
X98930700Y-120541750D03*
X98930700Y-121341750D03*
X98930700Y-122141750D03*
G04 #@! TD*
D12*
G04 #@! TO.C,SW1*
X92554000Y-100330000D03*
X89154000Y-100330000D03*
G04 #@! TD*
D13*
G04 #@! TO.C,Y1*
X91616000Y-104394000D03*
X91616000Y-106594000D03*
X89916000Y-106594000D03*
X89916000Y-104394000D03*
G04 #@! TD*
D14*
G04 #@! TO.C,U2*
X320528950Y-105441750D03*
D15*
X320728950Y-107441750D03*
X318828950Y-105441750D03*
X318828950Y-107441750D03*
G04 #@! TD*
G04 #@! TO.C,R6*
G36*
G01*
X317803952Y-100112250D02*
X316903948Y-100112250D01*
G75*
G02*
X316653950Y-99862252I0J249998D01*
G01*
X316653950Y-99337248D01*
G75*
G02*
X316903948Y-99087250I249998J0D01*
G01*
X317803952Y-99087250D01*
G75*
G02*
X318053950Y-99337248I0J-249998D01*
G01*
X318053950Y-99862252D01*
G75*
G02*
X317803952Y-100112250I-249998J0D01*
G01*
G37*
G36*
G01*
X317803952Y-101937250D02*
X316903948Y-101937250D01*
G75*
G02*
X316653950Y-101687252I0J249998D01*
G01*
X316653950Y-101162248D01*
G75*
G02*
X316903948Y-100912250I249998J0D01*
G01*
X317803952Y-100912250D01*
G75*
G02*
X318053950Y-101162248I0J-249998D01*
G01*
X318053950Y-101687252D01*
G75*
G02*
X317803952Y-101937250I-249998J0D01*
G01*
G37*
G04 #@! TD*
G04 #@! TO.C,R5*
G36*
G01*
X320998002Y-100112250D02*
X320097998Y-100112250D01*
G75*
G02*
X319848000Y-99862252I0J249998D01*
G01*
X319848000Y-99337248D01*
G75*
G02*
X320097998Y-99087250I249998J0D01*
G01*
X320998002Y-99087250D01*
G75*
G02*
X321248000Y-99337248I0J-249998D01*
G01*
X321248000Y-99862252D01*
G75*
G02*
X320998002Y-100112250I-249998J0D01*
G01*
G37*
G36*
G01*
X320998002Y-101937250D02*
X320097998Y-101937250D01*
G75*
G02*
X319848000Y-101687252I0J249998D01*
G01*
X319848000Y-101162248D01*
G75*
G02*
X320097998Y-100912250I249998J0D01*
G01*
X320998002Y-100912250D01*
G75*
G02*
X321248000Y-101162248I0J-249998D01*
G01*
X321248000Y-101687252D01*
G75*
G02*
X320998002Y-101937250I-249998J0D01*
G01*
G37*
G04 #@! TD*
G04 #@! TO.C,R4*
G36*
G01*
X95753500Y-101034002D02*
X95753500Y-100133998D01*
G75*
G02*
X96003498Y-99884000I249998J0D01*
G01*
X96528502Y-99884000D01*
G75*
G02*
X96778500Y-100133998I0J-249998D01*
G01*
X96778500Y-101034002D01*
G75*
G02*
X96528502Y-101284000I-249998J0D01*
G01*
X96003498Y-101284000D01*
G75*
G02*
X95753500Y-101034002I0J249998D01*
G01*
G37*
G36*
G01*
X97578500Y-101034002D02*
X97578500Y-100133998D01*
G75*
G02*
X97828498Y-99884000I249998J0D01*
G01*
X98353502Y-99884000D01*
G75*
G02*
X98603500Y-100133998I0J-249998D01*
G01*
X98603500Y-101034002D01*
G75*
G02*
X98353502Y-101284000I-249998J0D01*
G01*
X97828498Y-101284000D01*
G75*
G02*
X97578500Y-101034002I0J249998D01*
G01*
G37*
G04 #@! TD*
G04 #@! TO.C,R3*
G36*
G01*
X312635200Y-105098002D02*
X312635200Y-104197998D01*
G75*
G02*
X312885198Y-103948000I249998J0D01*
G01*
X313410202Y-103948000D01*
G75*
G02*
X313660200Y-104197998I0J-249998D01*
G01*
X313660200Y-105098002D01*
G75*
G02*
X313410202Y-105348000I-249998J0D01*
G01*
X312885198Y-105348000D01*
G75*
G02*
X312635200Y-105098002I0J249998D01*
G01*
G37*
G36*
G01*
X314460200Y-105098002D02*
X314460200Y-104197998D01*
G75*
G02*
X314710198Y-103948000I249998J0D01*
G01*
X315235202Y-103948000D01*
G75*
G02*
X315485200Y-104197998I0J-249998D01*
G01*
X315485200Y-105098002D01*
G75*
G02*
X315235202Y-105348000I-249998J0D01*
G01*
X314710198Y-105348000D01*
G75*
G02*
X314460200Y-105098002I0J249998D01*
G01*
G37*
G04 #@! TD*
G04 #@! TO.C,R2*
G36*
G01*
X314460200Y-108273002D02*
X314460200Y-107372998D01*
G75*
G02*
X314710198Y-107123000I249998J0D01*
G01*
X315235202Y-107123000D01*
G75*
G02*
X315485200Y-107372998I0J-249998D01*
G01*
X315485200Y-108273002D01*
G75*
G02*
X315235202Y-108523000I-249998J0D01*
G01*
X314710198Y-108523000D01*
G75*
G02*
X314460200Y-108273002I0J249998D01*
G01*
G37*
G36*
G01*
X312635200Y-108273002D02*
X312635200Y-107372998D01*
G75*
G02*
X312885198Y-107123000I249998J0D01*
G01*
X313410202Y-107123000D01*
G75*
G02*
X313660200Y-107372998I0J-249998D01*
G01*
X313660200Y-108273002D01*
G75*
G02*
X313410202Y-108523000I-249998J0D01*
G01*
X312885198Y-108523000D01*
G75*
G02*
X312635200Y-108273002I0J249998D01*
G01*
G37*
G04 #@! TD*
G04 #@! TO.C,R1*
G36*
G01*
X83793752Y-132560750D02*
X82893748Y-132560750D01*
G75*
G02*
X82643750Y-132310752I0J249998D01*
G01*
X82643750Y-131785748D01*
G75*
G02*
X82893748Y-131535750I249998J0D01*
G01*
X83793752Y-131535750D01*
G75*
G02*
X84043750Y-131785748I0J-249998D01*
G01*
X84043750Y-132310752D01*
G75*
G02*
X83793752Y-132560750I-249998J0D01*
G01*
G37*
G36*
G01*
X83793752Y-134385750D02*
X82893748Y-134385750D01*
G75*
G02*
X82643750Y-134135752I0J249998D01*
G01*
X82643750Y-133610748D01*
G75*
G02*
X82893748Y-133360750I249998J0D01*
G01*
X83793752Y-133360750D01*
G75*
G02*
X84043750Y-133610748I0J-249998D01*
G01*
X84043750Y-134135752D01*
G75*
G02*
X83793752Y-134385750I-249998J0D01*
G01*
G37*
G04 #@! TD*
D16*
G04 #@! TO.C,J1*
X325262400Y-84053880D03*
X324762400Y-84053880D03*
X324262400Y-84053880D03*
X326262400Y-84053880D03*
X325762400Y-84053880D03*
X323262400Y-84053880D03*
X323762400Y-84053880D03*
X322762400Y-84053880D03*
D17*
X326912400Y-84053880D03*
X326912400Y-84053880D03*
X327712400Y-84053880D03*
X327712400Y-84053880D03*
X322112400Y-84053880D03*
X321312400Y-84053880D03*
X322112400Y-84053880D03*
X321312400Y-84053880D03*
G04 #@! TD*
G04 #@! TO.C,F1*
G36*
G01*
X320360200Y-113629250D02*
X319110200Y-113629250D01*
G75*
G02*
X318860200Y-113379250I0J250000D01*
G01*
X318860200Y-112629250D01*
G75*
G02*
X319110200Y-112379250I250000J0D01*
G01*
X320360200Y-112379250D01*
G75*
G02*
X320610200Y-112629250I0J-250000D01*
G01*
X320610200Y-113379250D01*
G75*
G02*
X320360200Y-113629250I-250000J0D01*
G01*
G37*
G36*
G01*
X320360200Y-110829250D02*
X319110200Y-110829250D01*
G75*
G02*
X318860200Y-110579250I0J250000D01*
G01*
X318860200Y-109829250D01*
G75*
G02*
X319110200Y-109579250I250000J0D01*
G01*
X320360200Y-109579250D01*
G75*
G02*
X320610200Y-109829250I0J-250000D01*
G01*
X320610200Y-110579250D01*
G75*
G02*
X320360200Y-110829250I-250000J0D01*
G01*
G37*
G04 #@! TD*
D18*
G04 #@! TO.C,D50*
X90487500Y-151668750D03*
X90487500Y-148368750D03*
G04 #@! TD*
G04 #@! TO.C,D49*
X99580700Y-151541750D03*
X99580700Y-148241750D03*
G04 #@! TD*
G04 #@! TO.C,D48*
X118630700Y-151541750D03*
X118630700Y-148241750D03*
G04 #@! TD*
G04 #@! TO.C,D47*
X137680700Y-151541750D03*
X137680700Y-148241750D03*
G04 #@! TD*
G04 #@! TO.C,D46*
X156730700Y-151541750D03*
X156730700Y-148241750D03*
G04 #@! TD*
G04 #@! TO.C,D45*
X192449450Y-151731250D03*
X192449450Y-148431250D03*
G04 #@! TD*
G04 #@! TO.C,D44*
X240074450Y-151668750D03*
X240074450Y-148368750D03*
G04 #@! TD*
G04 #@! TO.C,D43*
X271030700Y-151731250D03*
X271030700Y-148431250D03*
G04 #@! TD*
G04 #@! TO.C,D42*
X290874450Y-151731250D03*
X290874450Y-148431250D03*
G04 #@! TD*
G04 #@! TO.C,D41*
X319087500Y-151731250D03*
X319087500Y-148431250D03*
G04 #@! TD*
G04 #@! TO.C,D40*
X323850000Y-151731250D03*
X323850000Y-148431250D03*
G04 #@! TD*
G04 #@! TO.C,D39*
X101961950Y-129191750D03*
X101961950Y-132491750D03*
G04 #@! TD*
G04 #@! TO.C,D38*
X123393200Y-132554250D03*
X123393200Y-129254250D03*
G04 #@! TD*
G04 #@! TO.C,D37*
X142443200Y-132554250D03*
X142443200Y-129254250D03*
G04 #@! TD*
G04 #@! TO.C,D36*
X161493200Y-132491750D03*
X161493200Y-129191750D03*
G04 #@! TD*
G04 #@! TO.C,D35*
X180543200Y-132554250D03*
X180543200Y-129254250D03*
G04 #@! TD*
G04 #@! TO.C,D34*
X199593200Y-132491750D03*
X199593200Y-129191750D03*
G04 #@! TD*
G04 #@! TO.C,D33*
X218643200Y-132554250D03*
X218643200Y-129254250D03*
G04 #@! TD*
G04 #@! TO.C,D32*
X237693200Y-132554250D03*
X237693200Y-129254250D03*
G04 #@! TD*
G04 #@! TO.C,D31*
X256762250Y-132428250D03*
X256762250Y-129128250D03*
G04 #@! TD*
G04 #@! TO.C,D30*
X275793200Y-132491750D03*
X275793200Y-129191750D03*
G04 #@! TD*
G04 #@! TO.C,D29*
X294843200Y-132491750D03*
X294843200Y-129191750D03*
G04 #@! TD*
G04 #@! TO.C,D28*
X321036950Y-132554250D03*
X321036950Y-129254250D03*
G04 #@! TD*
G04 #@! TO.C,D27*
X75406250Y-113631250D03*
X75406250Y-110331250D03*
G04 #@! TD*
G04 #@! TO.C,D26*
X104343200Y-113441750D03*
X104343200Y-110141750D03*
G04 #@! TD*
G04 #@! TO.C,D25*
X128155700Y-113504250D03*
X128155700Y-110204250D03*
G04 #@! TD*
G04 #@! TO.C,D24*
X147205700Y-113504250D03*
X147205700Y-110204250D03*
G04 #@! TD*
G04 #@! TO.C,D23*
X166255700Y-113504250D03*
X166255700Y-110204250D03*
G04 #@! TD*
G04 #@! TO.C,D22*
X185305700Y-110204250D03*
X185305700Y-113504250D03*
G04 #@! TD*
G04 #@! TO.C,D21*
X204355700Y-113441750D03*
X204355700Y-110141750D03*
G04 #@! TD*
G04 #@! TO.C,D20*
X223405700Y-113441750D03*
X223405700Y-110141750D03*
G04 #@! TD*
G04 #@! TO.C,D19*
X242455700Y-113504250D03*
X242455700Y-110204250D03*
G04 #@! TD*
G04 #@! TO.C,D18*
X261505700Y-113504250D03*
X261505700Y-110204250D03*
G04 #@! TD*
G04 #@! TO.C,D17*
X280555700Y-113504250D03*
X280555700Y-110204250D03*
G04 #@! TD*
G04 #@! TO.C,D16*
X299605700Y-113441750D03*
X299605700Y-110141750D03*
G04 #@! TD*
G04 #@! TO.C,D15*
X324211950Y-110331250D03*
X324211950Y-113631250D03*
G04 #@! TD*
G04 #@! TO.C,D14*
X75406250Y-94581250D03*
X75406250Y-91281250D03*
G04 #@! TD*
G04 #@! TO.C,D13*
X99218750Y-94581250D03*
X99218750Y-91281250D03*
G04 #@! TD*
G04 #@! TO.C,D12*
X118630700Y-94581250D03*
X118630700Y-91281250D03*
G04 #@! TD*
G04 #@! TO.C,D11*
X137680700Y-94454250D03*
X137680700Y-91154250D03*
G04 #@! TD*
G04 #@! TO.C,D10*
X156730700Y-94454250D03*
X156730700Y-91154250D03*
G04 #@! TD*
G04 #@! TO.C,D9*
X175780700Y-94454250D03*
X175780700Y-91154250D03*
G04 #@! TD*
G04 #@! TO.C,D8*
X194830700Y-94454250D03*
X194830700Y-91154250D03*
G04 #@! TD*
G04 #@! TO.C,D7*
X213880700Y-94391750D03*
X213880700Y-91091750D03*
G04 #@! TD*
G04 #@! TO.C,D6*
X232930700Y-94391750D03*
X232930700Y-91091750D03*
G04 #@! TD*
G04 #@! TO.C,D5*
X251980700Y-94454250D03*
X251980700Y-91154250D03*
G04 #@! TD*
G04 #@! TO.C,D4*
X271030700Y-94454250D03*
X271030700Y-91154250D03*
G04 #@! TD*
G04 #@! TO.C,D3*
X290080700Y-94454250D03*
X290080700Y-91154250D03*
G04 #@! TD*
G04 #@! TO.C,D2*
X309130700Y-94454250D03*
X309130700Y-91154250D03*
G04 #@! TD*
G04 #@! TO.C,D1*
X328612500Y-94581250D03*
X328612500Y-91281250D03*
G04 #@! TD*
G04 #@! TO.C,C7*
G36*
G01*
X97732000Y-107663000D02*
X97732000Y-106713000D01*
G75*
G02*
X97982000Y-106463000I250000J0D01*
G01*
X98482000Y-106463000D01*
G75*
G02*
X98732000Y-106713000I0J-250000D01*
G01*
X98732000Y-107663000D01*
G75*
G02*
X98482000Y-107913000I-250000J0D01*
G01*
X97982000Y-107913000D01*
G75*
G02*
X97732000Y-107663000I0J250000D01*
G01*
G37*
G36*
G01*
X95832000Y-107663000D02*
X95832000Y-106713000D01*
G75*
G02*
X96082000Y-106463000I250000J0D01*
G01*
X96582000Y-106463000D01*
G75*
G02*
X96832000Y-106713000I0J-250000D01*
G01*
X96832000Y-107663000D01*
G75*
G02*
X96582000Y-107913000I-250000J0D01*
G01*
X96082000Y-107913000D01*
G75*
G02*
X95832000Y-107663000I0J250000D01*
G01*
G37*
G04 #@! TD*
G04 #@! TO.C,C6*
G36*
G01*
X97666000Y-104361000D02*
X97666000Y-103411000D01*
G75*
G02*
X97916000Y-103161000I250000J0D01*
G01*
X98416000Y-103161000D01*
G75*
G02*
X98666000Y-103411000I0J-250000D01*
G01*
X98666000Y-104361000D01*
G75*
G02*
X98416000Y-104611000I-250000J0D01*
G01*
X97916000Y-104611000D01*
G75*
G02*
X97666000Y-104361000I0J250000D01*
G01*
G37*
G36*
G01*
X95766000Y-104361000D02*
X95766000Y-103411000D01*
G75*
G02*
X96016000Y-103161000I250000J0D01*
G01*
X96516000Y-103161000D01*
G75*
G02*
X96766000Y-103411000I0J-250000D01*
G01*
X96766000Y-104361000D01*
G75*
G02*
X96516000Y-104611000I-250000J0D01*
G01*
X96016000Y-104611000D01*
G75*
G02*
X95766000Y-104361000I0J250000D01*
G01*
G37*
G04 #@! TD*
G04 #@! TO.C,C5*
G36*
G01*
X92554250Y-132555000D02*
X92554250Y-131605000D01*
G75*
G02*
X92804250Y-131355000I250000J0D01*
G01*
X93304250Y-131355000D01*
G75*
G02*
X93554250Y-131605000I0J-250000D01*
G01*
X93554250Y-132555000D01*
G75*
G02*
X93304250Y-132805000I-250000J0D01*
G01*
X92804250Y-132805000D01*
G75*
G02*
X92554250Y-132555000I0J250000D01*
G01*
G37*
G36*
G01*
X90654250Y-132555000D02*
X90654250Y-131605000D01*
G75*
G02*
X90904250Y-131355000I250000J0D01*
G01*
X91404250Y-131355000D01*
G75*
G02*
X91654250Y-131605000I0J-250000D01*
G01*
X91654250Y-132555000D01*
G75*
G02*
X91404250Y-132805000I-250000J0D01*
G01*
X90904250Y-132805000D01*
G75*
G02*
X90654250Y-132555000I0J250000D01*
G01*
G37*
G04 #@! TD*
G04 #@! TO.C,C4*
G36*
G01*
X86380700Y-132555000D02*
X86380700Y-131605000D01*
G75*
G02*
X86630700Y-131355000I250000J0D01*
G01*
X87130700Y-131355000D01*
G75*
G02*
X87380700Y-131605000I0J-250000D01*
G01*
X87380700Y-132555000D01*
G75*
G02*
X87130700Y-132805000I-250000J0D01*
G01*
X86630700Y-132805000D01*
G75*
G02*
X86380700Y-132555000I0J250000D01*
G01*
G37*
G36*
G01*
X88280700Y-132555000D02*
X88280700Y-131605000D01*
G75*
G02*
X88530700Y-131355000I250000J0D01*
G01*
X89030700Y-131355000D01*
G75*
G02*
X89280700Y-131605000I0J-250000D01*
G01*
X89280700Y-132555000D01*
G75*
G02*
X89030700Y-132805000I-250000J0D01*
G01*
X88530700Y-132805000D01*
G75*
G02*
X88280700Y-132555000I0J250000D01*
G01*
G37*
G04 #@! TD*
G04 #@! TO.C,C3*
G36*
G01*
X92474200Y-129221250D02*
X92474200Y-128271250D01*
G75*
G02*
X92724200Y-128021250I250000J0D01*
G01*
X93224200Y-128021250D01*
G75*
G02*
X93474200Y-128271250I0J-250000D01*
G01*
X93474200Y-129221250D01*
G75*
G02*
X93224200Y-129471250I-250000J0D01*
G01*
X92724200Y-129471250D01*
G75*
G02*
X92474200Y-129221250I0J250000D01*
G01*
G37*
G36*
G01*
X90574200Y-129221250D02*
X90574200Y-128271250D01*
G75*
G02*
X90824200Y-128021250I250000J0D01*
G01*
X91324200Y-128021250D01*
G75*
G02*
X91574200Y-128271250I0J-250000D01*
G01*
X91574200Y-129221250D01*
G75*
G02*
X91324200Y-129471250I-250000J0D01*
G01*
X90824200Y-129471250D01*
G75*
G02*
X90574200Y-129221250I0J250000D01*
G01*
G37*
G04 #@! TD*
G04 #@! TO.C,C2*
G36*
G01*
X86380700Y-129221250D02*
X86380700Y-128271250D01*
G75*
G02*
X86630700Y-128021250I250000J0D01*
G01*
X87130700Y-128021250D01*
G75*
G02*
X87380700Y-128271250I0J-250000D01*
G01*
X87380700Y-129221250D01*
G75*
G02*
X87130700Y-129471250I-250000J0D01*
G01*
X86630700Y-129471250D01*
G75*
G02*
X86380700Y-129221250I0J250000D01*
G01*
G37*
G36*
G01*
X88280700Y-129221250D02*
X88280700Y-128271250D01*
G75*
G02*
X88530700Y-128021250I250000J0D01*
G01*
X89030700Y-128021250D01*
G75*
G02*
X89280700Y-128271250I0J-250000D01*
G01*
X89280700Y-129221250D01*
G75*
G02*
X89030700Y-129471250I-250000J0D01*
G01*
X88530700Y-129471250D01*
G75*
G02*
X88280700Y-129221250I0J250000D01*
G01*
G37*
G04 #@! TD*
G04 #@! TO.C,C1*
G36*
G01*
X101918750Y-117864000D02*
X102868750Y-117864000D01*
G75*
G02*
X103118750Y-118114000I0J-250000D01*
G01*
X103118750Y-118614000D01*
G75*
G02*
X102868750Y-118864000I-250000J0D01*
G01*
X101918750Y-118864000D01*
G75*
G02*
X101668750Y-118614000I0J250000D01*
G01*
X101668750Y-118114000D01*
G75*
G02*
X101918750Y-117864000I250000J0D01*
G01*
G37*
G36*
G01*
X101918750Y-115964000D02*
X102868750Y-115964000D01*
G75*
G02*
X103118750Y-116214000I0J-250000D01*
G01*
X103118750Y-116714000D01*
G75*
G02*
X102868750Y-116964000I-250000J0D01*
G01*
X101918750Y-116964000D01*
G75*
G02*
X101668750Y-116714000I0J250000D01*
G01*
X101668750Y-116214000D01*
G75*
G02*
X101918750Y-115964000I250000J0D01*
G01*
G37*
G04 #@! TD*
M02*
